<svg xmlns="http://www.w3.org/2000/svg" xmlns:xlink="http://www.w3.org/1999/xlink" width="943" zoomAndPan="magnify" viewBox="0 0 707.25 352.49999" height="470" preserveAspectRatio="xMidYMid meet" version="1.0"><defs><g/></defs><g fill="#000000" fill-opacity="1"><g transform="translate(23.075373, 299.397119)"><g><path d="M 45.328125 1.375 C 33.472656 1.375 23.488281 -1.835938 15.375 -8.265625 C 7.269531 -14.691406 3.21875 -23.910156 3.21875 -35.921875 C 3.21875 -42.953125 4.554688 -49.222656 7.234375 -54.734375 C 9.910156 -60.242188 13.425781 -64.566406 17.78125 -67.703125 C 26.582031 -74.128906 36.453125 -77.34375 47.390625 -77.34375 C 53.742188 -77.34375 60.363281 -76.195312 67.25 -73.90625 L 66.09375 -66.09375 C 62.5 -67.625 59.707031 -68.769531 57.71875 -69.53125 C 51.976562 -71.601562 46.203125 -72.640625 40.390625 -72.640625 C 32.359375 -70.796875 26.179688 -66.8125 21.859375 -60.6875 C 17.535156 -54.570312 15.375 -46.925781 15.375 -37.75 C 15.375 -26.507812 18.316406 -17.847656 24.203125 -11.765625 C 30.097656 -5.679688 37.863281 -2.640625 47.5 -2.640625 C 57.144531 -2.640625 64.335938 -4.703125 69.078125 -8.828125 L 69.078125 -2.53125 C 62.503906 0.0703125 54.585938 1.375 45.328125 1.375 Z M 45.328125 1.375 "/></g></g></g><g fill="#000000" fill-opacity="1"><g transform="translate(95.590742, 299.397119)"><g><path d="M 10.328125 0 L 10.328125 -75.96875 L 56.34375 -75.96875 L 55.1875 -68.28125 L 33.84375 -71.828125 C 30.101562 -71.828125 25.972656 -71.175781 21.453125 -69.875 L 21.453125 -42 L 46.9375 -42 L 46.9375 -37.640625 L 21.453125 -37.640625 L 21.453125 -4.125 L 57.03125 -7.6875 L 55.890625 0 Z M 10.328125 0 "/></g></g></g><g fill="#000000" fill-opacity="1"><g transform="translate(160.074345, 299.397119)"><g><path d="M 68.046875 1.265625 L 66.09375 1.265625 L 15.828125 -61.625 L 15.375 -61.625 L 15.375 0 L 10.328125 0 L 10.328125 -75.96875 L 18.8125 -75.96875 L 62.53125 -20.765625 L 63 -20.765625 L 63 -75.96875 L 68.046875 -75.96875 Z M 68.046875 1.265625 "/></g></g></g><g fill="#000000" fill-opacity="1"><g transform="translate(238.441429, 299.397119)"><g><path d="M 21.453125 -42 L 45.78125 -42 L 45.78125 -37.640625 L 21.453125 -37.640625 L 21.453125 0 L 10.328125 0 L 10.328125 -75.96875 L 55.1875 -75.96875 L 55.1875 -68.28125 L 33.96875 -71.828125 C 30.144531 -71.828125 25.972656 -71.175781 21.453125 -69.875 Z M 21.453125 -42 "/></g></g></g><g fill="#000000" fill-opacity="1"><g transform="translate(293.631124, 299.397119)"><g><path d="M 44.875 -77.34375 C 54.8125 -77.34375 63.03125 -74.070312 69.53125 -67.53125 C 76.039062 -60.988281 79.296875 -51.90625 79.296875 -40.28125 C 79.296875 -32.78125 77.992188 -26.21875 75.390625 -20.59375 C 72.785156 -14.96875 69.378906 -10.628906 65.171875 -7.578125 C 56.992188 -1.609375 47.96875 1.375 38.09375 1.375 C 28.226562 1.375 20.0625 -1.929688 13.59375 -8.546875 C 7.132812 -15.160156 3.90625 -24.285156 3.90625 -35.921875 C 3.90625 -41.960938 4.765625 -47.410156 6.484375 -52.265625 C 8.203125 -57.128906 10.457031 -61.085938 13.25 -64.140625 C 16.039062 -67.203125 19.273438 -69.765625 22.953125 -71.828125 C 29.679688 -75.503906 36.988281 -77.34375 44.875 -77.34375 Z M 21.796875 -13.078125 C 23.785156 -9.710938 26.460938 -7.09375 29.828125 -5.21875 C 33.203125 -3.34375 37.085938 -2.40625 41.484375 -2.40625 C 45.878906 -2.40625 49.796875 -3.515625 53.234375 -5.734375 C 56.679688 -7.953125 59.363281 -10.859375 61.28125 -14.453125 C 65.175781 -21.648438 67.125 -29.378906 67.125 -37.640625 C 67.125 -47.816406 65.097656 -56 61.046875 -62.1875 C 56.535156 -69.15625 49.078125 -72.640625 38.671875 -72.640625 C 31.253906 -70.035156 25.628906 -65.554688 21.796875 -59.203125 C 17.972656 -52.859375 16.0625 -45.671875 16.0625 -37.640625 C 16.0625 -27.847656 17.972656 -19.660156 21.796875 -13.078125 Z M 21.796875 -13.078125 "/></g></g></g><g fill="#000000" fill-opacity="1"><g transform="translate(376.817254, 299.397119)"><g><path d="M 21.578125 -36.265625 L 21.578125 0 L 10.328125 0 L 10.328125 -75.96875 L 35.109375 -75.96875 C 42.835938 -75.96875 49.164062 -74.242188 54.09375 -70.796875 C 59.03125 -67.359375 61.5 -62.828125 61.5 -57.203125 C 61.5 -51.578125 59.53125 -47.140625 55.59375 -43.890625 C 51.65625 -40.640625 46.320312 -38.398438 39.59375 -37.171875 L 70.34375 0 L 57.03125 1.609375 L 30.40625 -36.265625 Z M 21.578125 -39.703125 L 28.921875 -39.703125 C 42.691406 -39.703125 49.578125 -45.132812 49.578125 -56 C 49.578125 -57.832031 49.113281 -59.894531 48.1875 -62.1875 C 46.4375 -67.007812 42.691406 -70.1875 36.953125 -71.71875 C 31.742188 -71.71875 26.617188 -71.066406 21.578125 -69.765625 Z M 21.578125 -39.703125 "/></g></g></g><g fill="#000000" fill-opacity="1"><g transform="translate(450.021061, 299.397119)"><g><path d="M 36.265625 0 L 25.125 0 L 25.125 -70.453125 C 22.53125 -71.066406 19.929688 -71.375 17.328125 -71.375 L 1.84375 -67.8125 L 1.140625 -75.96875 L 60.25 -75.96875 L 59.671875 -67.8125 L 44.0625 -71.375 C 41.457031 -71.375 38.859375 -71.066406 36.265625 -70.453125 Z M 36.265625 0 "/></g></g></g><g fill="#000000" fill-opacity="1"><g transform="translate(511.406702, 299.397119)"><g><path d="M 20.890625 -75.96875 L 20.890625 0 L 10.328125 0 L 10.328125 -75.96875 Z M 20.890625 -75.96875 "/></g></g></g><g fill="#000000" fill-opacity="1"><g transform="translate(542.615834, 299.397119)"><g><path d="M 68.046875 1.265625 L 66.09375 1.265625 L 15.828125 -61.625 L 15.375 -61.625 L 15.375 0 L 10.328125 0 L 10.328125 -75.96875 L 18.8125 -75.96875 L 62.53125 -20.765625 L 63 -20.765625 L 63 -75.96875 L 68.046875 -75.96875 Z M 68.046875 1.265625 "/></g></g></g><g fill="#000000" fill-opacity="1"><g transform="translate(620.982895, 299.397119)"><g><path d="M 21.453125 -42 L 45.78125 -42 L 45.78125 -37.640625 L 21.453125 -37.640625 L 21.453125 0 L 10.328125 0 L 10.328125 -75.96875 L 55.1875 -75.96875 L 55.1875 -68.28125 L 33.96875 -71.828125 C 30.144531 -71.828125 25.972656 -71.175781 21.453125 -69.875 Z M 21.453125 -42 "/></g></g></g><g fill="#000000" fill-opacity="1"><g transform="translate(26.908883, 334.323117)"><g><path d="M 8.171875 0.125 C 6.816406 0.125 5.59375 -0.175781 4.5 -0.78125 C 3.414062 -1.382812 2.5625 -2.21875 1.9375 -3.28125 C 1.320312 -4.34375 1.015625 -5.53125 1.015625 -6.84375 C 1.015625 -8.15625 1.320312 -9.34375 1.9375 -10.40625 C 2.5625 -11.46875 3.421875 -12.296875 4.515625 -12.890625 C 5.609375 -13.492188 6.832031 -13.796875 8.1875 -13.796875 C 9.207031 -13.796875 10.144531 -13.625 11 -13.28125 C 11.863281 -12.945312 12.59375 -12.457031 13.1875 -11.8125 L 12.28125 -10.890625 C 11.207031 -11.972656 9.859375 -12.515625 8.234375 -12.515625 C 7.148438 -12.515625 6.164062 -12.265625 5.28125 -11.765625 C 4.394531 -11.273438 3.695312 -10.597656 3.1875 -9.734375 C 2.6875 -8.867188 2.4375 -7.90625 2.4375 -6.84375 C 2.4375 -5.769531 2.6875 -4.800781 3.1875 -3.9375 C 3.695312 -3.082031 4.394531 -2.40625 5.28125 -1.90625 C 6.164062 -1.414062 7.148438 -1.171875 8.234375 -1.171875 C 9.867188 -1.171875 11.21875 -1.71875 12.28125 -2.8125 L 13.1875 -1.890625 C 12.59375 -1.242188 11.859375 -0.742188 10.984375 -0.390625 C 10.117188 -0.046875 9.179688 0.125 8.171875 0.125 Z M 8.171875 0.125 "/></g></g></g><g fill="#000000" fill-opacity="1"><g transform="translate(40.964773, 334.323117)"><g><path d="M 11.90625 -1.25 L 11.90625 0 L 2.234375 0 L 2.234375 -13.6875 L 11.609375 -13.6875 L 11.609375 -12.4375 L 3.671875 -12.4375 L 3.671875 -7.5625 L 10.75 -7.5625 L 10.75 -6.328125 L 3.671875 -6.328125 L 3.671875 -1.25 Z M 11.90625 -1.25 "/></g></g></g><g fill="#000000" fill-opacity="1"><g transform="translate(54.043205, 334.323117)"><g><path d="M 13.65625 -13.6875 L 13.65625 0 L 12.46875 0 L 3.671875 -11.109375 L 3.671875 0 L 2.234375 0 L 2.234375 -13.6875 L 3.421875 -13.6875 L 12.234375 -2.578125 L 12.234375 -13.6875 Z M 13.65625 -13.6875 "/></g></g></g><g fill="#000000" fill-opacity="1"><g transform="translate(69.936722, 334.323117)"><g><path d="M 4.890625 -12.4375 L 0.078125 -12.4375 L 0.078125 -13.6875 L 11.140625 -13.6875 L 11.140625 -12.4375 L 6.328125 -12.4375 L 6.328125 0 L 4.890625 0 Z M 4.890625 -12.4375 "/></g></g></g><g fill="#000000" fill-opacity="1"><g transform="translate(81.157973, 334.323117)"><g><path d="M 11.578125 0 L 8.4375 -4.390625 C 8.09375 -4.359375 7.726562 -4.34375 7.34375 -4.34375 L 3.671875 -4.34375 L 3.671875 0 L 2.234375 0 L 2.234375 -13.6875 L 7.34375 -13.6875 C 9.09375 -13.6875 10.460938 -13.269531 11.453125 -12.4375 C 12.441406 -11.601562 12.9375 -10.453125 12.9375 -8.984375 C 12.9375 -7.921875 12.664062 -7.019531 12.125 -6.28125 C 11.582031 -5.550781 10.8125 -5.019531 9.8125 -4.6875 L 13.15625 0 Z M 7.3125 -5.578125 C 8.664062 -5.578125 9.703125 -5.875 10.421875 -6.46875 C 11.140625 -7.070312 11.5 -7.910156 11.5 -8.984375 C 11.5 -10.097656 11.140625 -10.953125 10.421875 -11.546875 C 9.703125 -12.140625 8.664062 -12.4375 7.3125 -12.4375 L 3.671875 -12.4375 L 3.671875 -5.578125 Z M 7.3125 -5.578125 "/></g></g></g><g fill="#000000" fill-opacity="1"><g transform="translate(95.292073, 334.323117)"><g><path d="M 8.203125 0.125 C 6.847656 0.125 5.617188 -0.175781 4.515625 -0.78125 C 3.421875 -1.394531 2.5625 -2.226562 1.9375 -3.28125 C 1.320312 -4.34375 1.015625 -5.53125 1.015625 -6.84375 C 1.015625 -8.15625 1.320312 -9.335938 1.9375 -10.390625 C 2.5625 -11.453125 3.421875 -12.285156 4.515625 -12.890625 C 5.617188 -13.492188 6.847656 -13.796875 8.203125 -13.796875 C 9.566406 -13.796875 10.789062 -13.492188 11.875 -12.890625 C 12.957031 -12.296875 13.8125 -11.46875 14.4375 -10.40625 C 15.070312 -9.34375 15.390625 -8.15625 15.390625 -6.84375 C 15.390625 -5.53125 15.070312 -4.34375 14.4375 -3.28125 C 13.8125 -2.21875 12.957031 -1.382812 11.875 -0.78125 C 10.789062 -0.175781 9.566406 0.125 8.203125 0.125 Z M 8.203125 -1.171875 C 9.285156 -1.171875 10.265625 -1.414062 11.140625 -1.90625 C 12.015625 -2.394531 12.695312 -3.070312 13.1875 -3.9375 C 13.6875 -4.800781 13.9375 -5.769531 13.9375 -6.84375 C 13.9375 -7.90625 13.6875 -8.867188 13.1875 -9.734375 C 12.695312 -10.609375 12.015625 -11.289062 11.140625 -11.78125 C 10.265625 -12.269531 9.285156 -12.515625 8.203125 -12.515625 C 7.128906 -12.515625 6.148438 -12.269531 5.265625 -11.78125 C 4.390625 -11.289062 3.695312 -10.609375 3.1875 -9.734375 C 2.6875 -8.867188 2.4375 -7.90625 2.4375 -6.84375 C 2.4375 -5.769531 2.6875 -4.800781 3.1875 -3.9375 C 3.695312 -3.070312 4.390625 -2.394531 5.265625 -1.90625 C 6.148438 -1.414062 7.128906 -1.171875 8.203125 -1.171875 Z M 8.203125 -1.171875 "/></g></g></g><g fill="#000000" fill-opacity="1"><g transform="translate(111.693872, 334.323117)"><g/></g></g><g fill="#000000" fill-opacity="1"><g transform="translate(116.815776, 334.323117)"><g><path d="M 2.234375 -13.6875 L 7.796875 -13.6875 C 9.242188 -13.6875 10.519531 -13.394531 11.625 -12.8125 C 12.738281 -12.226562 13.597656 -11.414062 14.203125 -10.375 C 14.816406 -9.34375 15.125 -8.164062 15.125 -6.84375 C 15.125 -5.507812 14.816406 -4.320312 14.203125 -3.28125 C 13.597656 -2.25 12.738281 -1.441406 11.625 -0.859375 C 10.519531 -0.285156 9.242188 0 7.796875 0 L 2.234375 0 Z M 7.71875 -1.25 C 8.914062 -1.25 9.960938 -1.484375 10.859375 -1.953125 C 11.765625 -2.429688 12.460938 -3.09375 12.953125 -3.9375 C 13.453125 -4.78125 13.703125 -5.75 13.703125 -6.84375 C 13.703125 -7.9375 13.453125 -8.898438 12.953125 -9.734375 C 12.460938 -10.578125 11.765625 -11.238281 10.859375 -11.71875 C 9.960938 -12.195312 8.914062 -12.4375 7.71875 -12.4375 L 3.671875 -12.4375 L 3.671875 -1.25 Z M 7.71875 -1.25 "/></g></g></g><g fill="#000000" fill-opacity="1"><g transform="translate(132.963434, 334.323117)"><g><path d="M 11.90625 -1.25 L 11.90625 0 L 2.234375 0 L 2.234375 -13.6875 L 11.609375 -13.6875 L 11.609375 -12.4375 L 3.671875 -12.4375 L 3.671875 -7.5625 L 10.75 -7.5625 L 10.75 -6.328125 L 3.671875 -6.328125 L 3.671875 -1.25 Z M 11.90625 -1.25 "/></g></g></g><g fill="#000000" fill-opacity="1"><g transform="translate(146.041866, 334.323117)"><g/></g></g><g fill="#000000" fill-opacity="1"><g transform="translate(151.16377, 334.323117)"><g><path d="M 3.671875 -12.4375 L 3.671875 -7.0625 L 10.75 -7.0625 L 10.75 -5.8125 L 3.671875 -5.8125 L 3.671875 0 L 2.234375 0 L 2.234375 -13.6875 L 11.609375 -13.6875 L 11.609375 -12.4375 Z M 3.671875 -12.4375 "/></g></g></g><g fill="#000000" fill-opacity="1"><g transform="translate(163.538437, 334.323117)"><g><path d="M 8.203125 0.125 C 6.847656 0.125 5.617188 -0.175781 4.515625 -0.78125 C 3.421875 -1.394531 2.5625 -2.226562 1.9375 -3.28125 C 1.320312 -4.34375 1.015625 -5.53125 1.015625 -6.84375 C 1.015625 -8.15625 1.320312 -9.335938 1.9375 -10.390625 C 2.5625 -11.453125 3.421875 -12.285156 4.515625 -12.890625 C 5.617188 -13.492188 6.847656 -13.796875 8.203125 -13.796875 C 9.566406 -13.796875 10.789062 -13.492188 11.875 -12.890625 C 12.957031 -12.296875 13.8125 -11.46875 14.4375 -10.40625 C 15.070312 -9.34375 15.390625 -8.15625 15.390625 -6.84375 C 15.390625 -5.53125 15.070312 -4.34375 14.4375 -3.28125 C 13.8125 -2.21875 12.957031 -1.382812 11.875 -0.78125 C 10.789062 -0.175781 9.566406 0.125 8.203125 0.125 Z M 8.203125 -1.171875 C 9.285156 -1.171875 10.265625 -1.414062 11.140625 -1.90625 C 12.015625 -2.394531 12.695312 -3.070312 13.1875 -3.9375 C 13.6875 -4.800781 13.9375 -5.769531 13.9375 -6.84375 C 13.9375 -7.90625 13.6875 -8.867188 13.1875 -9.734375 C 12.695312 -10.609375 12.015625 -11.289062 11.140625 -11.78125 C 10.265625 -12.269531 9.285156 -12.515625 8.203125 -12.515625 C 7.128906 -12.515625 6.148438 -12.269531 5.265625 -11.78125 C 4.390625 -11.289062 3.695312 -10.609375 3.1875 -9.734375 C 2.6875 -8.867188 2.4375 -7.90625 2.4375 -6.84375 C 2.4375 -5.769531 2.6875 -4.800781 3.1875 -3.9375 C 3.695312 -3.070312 4.390625 -2.394531 5.265625 -1.90625 C 6.148438 -1.414062 7.128906 -1.171875 8.203125 -1.171875 Z M 8.203125 -1.171875 "/></g></g></g><g fill="#000000" fill-opacity="1"><g transform="translate(179.940236, 334.323117)"><g><path d="M 11.578125 0 L 8.4375 -4.390625 C 8.09375 -4.359375 7.726562 -4.34375 7.34375 -4.34375 L 3.671875 -4.34375 L 3.671875 0 L 2.234375 0 L 2.234375 -13.6875 L 7.34375 -13.6875 C 9.09375 -13.6875 10.460938 -13.269531 11.453125 -12.4375 C 12.441406 -11.601562 12.9375 -10.453125 12.9375 -8.984375 C 12.9375 -7.921875 12.664062 -7.019531 12.125 -6.28125 C 11.582031 -5.550781 10.8125 -5.019531 9.8125 -4.6875 L 13.15625 0 Z M 7.3125 -5.578125 C 8.664062 -5.578125 9.703125 -5.875 10.421875 -6.46875 C 11.140625 -7.070312 11.5 -7.910156 11.5 -8.984375 C 11.5 -10.097656 11.140625 -10.953125 10.421875 -11.546875 C 9.703125 -12.140625 8.664062 -12.4375 7.3125 -12.4375 L 3.671875 -12.4375 L 3.671875 -5.578125 Z M 7.3125 -5.578125 "/></g></g></g><g fill="#000000" fill-opacity="1"><g transform="translate(194.074336, 334.323117)"><g><path d="M 16.4375 -13.6875 L 16.4375 0 L 15.046875 0 L 15.046875 -10.953125 L 9.671875 -1.734375 L 8.984375 -1.734375 L 3.609375 -10.890625 L 3.609375 0 L 2.234375 0 L 2.234375 -13.6875 L 3.421875 -13.6875 L 9.359375 -3.53125 L 15.25 -13.6875 Z M 16.4375 -13.6875 "/></g></g></g><g fill="#000000" fill-opacity="1"><g transform="translate(212.743848, 334.323117)"><g><path d="M 10.8125 -3.65625 L 3.1875 -3.65625 L 1.546875 0 L 0.046875 0 L 6.296875 -13.6875 L 7.71875 -13.6875 L 13.96875 0 L 12.453125 0 Z M 10.28125 -4.828125 L 7 -12.171875 L 3.71875 -4.828125 Z M 10.28125 -4.828125 "/></g></g></g><g fill="#000000" fill-opacity="1"><g transform="translate(226.760647, 334.323117)"><g><path d="M 8.171875 0.125 C 6.816406 0.125 5.59375 -0.175781 4.5 -0.78125 C 3.414062 -1.382812 2.5625 -2.21875 1.9375 -3.28125 C 1.320312 -4.34375 1.015625 -5.53125 1.015625 -6.84375 C 1.015625 -8.15625 1.320312 -9.34375 1.9375 -10.40625 C 2.5625 -11.46875 3.421875 -12.296875 4.515625 -12.890625 C 5.609375 -13.492188 6.832031 -13.796875 8.1875 -13.796875 C 9.207031 -13.796875 10.144531 -13.625 11 -13.28125 C 11.863281 -12.945312 12.59375 -12.457031 13.1875 -11.8125 L 12.28125 -10.890625 C 11.207031 -11.972656 9.859375 -12.515625 8.234375 -12.515625 C 7.148438 -12.515625 6.164062 -12.265625 5.28125 -11.765625 C 4.394531 -11.273438 3.695312 -10.597656 3.1875 -9.734375 C 2.6875 -8.867188 2.4375 -7.90625 2.4375 -6.84375 C 2.4375 -5.769531 2.6875 -4.800781 3.1875 -3.9375 C 3.695312 -3.082031 4.394531 -2.40625 5.28125 -1.90625 C 6.164062 -1.414062 7.148438 -1.171875 8.234375 -1.171875 C 9.867188 -1.171875 11.21875 -1.71875 12.28125 -2.8125 L 13.1875 -1.890625 C 12.59375 -1.242188 11.859375 -0.742188 10.984375 -0.390625 C 10.117188 -0.046875 9.179688 0.125 8.171875 0.125 Z M 7.46875 4.296875 C 6.832031 4.296875 6.285156 4.144531 5.828125 3.84375 L 6.15625 3.109375 C 6.539062 3.359375 6.972656 3.484375 7.453125 3.484375 C 7.835938 3.484375 8.132812 3.40625 8.34375 3.25 C 8.550781 3.09375 8.65625 2.863281 8.65625 2.5625 C 8.65625 2.289062 8.554688 2.070312 8.359375 1.90625 C 8.160156 1.738281 7.859375 1.65625 7.453125 1.65625 L 7 1.65625 L 7.46875 -0.125 L 8.3125 -0.125 L 8.015625 1.015625 C 8.546875 1.066406 8.957031 1.234375 9.25 1.515625 C 9.539062 1.796875 9.6875 2.15625 9.6875 2.59375 C 9.6875 3.113281 9.484375 3.523438 9.078125 3.828125 C 8.671875 4.140625 8.132812 4.296875 7.46875 4.296875 Z M 7.46875 4.296875 "/></g></g></g><g fill="#000000" fill-opacity="1"><g transform="translate(240.816536, 334.323117)"><g><path d="M 10.8125 -3.65625 L 3.1875 -3.65625 L 1.546875 0 L 0.046875 0 L 6.296875 -13.6875 L 7.71875 -13.6875 L 13.96875 0 L 12.453125 0 Z M 10.28125 -4.828125 L 7 -12.171875 L 3.71875 -4.828125 Z M 8.34375 -14.921875 C 8.039062 -14.921875 7.769531 -14.988281 7.53125 -15.125 C 7.300781 -15.257812 7.050781 -15.453125 6.78125 -15.703125 C 6.539062 -15.890625 6.351562 -16.023438 6.21875 -16.109375 C 6.082031 -16.203125 5.9375 -16.25 5.78125 -16.25 C 5.476562 -16.25 5.234375 -16.132812 5.046875 -15.90625 C 4.867188 -15.6875 4.773438 -15.382812 4.765625 -15 L 3.921875 -15 C 3.953125 -15.644531 4.125 -16.160156 4.4375 -16.546875 C 4.75 -16.941406 5.164062 -17.140625 5.6875 -17.140625 C 5.976562 -17.140625 6.238281 -17.070312 6.46875 -16.9375 C 6.695312 -16.8125 6.960938 -16.617188 7.265625 -16.359375 C 7.472656 -16.179688 7.644531 -16.046875 7.78125 -15.953125 C 7.925781 -15.859375 8.082031 -15.8125 8.25 -15.8125 C 8.53125 -15.8125 8.757812 -15.914062 8.9375 -16.125 C 9.125 -16.34375 9.234375 -16.644531 9.265625 -17.03125 L 10.09375 -17.03125 C 10.070312 -16.382812 9.90625 -15.867188 9.59375 -15.484375 C 9.28125 -15.109375 8.863281 -14.921875 8.34375 -14.921875 Z M 8.34375 -14.921875 "/></g></g></g><g fill="#000000" fill-opacity="1"><g transform="translate(254.833335, 334.323117)"><g><path d="M 8.203125 0.125 C 6.847656 0.125 5.617188 -0.175781 4.515625 -0.78125 C 3.421875 -1.394531 2.5625 -2.226562 1.9375 -3.28125 C 1.320312 -4.34375 1.015625 -5.53125 1.015625 -6.84375 C 1.015625 -8.15625 1.320312 -9.335938 1.9375 -10.390625 C 2.5625 -11.453125 3.421875 -12.285156 4.515625 -12.890625 C 5.617188 -13.492188 6.847656 -13.796875 8.203125 -13.796875 C 9.566406 -13.796875 10.789062 -13.492188 11.875 -12.890625 C 12.957031 -12.296875 13.8125 -11.46875 14.4375 -10.40625 C 15.070312 -9.34375 15.390625 -8.15625 15.390625 -6.84375 C 15.390625 -5.53125 15.070312 -4.34375 14.4375 -3.28125 C 13.8125 -2.21875 12.957031 -1.382812 11.875 -0.78125 C 10.789062 -0.175781 9.566406 0.125 8.203125 0.125 Z M 8.203125 -1.171875 C 9.285156 -1.171875 10.265625 -1.414062 11.140625 -1.90625 C 12.015625 -2.394531 12.695312 -3.070312 13.1875 -3.9375 C 13.6875 -4.800781 13.9375 -5.769531 13.9375 -6.84375 C 13.9375 -7.90625 13.6875 -8.867188 13.1875 -9.734375 C 12.695312 -10.609375 12.015625 -11.289062 11.140625 -11.78125 C 10.265625 -12.269531 9.285156 -12.515625 8.203125 -12.515625 C 7.128906 -12.515625 6.148438 -12.269531 5.265625 -11.78125 C 4.390625 -11.289062 3.695312 -10.609375 3.1875 -9.734375 C 2.6875 -8.867188 2.4375 -7.90625 2.4375 -6.84375 C 2.4375 -5.769531 2.6875 -4.800781 3.1875 -3.9375 C 3.695312 -3.070312 4.390625 -2.394531 5.265625 -1.90625 C 6.148438 -1.414062 7.128906 -1.171875 8.203125 -1.171875 Z M 8.203125 -1.171875 "/></g></g></g><g fill="#000000" fill-opacity="1"><g transform="translate(271.23512, 334.323117)"><g/></g></g><g fill="#000000" fill-opacity="1"><g transform="translate(276.357038, 334.323117)"><g><path d="M 4.890625 -12.4375 L 0.078125 -12.4375 L 0.078125 -13.6875 L 11.140625 -13.6875 L 11.140625 -12.4375 L 6.328125 -12.4375 L 6.328125 0 L 4.890625 0 Z M 4.890625 -12.4375 "/></g></g></g><g fill="#000000" fill-opacity="1"><g transform="translate(287.578275, 334.323117)"><g><path d="M 11.90625 -1.25 L 11.90625 0 L 2.234375 0 L 2.234375 -13.6875 L 11.609375 -13.6875 L 11.609375 -12.4375 L 3.671875 -12.4375 L 3.671875 -7.5625 L 10.75 -7.5625 L 10.75 -6.328125 L 3.671875 -6.328125 L 3.671875 -1.25 Z M 11.90625 -1.25 "/></g></g></g><g fill="#000000" fill-opacity="1"><g transform="translate(300.656693, 334.323117)"><g><path d="M 8.203125 0.125 C 6.847656 0.125 5.617188 -0.175781 4.515625 -0.78125 C 3.421875 -1.394531 2.5625 -2.226562 1.9375 -3.28125 C 1.320312 -4.34375 1.015625 -5.53125 1.015625 -6.84375 C 1.015625 -8.15625 1.320312 -9.335938 1.9375 -10.390625 C 2.5625 -11.453125 3.421875 -12.285156 4.515625 -12.890625 C 5.617188 -13.492188 6.847656 -13.796875 8.203125 -13.796875 C 9.566406 -13.796875 10.789062 -13.492188 11.875 -12.890625 C 12.957031 -12.296875 13.8125 -11.46875 14.4375 -10.40625 C 15.070312 -9.34375 15.390625 -8.15625 15.390625 -6.84375 C 15.390625 -5.53125 15.070312 -4.34375 14.4375 -3.28125 C 13.8125 -2.21875 12.957031 -1.382812 11.875 -0.78125 C 10.789062 -0.175781 9.566406 0.125 8.203125 0.125 Z M 8.203125 -1.171875 C 9.285156 -1.171875 10.265625 -1.414062 11.140625 -1.90625 C 12.015625 -2.394531 12.695312 -3.070312 13.1875 -3.9375 C 13.6875 -4.800781 13.9375 -5.769531 13.9375 -6.84375 C 13.9375 -7.90625 13.6875 -8.867188 13.1875 -9.734375 C 12.695312 -10.609375 12.015625 -11.289062 11.140625 -11.78125 C 10.265625 -12.269531 9.285156 -12.515625 8.203125 -12.515625 C 7.128906 -12.515625 6.148438 -12.269531 5.265625 -11.78125 C 4.390625 -11.289062 3.695312 -10.609375 3.1875 -9.734375 C 2.6875 -8.867188 2.4375 -7.90625 2.4375 -6.84375 C 2.4375 -5.769531 2.6875 -4.800781 3.1875 -3.9375 C 3.695312 -3.070312 4.390625 -2.394531 5.265625 -1.90625 C 6.148438 -1.414062 7.128906 -1.171875 8.203125 -1.171875 Z M 8.203125 -1.171875 "/></g></g></g><g fill="#000000" fill-opacity="1"><g transform="translate(317.058478, 334.323117)"><g><path d="M 2.234375 -13.6875 L 3.671875 -13.6875 L 3.671875 -1.25 L 11.34375 -1.25 L 11.34375 0 L 2.234375 0 Z M 2.234375 -13.6875 "/></g></g></g><g fill="#000000" fill-opacity="1"><g transform="translate(328.572975, 334.323117)"><g><path d="M 8.203125 0.125 C 6.847656 0.125 5.617188 -0.175781 4.515625 -0.78125 C 3.421875 -1.394531 2.5625 -2.226562 1.9375 -3.28125 C 1.320312 -4.34375 1.015625 -5.53125 1.015625 -6.84375 C 1.015625 -8.15625 1.320312 -9.335938 1.9375 -10.390625 C 2.5625 -11.453125 3.421875 -12.285156 4.515625 -12.890625 C 5.617188 -13.492188 6.847656 -13.796875 8.203125 -13.796875 C 9.566406 -13.796875 10.789062 -13.492188 11.875 -12.890625 C 12.957031 -12.296875 13.8125 -11.46875 14.4375 -10.40625 C 15.070312 -9.34375 15.390625 -8.15625 15.390625 -6.84375 C 15.390625 -5.53125 15.070312 -4.34375 14.4375 -3.28125 C 13.8125 -2.21875 12.957031 -1.382812 11.875 -0.78125 C 10.789062 -0.175781 9.566406 0.125 8.203125 0.125 Z M 8.203125 -1.171875 C 9.285156 -1.171875 10.265625 -1.414062 11.140625 -1.90625 C 12.015625 -2.394531 12.695312 -3.070312 13.1875 -3.9375 C 13.6875 -4.800781 13.9375 -5.769531 13.9375 -6.84375 C 13.9375 -7.90625 13.6875 -8.867188 13.1875 -9.734375 C 12.695312 -10.609375 12.015625 -11.289062 11.140625 -11.78125 C 10.265625 -12.269531 9.285156 -12.515625 8.203125 -12.515625 C 7.128906 -12.515625 6.148438 -12.269531 5.265625 -11.78125 C 4.390625 -11.289062 3.695312 -10.609375 3.1875 -9.734375 C 2.6875 -8.867188 2.4375 -7.90625 2.4375 -6.84375 C 2.4375 -5.769531 2.6875 -4.800781 3.1875 -3.9375 C 3.695312 -3.070312 4.390625 -2.394531 5.265625 -1.90625 C 6.148438 -1.414062 7.128906 -1.171875 8.203125 -1.171875 Z M 9.625 -17.21875 L 11.484375 -17.21875 L 8.3125 -14.796875 L 6.9375 -14.796875 Z M 9.625 -17.21875 "/></g></g></g><g fill="#000000" fill-opacity="1"><g transform="translate(344.97476, 334.323117)"><g><path d="M 11.859375 -6.84375 L 13.25 -6.84375 L 13.25 -1.625 C 12.613281 -1.0625 11.859375 -0.628906 10.984375 -0.328125 C 10.109375 -0.0234375 9.191406 0.125 8.234375 0.125 C 6.859375 0.125 5.625 -0.175781 4.53125 -0.78125 C 3.4375 -1.382812 2.578125 -2.21875 1.953125 -3.28125 C 1.328125 -4.34375 1.015625 -5.53125 1.015625 -6.84375 C 1.015625 -8.15625 1.328125 -9.34375 1.953125 -10.40625 C 2.578125 -11.46875 3.4375 -12.296875 4.53125 -12.890625 C 5.625 -13.492188 6.863281 -13.796875 8.25 -13.796875 C 9.289062 -13.796875 10.25 -13.628906 11.125 -13.296875 C 12 -12.960938 12.734375 -12.472656 13.328125 -11.828125 L 12.4375 -10.90625 C 11.351562 -11.976562 9.976562 -12.515625 8.3125 -12.515625 C 7.195312 -12.515625 6.191406 -12.269531 5.296875 -11.78125 C 4.410156 -11.289062 3.710938 -10.609375 3.203125 -9.734375 C 2.691406 -8.867188 2.4375 -7.90625 2.4375 -6.84375 C 2.4375 -5.769531 2.691406 -4.800781 3.203125 -3.9375 C 3.710938 -3.082031 4.410156 -2.40625 5.296875 -1.90625 C 6.179688 -1.414062 7.175781 -1.171875 8.28125 -1.171875 C 9.695312 -1.171875 10.890625 -1.523438 11.859375 -2.234375 Z M 11.859375 -6.84375 "/></g></g></g><g fill="#000000" fill-opacity="1"><g transform="translate(360.086303, 334.323117)"><g><path d="M 2.234375 -13.6875 L 3.671875 -13.6875 L 3.671875 0 L 2.234375 0 Z M 2.234375 -13.6875 "/></g></g></g><g fill="#000000" fill-opacity="1"><g transform="translate(365.990154, 334.323117)"><g><path d="M 10.8125 -3.65625 L 3.1875 -3.65625 L 1.546875 0 L 0.046875 0 L 6.296875 -13.6875 L 7.71875 -13.6875 L 13.96875 0 L 12.453125 0 Z M 10.28125 -4.828125 L 7 -12.171875 L 3.71875 -4.828125 Z M 10.28125 -4.828125 "/></g></g></g><g fill="#000000" fill-opacity="1"><g transform="translate(380.006952, 334.323117)"><g/></g></g><g fill="#000000" fill-opacity="1"><g transform="translate(385.128842, 334.323117)"><g><path d="M 2.234375 -13.6875 L 7.796875 -13.6875 C 9.242188 -13.6875 10.519531 -13.394531 11.625 -12.8125 C 12.738281 -12.226562 13.597656 -11.414062 14.203125 -10.375 C 14.816406 -9.34375 15.125 -8.164062 15.125 -6.84375 C 15.125 -5.507812 14.816406 -4.320312 14.203125 -3.28125 C 13.597656 -2.25 12.738281 -1.441406 11.625 -0.859375 C 10.519531 -0.285156 9.242188 0 7.796875 0 L 2.234375 0 Z M 7.71875 -1.25 C 8.914062 -1.25 9.960938 -1.484375 10.859375 -1.953125 C 11.765625 -2.429688 12.460938 -3.09375 12.953125 -3.9375 C 13.453125 -4.78125 13.703125 -5.75 13.703125 -6.84375 C 13.703125 -7.9375 13.453125 -8.898438 12.953125 -9.734375 C 12.460938 -10.578125 11.765625 -11.238281 10.859375 -11.71875 C 9.960938 -12.195312 8.914062 -12.4375 7.71875 -12.4375 L 3.671875 -12.4375 L 3.671875 -1.25 Z M 7.71875 -1.25 "/></g></g></g><g fill="#000000" fill-opacity="1"><g transform="translate(401.276501, 334.323117)"><g><path d="M 10.8125 -3.65625 L 3.1875 -3.65625 L 1.546875 0 L 0.046875 0 L 6.296875 -13.6875 L 7.71875 -13.6875 L 13.96875 0 L 12.453125 0 Z M 10.28125 -4.828125 L 7 -12.171875 L 3.71875 -4.828125 Z M 10.28125 -4.828125 "/></g></g></g><g fill="#000000" fill-opacity="1"><g transform="translate(415.293299, 334.323117)"><g/></g></g><g fill="#000000" fill-opacity="1"><g transform="translate(420.415217, 334.323117)"><g><path d="M 2.234375 -13.6875 L 3.671875 -13.6875 L 3.671875 0 L 2.234375 0 Z M 2.234375 -13.6875 "/></g></g></g><g fill="#000000" fill-opacity="1"><g transform="translate(426.319068, 334.323117)"><g><path d="M 11.859375 -6.84375 L 13.25 -6.84375 L 13.25 -1.625 C 12.613281 -1.0625 11.859375 -0.628906 10.984375 -0.328125 C 10.109375 -0.0234375 9.191406 0.125 8.234375 0.125 C 6.859375 0.125 5.625 -0.175781 4.53125 -0.78125 C 3.4375 -1.382812 2.578125 -2.21875 1.953125 -3.28125 C 1.328125 -4.34375 1.015625 -5.53125 1.015625 -6.84375 C 1.015625 -8.15625 1.328125 -9.34375 1.953125 -10.40625 C 2.578125 -11.46875 3.4375 -12.296875 4.53125 -12.890625 C 5.625 -13.492188 6.863281 -13.796875 8.25 -13.796875 C 9.289062 -13.796875 10.25 -13.628906 11.125 -13.296875 C 12 -12.960938 12.734375 -12.472656 13.328125 -11.828125 L 12.4375 -10.90625 C 11.351562 -11.976562 9.976562 -12.515625 8.3125 -12.515625 C 7.195312 -12.515625 6.191406 -12.269531 5.296875 -11.78125 C 4.410156 -11.289062 3.710938 -10.609375 3.203125 -9.734375 C 2.691406 -8.867188 2.4375 -7.90625 2.4375 -6.84375 C 2.4375 -5.769531 2.691406 -4.800781 3.203125 -3.9375 C 3.710938 -3.082031 4.410156 -2.40625 5.296875 -1.90625 C 6.179688 -1.414062 7.175781 -1.171875 8.28125 -1.171875 C 9.695312 -1.171875 10.890625 -1.523438 11.859375 -2.234375 Z M 11.859375 -6.84375 "/></g></g></g><g fill="#000000" fill-opacity="1"><g transform="translate(441.430611, 334.323117)"><g><path d="M 11.578125 0 L 8.4375 -4.390625 C 8.09375 -4.359375 7.726562 -4.34375 7.34375 -4.34375 L 3.671875 -4.34375 L 3.671875 0 L 2.234375 0 L 2.234375 -13.6875 L 7.34375 -13.6875 C 9.09375 -13.6875 10.460938 -13.269531 11.453125 -12.4375 C 12.441406 -11.601562 12.9375 -10.453125 12.9375 -8.984375 C 12.9375 -7.921875 12.664062 -7.019531 12.125 -6.28125 C 11.582031 -5.550781 10.8125 -5.019531 9.8125 -4.6875 L 13.15625 0 Z M 7.3125 -5.578125 C 8.664062 -5.578125 9.703125 -5.875 10.421875 -6.46875 C 11.140625 -7.070312 11.5 -7.910156 11.5 -8.984375 C 11.5 -10.097656 11.140625 -10.953125 10.421875 -11.546875 C 9.703125 -12.140625 8.664062 -12.4375 7.3125 -12.4375 L 3.671875 -12.4375 L 3.671875 -5.578125 Z M 7.3125 -5.578125 "/></g></g></g><g fill="#000000" fill-opacity="1"><g transform="translate(455.564697, 334.323117)"><g><path d="M 11.90625 -1.25 L 11.90625 0 L 2.234375 0 L 2.234375 -13.6875 L 11.609375 -13.6875 L 11.609375 -12.4375 L 3.671875 -12.4375 L 3.671875 -7.5625 L 10.75 -7.5625 L 10.75 -6.328125 L 3.671875 -6.328125 L 3.671875 -1.25 Z M 11.90625 -1.25 "/></g></g></g><g fill="#000000" fill-opacity="1"><g transform="translate(468.643115, 334.323117)"><g><path d="M 3.6875 0.125 C 2.90625 0.125 2.179688 -0.046875 1.515625 -0.390625 C 0.859375 -0.734375 0.320312 -1.21875 -0.09375 -1.84375 L 0.765625 -2.8125 C 1.515625 -1.695312 2.5 -1.140625 3.71875 -1.140625 C 5.40625 -1.140625 6.25 -2.140625 6.25 -4.140625 L 6.25 -12.4375 L 1.25 -12.4375 L 1.25 -13.6875 L 7.6875 -13.6875 L 7.6875 -4.203125 C 7.6875 -2.765625 7.347656 -1.679688 6.671875 -0.953125 C 6.003906 -0.234375 5.007812 0.125 3.6875 0.125 Z M 3.6875 0.125 "/></g></g></g><g fill="#000000" fill-opacity="1"><g transform="translate(478.437271, 334.323117)"><g><path d="M 10.8125 -3.65625 L 3.1875 -3.65625 L 1.546875 0 L 0.046875 0 L 6.296875 -13.6875 L 7.71875 -13.6875 L 13.96875 0 L 12.453125 0 Z M 10.28125 -4.828125 L 7 -12.171875 L 3.71875 -4.828125 Z M 10.28125 -4.828125 "/></g></g></g><g fill="#000000" fill-opacity="1"><g transform="translate(492.454069, 334.323117)"><g/></g></g><g fill="#000000" fill-opacity="1"><g transform="translate(497.575959, 334.323117)"><g><path d="M 13.65625 -13.6875 L 13.65625 0 L 12.46875 0 L 3.671875 -11.109375 L 3.671875 0 L 2.234375 0 L 2.234375 -13.6875 L 3.421875 -13.6875 L 12.234375 -2.578125 L 12.234375 -13.6875 Z M 13.65625 -13.6875 "/></g></g></g><g fill="#000000" fill-opacity="1"><g transform="translate(513.469491, 334.323117)"><g><path d="M 8.203125 0.125 C 6.847656 0.125 5.617188 -0.175781 4.515625 -0.78125 C 3.421875 -1.394531 2.5625 -2.226562 1.9375 -3.28125 C 1.320312 -4.34375 1.015625 -5.53125 1.015625 -6.84375 C 1.015625 -8.15625 1.320312 -9.335938 1.9375 -10.390625 C 2.5625 -11.453125 3.421875 -12.285156 4.515625 -12.890625 C 5.617188 -13.492188 6.847656 -13.796875 8.203125 -13.796875 C 9.566406 -13.796875 10.789062 -13.492188 11.875 -12.890625 C 12.957031 -12.296875 13.8125 -11.46875 14.4375 -10.40625 C 15.070312 -9.34375 15.390625 -8.15625 15.390625 -6.84375 C 15.390625 -5.53125 15.070312 -4.34375 14.4375 -3.28125 C 13.8125 -2.21875 12.957031 -1.382812 11.875 -0.78125 C 10.789062 -0.175781 9.566406 0.125 8.203125 0.125 Z M 8.203125 -1.171875 C 9.285156 -1.171875 10.265625 -1.414062 11.140625 -1.90625 C 12.015625 -2.394531 12.695312 -3.070312 13.1875 -3.9375 C 13.6875 -4.800781 13.9375 -5.769531 13.9375 -6.84375 C 13.9375 -7.90625 13.6875 -8.867188 13.1875 -9.734375 C 12.695312 -10.609375 12.015625 -11.289062 11.140625 -11.78125 C 10.265625 -12.269531 9.285156 -12.515625 8.203125 -12.515625 C 7.128906 -12.515625 6.148438 -12.269531 5.265625 -11.78125 C 4.390625 -11.289062 3.695312 -10.609375 3.1875 -9.734375 C 2.6875 -8.867188 2.4375 -7.90625 2.4375 -6.84375 C 2.4375 -5.769531 2.6875 -4.800781 3.1875 -3.9375 C 3.695312 -3.070312 4.390625 -2.394531 5.265625 -1.90625 C 6.148438 -1.414062 7.128906 -1.171875 8.203125 -1.171875 Z M 8.203125 -1.171875 "/></g></g></g><g fill="#000000" fill-opacity="1"><g transform="translate(529.871276, 334.323117)"><g><path d="M 13.609375 -13.6875 L 7.546875 0 L 6.125 0 L 0.0625 -13.6875 L 1.625 -13.6875 L 6.859375 -1.796875 L 12.140625 -13.6875 Z M 13.609375 -13.6875 "/></g></g></g><g fill="#000000" fill-opacity="1"><g transform="translate(543.516633, 334.323117)"><g><path d="M 10.8125 -3.65625 L 3.1875 -3.65625 L 1.546875 0 L 0.046875 0 L 6.296875 -13.6875 L 7.71875 -13.6875 L 13.96875 0 L 12.453125 0 Z M 10.28125 -4.828125 L 7 -12.171875 L 3.71875 -4.828125 Z M 10.28125 -4.828125 "/></g></g></g><g fill="#000000" fill-opacity="1"><g transform="translate(557.533404, 334.323117)"><g/></g></g><g fill="#000000" fill-opacity="1"><g transform="translate(562.655322, 334.323117)"><g><path d="M 3.671875 -12.4375 L 3.671875 -7.0625 L 10.75 -7.0625 L 10.75 -5.8125 L 3.671875 -5.8125 L 3.671875 0 L 2.234375 0 L 2.234375 -13.6875 L 11.609375 -13.6875 L 11.609375 -12.4375 Z M 3.671875 -12.4375 "/></g></g></g><g fill="#000000" fill-opacity="1"><g transform="translate(575.029961, 334.323117)"><g><path d="M 2.234375 -13.6875 L 3.671875 -13.6875 L 3.671875 0 L 2.234375 0 Z M 2.234375 -13.6875 "/></g></g></g><g fill="#000000" fill-opacity="1"><g transform="translate(580.933812, 334.323117)"><g><path d="M 2.234375 -13.6875 L 3.671875 -13.6875 L 3.671875 -1.25 L 11.34375 -1.25 L 11.34375 0 L 2.234375 0 Z M 2.234375 -13.6875 "/></g></g></g><g fill="#000000" fill-opacity="1"><g transform="translate(592.448309, 334.323117)"><g><path d="M 10.8125 -3.65625 L 3.1875 -3.65625 L 1.546875 0 L 0.046875 0 L 6.296875 -13.6875 L 7.71875 -13.6875 L 13.96875 0 L 12.453125 0 Z M 10.28125 -4.828125 L 7 -12.171875 L 3.71875 -4.828125 Z M 10.28125 -4.828125 "/></g></g></g><g fill="#000000" fill-opacity="1"><g transform="translate(606.465135, 334.323117)"><g><path d="M 2.234375 -13.6875 L 7.796875 -13.6875 C 9.242188 -13.6875 10.519531 -13.394531 11.625 -12.8125 C 12.738281 -12.226562 13.597656 -11.414062 14.203125 -10.375 C 14.816406 -9.34375 15.125 -8.164062 15.125 -6.84375 C 15.125 -5.507812 14.816406 -4.320312 14.203125 -3.28125 C 13.597656 -2.25 12.738281 -1.441406 11.625 -0.859375 C 10.519531 -0.285156 9.242188 0 7.796875 0 L 2.234375 0 Z M 7.71875 -1.25 C 8.914062 -1.25 9.960938 -1.484375 10.859375 -1.953125 C 11.765625 -2.429688 12.460938 -3.09375 12.953125 -3.9375 C 13.453125 -4.78125 13.703125 -5.75 13.703125 -6.84375 C 13.703125 -7.9375 13.453125 -8.898438 12.953125 -9.734375 C 12.460938 -10.578125 11.765625 -11.238281 10.859375 -11.71875 C 9.960938 -12.195312 8.914062 -12.4375 7.71875 -12.4375 L 3.671875 -12.4375 L 3.671875 -1.25 Z M 7.71875 -1.25 "/></g></g></g><g fill="#000000" fill-opacity="1"><g transform="translate(622.612765, 334.323117)"><g><path d="M 11.90625 -1.25 L 11.90625 0 L 2.234375 0 L 2.234375 -13.6875 L 11.609375 -13.6875 L 11.609375 -12.4375 L 3.671875 -12.4375 L 3.671875 -7.5625 L 10.75 -7.5625 L 10.75 -6.328125 L 3.671875 -6.328125 L 3.671875 -1.25 Z M 8.34375 -17.21875 L 10.203125 -17.21875 L 7.03125 -14.796875 L 5.65625 -14.796875 Z M 8.34375 -17.21875 "/></g></g></g><g fill="#000000" fill-opacity="1"><g transform="translate(635.691183, 334.323117)"><g><path d="M 2.234375 -13.6875 L 3.671875 -13.6875 L 3.671875 -1.25 L 11.34375 -1.25 L 11.34375 0 L 2.234375 0 Z M 2.234375 -13.6875 "/></g></g></g><g fill="#000000" fill-opacity="1"><g transform="translate(647.20568, 334.323117)"><g><path d="M 3.671875 -12.4375 L 3.671875 -7.0625 L 10.75 -7.0625 L 10.75 -5.8125 L 3.671875 -5.8125 L 3.671875 0 L 2.234375 0 L 2.234375 -13.6875 L 11.609375 -13.6875 L 11.609375 -12.4375 Z M 3.671875 -12.4375 "/></g></g></g><g fill="#000000" fill-opacity="1"><g transform="translate(659.580376, 334.323117)"><g><path d="M 2.234375 -13.6875 L 3.671875 -13.6875 L 3.671875 0 L 2.234375 0 Z M 2.234375 -13.6875 "/></g></g></g><g fill="#000000" fill-opacity="1"><g transform="translate(665.484227, 334.323117)"><g><path d="M 10.8125 -3.65625 L 3.1875 -3.65625 L 1.546875 0 L 0.046875 0 L 6.296875 -13.6875 L 7.71875 -13.6875 L 13.96875 0 L 12.453125 0 Z M 10.28125 -4.828125 L 7 -12.171875 L 3.71875 -4.828125 Z M 10.28125 -4.828125 "/></g></g></g><path fill="#000000" d="M 318.5 4.496094 C 318.285156 5.085938 318.007812 14.046875 317.886719 24.40625 L 317.667969 43.25 L 287.679688 43.675781 L 257.691406 44.105469 L 257.691406 58.664062 L 287.679688 59.09375 L 317.667969 59.519531 L 317.886719 119.285156 C 318.082031 172.519531 318.253906 179.101562 319.445312 179.5625 C 320.179688 179.84375 321.625 179.664062 322.652344 179.164062 C 326.195312 177.445312 333.65625 176.21875 338.273438 176.601562 C 341.921875 176.90625 344.398438 177.894531 349.992188 181.292969 C 359.273438 186.929688 364.75 188.699219 371.511719 188.242188 C 378.242188 187.789062 382.824219 185.566406 385.378906 181.523438 C 387.265625 178.53125 391.316406 166.414062 395.378906 151.585938 C 399.722656 135.730469 408.878906 100.882812 409.777344 96.773438 C 410.71875 92.480469 413.839844 80.484375 416.351562 71.511719 C 417.539062 67.269531 418.828125 62.066406 419.21875 59.949219 C 419.613281 57.828125 420.480469 54.554688 421.15625 52.667969 C 421.828125 50.785156 422.644531 47.796875 422.96875 46.03125 C 423.332031 44.0625 424.042969 42.820312 424.808594 42.820312 C 426.496094 42.820312 426.398438 43.882812 423.929688 52.285156 C 422.761719 56.265625 421.800781 60.085938 421.789062 60.78125 C 421.777344 61.476562 421.019531 64.558594 420.105469 67.632812 C 419.1875 70.707031 416.640625 80.546875 414.445312 89.496094 C 412.246094 98.445312 409.535156 109.234375 408.410156 113.472656 C 407.289062 117.714844 405.558594 124.265625 404.566406 128.03125 C 401.164062 140.953125 394.984375 162.507812 393.0625 168.167969 C 391.109375 173.921875 390.402344 180.164062 391.757812 179.710938 C 393.890625 179 400.78125 158.484375 408.972656 128.460938 C 411.761719 118.230469 419.277344 89.949219 421.828125 80.074219 C 422.800781 76.304688 424.332031 70.71875 425.234375 67.65625 C 426.136719 64.59375 427.511719 59.390625 428.292969 56.09375 C 429.871094 49.417969 431.417969 46.984375 433.046875 48.609375 C 434.109375 49.671875 433.058594 54.492188 429.363281 65.515625 C 428.414062 68.339844 427.28125 72.386719 426.84375 74.507812 C 426.40625 76.628906 425.105469 81.445312 423.957031 85.210938 C 422.804688 88.980469 420.140625 98.230469 418.03125 105.765625 C 415.921875 113.304688 413.191406 122.746094 411.960938 126.75 C 410.496094 131.527344 409.042969 136.3125 407.609375 141.101562 C 406.445312 144.992188 403.5625 154.03125 401.203125 161.179688 C 396.921875 174.167969 396.574219 178.738281 400.351562 172.40625 C 402.328125 169.09375 406.425781 158.601562 408.484375 151.585938 C 409.109375 149.464844 410.386719 145.609375 411.332031 143.019531 C 412.273438 140.429688 414.238281 134.359375 415.695312 129.53125 C 417.152344 124.703125 419.484375 116.996094 420.878906 112.402344 C 422.5 107.058594 424.09375 101.707031 425.660156 96.347656 C 429.347656 83.699219 431.882812 75.265625 433.765625 69.367188 C 434.746094 66.308594 436.015625 62.066406 436.585938 59.949219 C 437.378906 56.996094 438.070312 56.03125 439.550781 55.820312 C 441.992188 55.472656 441.980469 55.6875 438.984375 64.789062 C 437.613281 68.957031 435.265625 76.605469 433.769531 81.785156 C 431.898438 88.222656 429.988281 94.644531 428.039062 101.054688 L 423.332031 116.472656 C 419.777344 128.117188 410.695312 155.734375 408.148438 162.636719 C 405.257812 170.464844 404.914062 172.46875 406.5625 171.929688 C 408.699219 171.226562 419.109375 145.820312 423.046875 131.695312 C 423.667969 129.46875 425.125 125.039062 426.289062 121.847656 C 427.453125 118.65625 429.640625 111.804688 431.148438 106.621094 C 432.65625 101.441406 434.484375 95.851562 435.207031 94.203125 C 435.929688 92.554688 437.210938 88.703125 438.058594 85.640625 C 440.855469 75.539062 443.726562 66.398438 444.648438 64.660156 C 445.148438 63.714844 446.355469 60.457031 447.332031 57.417969 C 449.421875 50.890625 448.878906 49.671875 443.875 49.671875 C 440.523438 49.671875 440.492188 49.640625 441.074219 46.996094 C 441.78125 43.769531 440.6875 42.851562 436.121094 42.832031 C 433.34375 42.820312 432.910156 42.554688 432.910156 40.851562 C 432.910156 38.21875 431.367188 36.824219 428.453125 36.824219 C 426.394531 36.824219 426.054688 36.484375 426.054688 34.414062 L 426.054688 32.003906 L 416.84375 31.03125 C 405.902344 29.875 398.085938 27.484375 385.382812 21.414062 C 373.753906 15.851562 370.484375 14.6875 363.953125 13.777344 C 354.519531 12.457031 342.847656 15.367188 335.875 20.773438 L 332.660156 23.265625 L 332.660156 14.375 C 332.660156 8.597656 332.300781 5.121094 331.632812 4.453125 C 330.21875 3.039062 319.027344 3.074219 318.5 4.496094 M 322.378906 26.871094 C 322.378906 41.820312 322.128906 46.246094 321.234375 46.984375 C 320.457031 47.628906 310.757812 48.007812 291.125 48.160156 C 265.558594 48.359375 262.058594 48.550781 261.289062 49.769531 C 260.808594 50.53125 260.65625 51.78125 260.953125 52.550781 C 261.4375 53.8125 264.5 53.953125 291.40625 53.953125 L 321.324219 53.953125 L 321.839844 55.878906 C 322.125 56.941406 322.363281 84.347656 322.367188 116.785156 L 322.378906 175.761719 L 324.308594 175.292969 C 326.238281 174.816406 328.164062 174.328125 330.089844 173.832031 C 335.9375 172.328125 345.527344 173.179688 349.5 175.550781 C 361.222656 182.554688 361.878906 182.796875 369.078125 182.796875 C 377.945312 182.796875 379.988281 181.542969 381.953125 174.863281 C 382.742188 172.1875 383.730469 169.226562 384.148438 168.285156 C 384.570312 167.34375 386.484375 160.808594 388.40625 153.765625 C 390.324219 146.722656 392.039062 140.730469 392.207031 140.453125 C 392.605469 139.816406 399.355469 114.605469 400.351562 110.046875 C 400.761719 108.164062 402.878906 99.6875 405.058594 91.207031 C 407.234375 82.730469 409.136719 75.019531 409.28125 74.078125 C 409.429688 73.136719 409.78125 71.789062 410.0625 71.082031 C 410.34375 70.375 411.519531 65.945312 412.671875 61.234375 C 413.828125 56.523438 415.59375 49.621094 416.597656 45.898438 C 417.601562 42.175781 418.246094 38.667969 418.03125 38.105469 C 417.808594 37.527344 415.101562 36.871094 411.78125 36.59375 C 403.71875 35.914062 394.8125 32.828125 381.8125 26.214844 C 369.992188 20.199219 365.96875 18.847656 357.992188 18.21875 C 351.914062 17.738281 348.078125 18.726562 339.515625 22.988281 L 333.089844 26.183594 L 332.847656 34.929688 L 332.601562 43.675781 L 361.761719 43.675781 C 377.921875 43.675781 390.925781 44.011719 390.925781 44.429688 C 390.925781 44.839844 390.289062 45.710938 389.511719 46.355469 C 388.371094 47.300781 382.316406 47.53125 358.449219 47.53125 L 328.804688 47.53125 L 328.578125 27.621094 L 328.34375 7.707031 L 322.378906 7.707031 Z M 328.628906 55.023438 C 327.722656 56.214844 328.191406 64.230469 329.167969 64.230469 C 329.511719 64.230469 330.144531 62.800781 330.582031 61.054688 C 331.460938 57.542969 333 56.757812 339.300781 56.609375 C 343.210938 56.515625 344.167969 55.335938 341.015625 54.492188 C 337.535156 53.5625 329.480469 53.90625 328.628906 55.023438 " fill-opacity="1" fill-rule="evenodd"/></svg>