<svg xmlns="http://www.w3.org/2000/svg" xmlns:xlink="http://www.w3.org/1999/xlink" width="1225" zoomAndPan="magnify" viewBox="0 0 918.75 191.999996" height="256" preserveAspectRatio="xMidYMid meet" version="1.0"><defs><g/></defs><g fill="#000000" fill-opacity="1"><g transform="translate(234.279146, 135.395558)"><g><path d="M 45.375 1.375 C 33.5 1.375 23.503906 -1.835938 15.390625 -8.265625 C 7.273438 -14.703125 3.21875 -23.929688 3.21875 -35.953125 C 3.21875 -43.003906 4.554688 -49.285156 7.234375 -54.796875 C 9.910156 -60.304688 13.4375 -64.632812 17.8125 -67.78125 C 26.613281 -74.207031 36.488281 -77.421875 47.4375 -77.421875 C 53.800781 -77.421875 60.425781 -76.273438 67.3125 -73.984375 L 66.171875 -66.171875 C 62.566406 -67.703125 59.769531 -68.847656 57.78125 -69.609375 C 52.039062 -71.679688 46.257812 -72.71875 40.4375 -72.71875 C 32.394531 -70.875 26.207031 -66.890625 21.875 -60.765625 C 17.550781 -54.640625 15.390625 -46.984375 15.390625 -37.796875 C 15.390625 -26.535156 18.335938 -17.859375 24.234375 -11.765625 C 30.128906 -5.679688 37.898438 -2.640625 47.546875 -2.640625 C 57.203125 -2.640625 64.40625 -4.707031 69.15625 -8.84375 L 69.15625 -2.53125 C 62.570312 0.0703125 54.644531 1.375 45.375 1.375 Z M 45.375 1.375 "/></g></g></g><g fill="#000000" fill-opacity="1"><g transform="translate(306.87762, 135.395558)"><g><path d="M 10.34375 0 L 10.34375 -76.046875 L 56.40625 -76.046875 L 55.25 -68.34375 L 33.890625 -71.90625 C 30.140625 -71.90625 26.003906 -71.253906 21.484375 -69.953125 L 21.484375 -42.046875 L 46.984375 -42.046875 L 46.984375 -37.671875 L 21.484375 -37.671875 L 21.484375 -4.140625 L 57.09375 -7.703125 L 55.9375 0 Z M 10.34375 0 "/></g></g></g><g fill="#000000" fill-opacity="1"><g transform="translate(371.435125, 135.395558)"><g><path d="M 68.125 1.265625 L 66.171875 1.265625 L 15.859375 -61.6875 L 15.390625 -61.6875 L 15.390625 0 L 10.34375 0 L 10.34375 -76.046875 L 18.84375 -76.046875 L 62.609375 -20.796875 L 63.0625 -20.796875 L 63.0625 -76.046875 L 68.125 -76.046875 Z M 68.125 1.265625 "/></g></g></g><g fill="#000000" fill-opacity="1"><g transform="translate(449.892021, 135.395558)"><g><path d="M 21.484375 -42.046875 L 45.828125 -42.046875 L 45.828125 -37.671875 L 21.484375 -37.671875 L 21.484375 0 L 10.34375 0 L 10.34375 -76.046875 L 55.25 -76.046875 L 55.25 -68.34375 L 34 -71.90625 C 30.175781 -71.90625 26.003906 -71.253906 21.484375 -69.953125 Z M 21.484375 -42.046875 "/></g></g></g><g fill="#000000" fill-opacity="1"><g transform="translate(505.144966, 135.395558)"><g><path d="M 44.921875 -77.421875 C 54.867188 -77.421875 63.097656 -74.144531 69.609375 -67.59375 C 76.117188 -61.050781 79.375 -51.960938 79.375 -40.328125 C 79.375 -32.816406 78.070312 -26.242188 75.46875 -20.609375 C 72.863281 -14.984375 69.457031 -10.640625 65.25 -7.578125 C 57.050781 -1.609375 48.007812 1.375 38.125 1.375 C 28.25 1.375 20.078125 -1.9375 13.609375 -8.5625 C 7.140625 -15.1875 3.90625 -24.316406 3.90625 -35.953125 C 3.90625 -42.003906 4.765625 -47.460938 6.484375 -52.328125 C 8.210938 -57.191406 10.472656 -61.15625 13.265625 -64.21875 C 16.066406 -67.28125 19.300781 -69.84375 22.96875 -71.90625 C 29.707031 -75.582031 37.023438 -77.421875 44.921875 -77.421875 Z M 21.828125 -13.09375 C 23.816406 -9.726562 26.492188 -7.101562 29.859375 -5.21875 C 33.234375 -3.34375 37.117188 -2.40625 41.515625 -2.40625 C 45.921875 -2.40625 49.847656 -3.515625 53.296875 -5.734375 C 56.742188 -7.960938 59.425781 -10.875 61.34375 -14.46875 C 65.25 -21.664062 67.203125 -29.398438 67.203125 -37.671875 C 67.203125 -47.859375 65.171875 -56.054688 61.109375 -62.265625 C 56.585938 -69.234375 49.125 -72.71875 38.71875 -72.71875 C 31.28125 -70.113281 25.644531 -65.628906 21.8125 -59.265625 C 17.988281 -52.910156 16.078125 -45.710938 16.078125 -37.671875 C 16.078125 -27.867188 17.992188 -19.675781 21.828125 -13.09375 Z M 21.828125 -13.09375 "/></g></g></g><g fill="#000000" fill-opacity="1"><g transform="translate(588.426432, 135.395558)"><g><path d="M 21.59375 -36.296875 L 21.59375 0 L 10.34375 0 L 10.34375 -76.046875 L 35.15625 -76.046875 C 42.882812 -76.046875 49.21875 -74.320312 54.15625 -70.875 C 59.101562 -67.425781 61.578125 -62.890625 61.578125 -57.265625 C 61.578125 -51.640625 59.601562 -47.195312 55.65625 -43.9375 C 51.707031 -40.6875 46.363281 -38.445312 39.625 -37.21875 L 70.421875 0 L 57.09375 1.609375 L 30.4375 -36.296875 Z M 21.59375 -39.75 L 28.953125 -39.75 C 42.734375 -39.75 49.625 -45.1875 49.625 -56.0625 C 49.625 -57.894531 49.164062 -59.960938 48.25 -62.265625 C 46.488281 -67.085938 42.734375 -70.265625 36.984375 -71.796875 C 31.773438 -71.796875 26.644531 -71.144531 21.59375 -69.84375 Z M 21.59375 -39.75 "/></g></g></g><g fill="#000000" fill-opacity="1"><g transform="translate(661.714134, 135.395558)"><g><path d="M 36.296875 0 L 25.15625 0 L 25.15625 -70.53125 C 22.550781 -71.144531 19.945312 -71.453125 17.34375 -71.453125 L 1.84375 -67.890625 L 1.15625 -76.046875 L 60.3125 -76.046875 L 59.734375 -67.890625 L 44.109375 -71.453125 C 41.503906 -71.453125 38.898438 -71.144531 36.296875 -70.53125 Z M 36.296875 0 "/></g></g></g><g fill="#000000" fill-opacity="1"><g transform="translate(723.170126, 135.395558)"><g><path d="M 20.90625 -76.046875 L 20.90625 0 L 10.34375 0 L 10.34375 -76.046875 Z M 20.90625 -76.046875 "/></g></g></g><g fill="#000000" fill-opacity="1"><g transform="translate(754.415026, 135.395558)"><g><path d="M 68.125 1.265625 L 66.171875 1.265625 L 15.859375 -61.6875 L 15.390625 -61.6875 L 15.390625 0 L 10.34375 0 L 10.34375 -76.046875 L 18.84375 -76.046875 L 62.609375 -20.796875 L 63.0625 -20.796875 L 63.0625 -76.046875 L 68.125 -76.046875 Z M 68.125 1.265625 "/></g></g></g><g fill="#000000" fill-opacity="1"><g transform="translate(832.871899, 135.395558)"><g><path d="M 21.484375 -42.046875 L 45.828125 -42.046875 L 45.828125 -37.671875 L 21.484375 -37.671875 L 21.484375 0 L 10.34375 0 L 10.34375 -76.046875 L 55.25 -76.046875 L 55.25 -68.34375 L 34 -71.90625 C 30.175781 -71.90625 26.003906 -71.253906 21.484375 -69.953125 Z M 21.484375 -42.046875 "/></g></g></g><path fill="#000000" d="M 66.460938 4.527344 C 66.242188 5.117188 65.964844 14.085938 65.84375 24.460938 L 65.625 43.324219 L 5.578125 44.183594 L 5.578125 58.757812 L 35.601562 59.1875 L 65.625 59.613281 L 65.84375 119.445312 C 66.039062 172.742188 66.210938 179.335938 67.402344 179.792969 C 68.140625 180.074219 69.585938 179.894531 70.613281 179.394531 C 74.160156 177.671875 81.632812 176.449219 86.253906 176.832031 C 89.90625 177.132812 92.382812 178.125 97.984375 181.527344 C 107.277344 187.171875 112.761719 188.941406 119.527344 188.484375 C 126.265625 188.03125 130.855469 185.808594 133.414062 181.757812 C 135.304688 178.761719 139.355469 166.628906 143.421875 151.785156 C 147.773438 135.914062 156.9375 101.023438 157.839844 96.910156 C 158.78125 92.613281 161.910156 80.601562 164.421875 71.617188 C 165.609375 67.375 166.902344 62.164062 167.292969 60.042969 C 167.683594 57.921875 168.554688 54.640625 169.230469 52.753906 C 169.902344 50.871094 170.71875 47.878906 171.046875 46.109375 C 171.410156 44.140625 172.125 42.894531 172.886719 42.894531 C 174.578125 42.894531 174.480469 43.957031 172.007812 52.371094 C 170.839844 56.355469 169.875 60.183594 169.863281 60.875 C 169.855469 61.570312 169.097656 64.65625 168.179688 67.734375 C 167.261719 70.8125 164.710938 80.664062 162.511719 89.625 C 160.3125 98.582031 157.597656 109.386719 156.472656 113.628906 C 155.351562 117.875 153.617188 124.433594 152.625 128.207031 C 149.214844 141.140625 143.03125 162.71875 141.105469 168.386719 C 139.148438 174.148438 138.441406 180.394531 139.800781 179.945312 C 141.933594 179.230469 148.832031 158.691406 157.03125 128.632812 C 159.828125 118.394531 167.347656 90.078125 169.902344 80.191406 C 170.875 76.417969 172.414062 70.824219 173.316406 67.761719 C 174.214844 64.695312 175.59375 59.484375 176.375 56.183594 C 177.957031 49.5 179.503906 47.0625 181.136719 48.691406 C 182.199219 49.753906 181.144531 54.582031 177.449219 65.617188 C 176.5 68.445312 175.363281 72.496094 174.925781 74.617188 C 174.488281 76.742188 173.1875 81.5625 172.035156 85.335938 C 170.882812 89.109375 168.214844 98.367188 166.101562 105.914062 C 163.992188 113.457031 161.257812 122.910156 160.027344 126.917969 C 158.558594 131.707031 157.105469 136.496094 155.667969 141.289062 C 154.503906 145.1875 151.617188 154.230469 149.257812 161.390625 C 144.96875 174.394531 144.621094 178.96875 148.402344 172.628906 C 150.382812 169.3125 154.484375 158.808594 156.546875 151.785156 C 157.167969 149.660156 158.449219 145.804688 159.394531 143.210938 C 160.339844 140.617188 162.304688 134.539062 163.761719 129.707031 C 165.222656 124.875 167.558594 117.15625 168.953125 112.558594 C 170.574219 107.207031 172.171875 101.847656 173.742188 96.484375 C 177.429688 83.824219 179.96875 75.378906 181.855469 69.476562 C 182.835938 66.410156 184.105469 62.164062 184.675781 60.042969 C 185.472656 57.085938 186.167969 56.121094 187.644531 55.910156 C 190.09375 55.5625 190.078125 55.777344 187.078125 64.890625 C 185.707031 69.0625 183.355469 76.71875 181.859375 81.90625 C 179.984375 88.347656 178.074219 94.78125 176.121094 101.199219 L 171.410156 116.632812 C 167.851562 128.289062 158.757812 155.941406 156.207031 162.847656 C 153.316406 170.6875 152.972656 172.691406 154.621094 172.152344 C 156.757812 171.449219 167.179688 146.015625 171.125 131.871094 C 171.746094 129.644531 173.207031 125.207031 174.371094 122.011719 C 175.535156 118.816406 177.722656 111.957031 179.234375 106.769531 C 180.746094 101.582031 182.574219 95.988281 183.296875 94.339844 C 184.019531 92.6875 185.304688 88.832031 186.152344 85.765625 C 188.953125 75.652344 191.828125 66.5 192.75 64.757812 C 193.253906 63.816406 194.460938 60.550781 195.4375 57.507812 C 197.53125 50.972656 196.988281 49.753906 191.976562 49.753906 C 188.621094 49.753906 188.589844 49.722656 189.171875 47.074219 C 189.878906 43.847656 188.785156 42.925781 184.214844 42.910156 C 181.433594 42.898438 180.996094 42.628906 180.996094 40.921875 C 180.996094 38.289062 179.453125 36.894531 176.539062 36.894531 C 174.476562 36.894531 174.136719 36.550781 174.136719 34.480469 L 174.136719 32.066406 L 164.914062 31.09375 C 153.960938 29.933594 146.136719 27.542969 133.417969 21.464844 C 121.773438 15.898438 118.503906 14.730469 111.964844 13.816406 C 102.515625 12.5 90.832031 15.410156 83.851562 20.824219 L 80.636719 23.320312 L 80.636719 14.417969 C 80.636719 8.636719 80.273438 5.152344 79.605469 4.484375 C 78.1875 3.066406 66.988281 3.101562 66.460938 4.527344 M 70.339844 26.929688 C 70.339844 41.890625 70.089844 46.324219 69.195312 47.066406 C 68.417969 47.710938 58.707031 48.089844 39.050781 48.242188 C 13.453125 48.441406 9.949219 48.628906 9.179688 49.851562 C 8.699219 50.613281 8.550781 51.867188 8.84375 52.640625 C 9.328125 53.898438 12.398438 54.042969 39.332031 54.042969 L 69.285156 54.042969 L 69.800781 55.972656 C 70.085938 57.03125 70.324219 84.46875 70.328125 116.945312 L 70.339844 175.992188 L 72.273438 175.523438 C 74.203125 175.042969 76.132812 174.554688 78.0625 174.058594 C 83.914062 172.554688 93.515625 173.402344 97.492188 175.777344 C 109.230469 182.789062 109.886719 183.035156 117.089844 183.035156 C 125.972656 183.035156 128.015625 181.777344 129.984375 175.089844 C 130.773438 172.410156 131.761719 169.445312 132.179688 168.503906 C 132.601562 167.558594 134.519531 161.019531 136.441406 153.96875 C 138.367188 146.914062 140.078125 140.917969 140.25 140.640625 C 140.644531 140 147.402344 114.761719 148.402344 110.199219 C 148.8125 108.316406 150.933594 99.828125 153.113281 91.339844 C 155.292969 82.851562 157.199219 75.132812 157.34375 74.191406 C 157.492188 73.246094 157.839844 71.898438 158.125 71.191406 C 158.40625 70.480469 159.582031 66.046875 160.738281 61.328125 C 161.894531 56.613281 163.660156 49.703125 164.667969 45.976562 C 165.671875 42.25 166.320312 38.738281 166.105469 38.175781 C 165.882812 37.597656 163.167969 36.941406 159.84375 36.660156 C 151.773438 35.980469 142.859375 32.890625 129.84375 26.269531 C 118.007812 20.25 113.980469 18.898438 105.996094 18.265625 C 99.910156 17.785156 96.070312 18.777344 87.496094 23.039062 L 81.0625 26.238281 L 80.820312 34.996094 L 80.574219 43.753906 L 109.769531 43.753906 C 125.945312 43.753906 138.964844 44.089844 138.964844 44.503906 C 138.964844 44.917969 138.328125 45.789062 137.546875 46.433594 C 136.40625 47.382812 130.347656 47.609375 106.453125 47.609375 L 76.773438 47.609375 L 76.546875 27.675781 L 76.316406 7.742188 L 70.339844 7.742188 Z M 76.597656 55.113281 C 75.691406 56.304688 76.160156 64.332031 77.140625 64.332031 C 77.480469 64.332031 78.117188 62.898438 78.554688 61.148438 C 79.433594 57.632812 80.976562 56.847656 87.28125 56.699219 C 91.199219 56.609375 92.152344 55.425781 89 54.582031 C 85.515625 53.648438 77.449219 53.996094 76.597656 55.113281 " fill-opacity="1" fill-rule="evenodd"/></svg>