<svg xmlns="http://www.w3.org/2000/svg" xmlns:xlink="http://www.w3.org/1999/xlink" width="1225" zoomAndPan="magnify" viewBox="0 0 918.75 198.749996" height="265" preserveAspectRatio="xMidYMid meet" version="1.0"><defs><g/></defs><g fill="#000000" fill-opacity="1"><g transform="translate(234.50076, 131.325552)"><g><path d="M 45.328125 1.375 C 33.472656 1.375 23.488281 -1.835938 15.375 -8.265625 C 7.269531 -14.691406 3.21875 -23.910156 3.21875 -35.921875 C 3.21875 -42.960938 4.554688 -49.234375 7.234375 -54.734375 C 9.910156 -60.242188 13.425781 -64.570312 17.78125 -67.71875 C 26.582031 -74.144531 36.453125 -77.359375 47.390625 -77.359375 C 53.742188 -77.359375 60.363281 -76.207031 67.25 -73.90625 L 66.109375 -66.109375 C 62.515625 -67.640625 59.722656 -68.785156 57.734375 -69.546875 C 51.992188 -71.609375 46.210938 -72.640625 40.390625 -72.640625 C 32.359375 -70.804688 26.179688 -66.828125 21.859375 -60.703125 C 17.535156 -54.585938 15.375 -46.941406 15.375 -37.765625 C 15.375 -26.515625 18.316406 -17.847656 24.203125 -11.765625 C 30.097656 -5.679688 37.863281 -2.640625 47.5 -2.640625 C 57.144531 -2.640625 64.34375 -4.707031 69.09375 -8.84375 L 69.09375 -2.53125 C 62.507812 0.0703125 54.585938 1.375 45.328125 1.375 Z M 45.328125 1.375 "/></g></g></g><g fill="#000000" fill-opacity="1"><g transform="translate(307.027759, 131.325552)"><g><path d="M 10.328125 0 L 10.328125 -75.96875 L 56.34375 -75.96875 L 55.203125 -68.28125 L 33.859375 -71.84375 C 30.109375 -71.84375 25.976562 -71.191406 21.46875 -69.890625 L 21.46875 -42 L 46.9375 -42 L 46.9375 -37.640625 L 21.46875 -37.640625 L 21.46875 -4.125 L 57.03125 -7.6875 L 55.890625 0 Z M 10.328125 0 "/></g></g></g><g fill="#000000" fill-opacity="1"><g transform="translate(371.521704, 131.325552)"><g><path d="M 68.0625 1.265625 L 66.109375 1.265625 L 15.84375 -61.625 L 15.375 -61.625 L 15.375 0 L 10.328125 0 L 10.328125 -75.96875 L 18.828125 -75.96875 L 62.546875 -20.765625 L 63 -20.765625 L 63 -75.96875 L 68.0625 -75.96875 Z M 68.0625 1.265625 "/></g></g></g><g fill="#000000" fill-opacity="1"><g transform="translate(449.901358, 131.325552)"><g><path d="M 21.46875 -42 L 45.796875 -42 L 45.796875 -37.640625 L 21.46875 -37.640625 L 21.46875 0 L 10.328125 0 L 10.328125 -75.96875 L 55.203125 -75.96875 L 55.203125 -68.28125 L 33.96875 -71.84375 C 30.144531 -71.84375 25.976562 -71.191406 21.46875 -69.890625 Z M 21.46875 -42 "/></g></g></g><g fill="#000000" fill-opacity="1"><g transform="translate(505.099904, 131.325552)"><g><path d="M 44.875 -77.359375 C 54.820312 -77.359375 63.046875 -74.085938 69.546875 -67.546875 C 76.046875 -61.003906 79.296875 -51.914062 79.296875 -40.28125 C 79.296875 -32.78125 77.992188 -26.21875 75.390625 -20.59375 C 72.796875 -14.976562 69.394531 -10.640625 65.1875 -7.578125 C 57 -1.609375 47.96875 1.375 38.09375 1.375 C 28.226562 1.375 20.0625 -1.929688 13.59375 -8.546875 C 7.132812 -15.171875 3.90625 -24.296875 3.90625 -35.921875 C 3.90625 -41.960938 4.765625 -47.410156 6.484375 -52.265625 C 8.203125 -57.128906 10.457031 -61.09375 13.25 -64.15625 C 16.039062 -67.21875 19.273438 -69.78125 22.953125 -71.84375 C 29.679688 -75.519531 36.988281 -77.359375 44.875 -77.359375 Z M 21.8125 -13.078125 C 23.800781 -9.710938 26.476562 -7.09375 29.84375 -5.21875 C 33.207031 -3.34375 37.085938 -2.40625 41.484375 -2.40625 C 45.890625 -2.40625 49.8125 -3.515625 53.25 -5.734375 C 56.695312 -7.953125 59.375 -10.859375 61.28125 -14.453125 C 65.1875 -21.648438 67.140625 -29.378906 67.140625 -37.640625 C 67.140625 -47.816406 65.113281 -56.003906 61.0625 -62.203125 C 56.539062 -69.160156 49.078125 -72.640625 38.671875 -72.640625 C 31.253906 -70.046875 25.628906 -65.570312 21.796875 -59.21875 C 17.972656 -52.863281 16.0625 -45.671875 16.0625 -37.640625 C 16.0625 -27.847656 17.976562 -19.660156 21.8125 -13.078125 Z M 21.8125 -13.078125 "/></g></g></g><g fill="#000000" fill-opacity="1"><g transform="translate(588.299376, 131.325552)"><g><path d="M 21.578125 -36.265625 L 21.578125 0 L 10.328125 0 L 10.328125 -75.96875 L 35.125 -75.96875 C 42.84375 -75.96875 49.171875 -74.242188 54.109375 -70.796875 C 59.046875 -67.359375 61.515625 -62.828125 61.515625 -57.203125 C 61.515625 -51.585938 59.539062 -47.148438 55.59375 -43.890625 C 51.65625 -40.640625 46.320312 -38.40625 39.59375 -37.1875 L 70.34375 0 L 57.03125 1.609375 L 30.40625 -36.265625 Z M 21.578125 -39.703125 L 28.921875 -39.703125 C 42.691406 -39.703125 49.578125 -45.132812 49.578125 -56 C 49.578125 -57.84375 49.117188 -59.910156 48.203125 -62.203125 C 46.441406 -67.023438 42.691406 -70.203125 36.953125 -71.734375 C 31.753906 -71.734375 26.628906 -71.082031 21.578125 -69.78125 Z M 21.578125 -39.703125 "/></g></g></g><g fill="#000000" fill-opacity="1"><g transform="translate(661.514924, 131.325552)"><g><path d="M 36.265625 0 L 25.140625 0 L 25.140625 -70.46875 C 22.535156 -71.082031 19.929688 -71.390625 17.328125 -71.390625 L 1.84375 -67.828125 L 1.140625 -75.96875 L 60.25 -75.96875 L 59.671875 -67.828125 L 44.0625 -71.390625 C 41.46875 -71.390625 38.867188 -71.082031 36.265625 -70.46875 Z M 36.265625 0 "/></g></g></g><g fill="#000000" fill-opacity="1"><g transform="translate(722.910411, 131.325552)"><g><path d="M 20.890625 -75.96875 L 20.890625 0 L 10.328125 0 L 10.328125 -75.96875 Z M 20.890625 -75.96875 "/></g></g></g><g fill="#000000" fill-opacity="1"><g transform="translate(754.124549, 131.325552)"><g><path d="M 68.0625 1.265625 L 66.109375 1.265625 L 15.84375 -61.625 L 15.375 -61.625 L 15.375 0 L 10.328125 0 L 10.328125 -75.96875 L 18.828125 -75.96875 L 62.546875 -20.765625 L 63 -20.765625 L 63 -75.96875 L 68.0625 -75.96875 Z M 68.0625 1.265625 "/></g></g></g><g fill="#000000" fill-opacity="1"><g transform="translate(832.504178, 131.325552)"><g><path d="M 21.46875 -42 L 45.796875 -42 L 45.796875 -37.640625 L 21.46875 -37.640625 L 21.46875 0 L 10.328125 0 L 10.328125 -75.96875 L 55.203125 -75.96875 L 55.203125 -68.28125 L 33.96875 -71.84375 C 30.144531 -71.84375 25.976562 -71.191406 21.46875 -69.890625 Z M 21.46875 -42 "/></g></g></g><g fill="#000000" fill-opacity="1"><g transform="translate(238.334885, 166.257137)"><g><path d="M 8.171875 0.125 C 6.816406 0.125 5.59375 -0.175781 4.5 -0.78125 C 3.414062 -1.382812 2.5625 -2.21875 1.9375 -3.28125 C 1.320312 -4.34375 1.015625 -5.53125 1.015625 -6.84375 C 1.015625 -8.15625 1.320312 -9.34375 1.9375 -10.40625 C 2.5625 -11.46875 3.421875 -12.296875 4.515625 -12.890625 C 5.609375 -13.492188 6.832031 -13.796875 8.1875 -13.796875 C 9.207031 -13.796875 10.144531 -13.625 11 -13.28125 C 11.863281 -12.945312 12.59375 -12.457031 13.1875 -11.8125 L 12.28125 -10.890625 C 11.207031 -11.972656 9.859375 -12.515625 8.234375 -12.515625 C 7.148438 -12.515625 6.164062 -12.265625 5.28125 -11.765625 C 4.394531 -11.273438 3.695312 -10.597656 3.1875 -9.734375 C 2.6875 -8.867188 2.4375 -7.90625 2.4375 -6.84375 C 2.4375 -5.769531 2.6875 -4.800781 3.1875 -3.9375 C 3.695312 -3.082031 4.394531 -2.40625 5.28125 -1.90625 C 6.164062 -1.414062 7.148438 -1.171875 8.234375 -1.171875 C 9.867188 -1.171875 11.21875 -1.71875 12.28125 -2.8125 L 13.1875 -1.890625 C 12.59375 -1.242188 11.859375 -0.742188 10.984375 -0.390625 C 10.117188 -0.046875 9.179688 0.125 8.171875 0.125 Z M 8.171875 0.125 "/></g></g></g><g fill="#000000" fill-opacity="1"><g transform="translate(252.393029, 166.257137)"><g><path d="M 11.90625 -1.25 L 11.90625 0 L 2.234375 0 L 2.234375 -13.6875 L 11.609375 -13.6875 L 11.609375 -12.4375 L 3.671875 -12.4375 L 3.671875 -7.5625 L 10.75 -7.5625 L 10.75 -6.328125 L 3.671875 -6.328125 L 3.671875 -1.25 Z M 11.90625 -1.25 "/></g></g></g><g fill="#000000" fill-opacity="1"><g transform="translate(265.473559, 166.257137)"><g><path d="M 13.65625 -13.6875 L 13.65625 0 L 12.46875 0 L 3.671875 -11.109375 L 3.671875 0 L 2.234375 0 L 2.234375 -13.6875 L 3.421875 -13.6875 L 12.234375 -2.578125 L 12.234375 -13.6875 Z M 13.65625 -13.6875 "/></g></g></g><g fill="#000000" fill-opacity="1"><g transform="translate(281.369625, 166.257137)"><g><path d="M 4.890625 -12.4375 L 0.078125 -12.4375 L 0.078125 -13.6875 L 11.140625 -13.6875 L 11.140625 -12.4375 L 6.328125 -12.4375 L 6.328125 0 L 4.890625 0 Z M 4.890625 -12.4375 "/></g></g></g><g fill="#000000" fill-opacity="1"><g transform="translate(292.592676, 166.257137)"><g><path d="M 11.578125 0 L 8.4375 -4.390625 C 8.09375 -4.359375 7.726562 -4.34375 7.34375 -4.34375 L 3.671875 -4.34375 L 3.671875 0 L 2.234375 0 L 2.234375 -13.6875 L 7.34375 -13.6875 C 9.09375 -13.6875 10.460938 -13.269531 11.453125 -12.4375 C 12.441406 -11.601562 12.9375 -10.453125 12.9375 -8.984375 C 12.9375 -7.921875 12.664062 -7.019531 12.125 -6.28125 C 11.582031 -5.550781 10.8125 -5.019531 9.8125 -4.6875 L 13.15625 0 Z M 7.3125 -5.578125 C 8.664062 -5.578125 9.703125 -5.875 10.421875 -6.46875 C 11.140625 -7.070312 11.5 -7.910156 11.5 -8.984375 C 11.5 -10.097656 11.140625 -10.953125 10.421875 -11.546875 C 9.703125 -12.140625 8.664062 -12.4375 7.3125 -12.4375 L 3.671875 -12.4375 L 3.671875 -5.578125 Z M 7.3125 -5.578125 "/></g></g></g><g fill="#000000" fill-opacity="1"><g transform="translate(306.729043, 166.257137)"><g><path d="M 8.203125 0.125 C 6.847656 0.125 5.617188 -0.175781 4.515625 -0.78125 C 3.421875 -1.394531 2.5625 -2.226562 1.9375 -3.28125 C 1.320312 -4.34375 1.015625 -5.53125 1.015625 -6.84375 C 1.015625 -8.15625 1.320312 -9.335938 1.9375 -10.390625 C 2.5625 -11.453125 3.421875 -12.285156 4.515625 -12.890625 C 5.617188 -13.492188 6.847656 -13.796875 8.203125 -13.796875 C 9.566406 -13.796875 10.789062 -13.492188 11.875 -12.890625 C 12.957031 -12.296875 13.8125 -11.46875 14.4375 -10.40625 C 15.070312 -9.34375 15.390625 -8.15625 15.390625 -6.84375 C 15.390625 -5.53125 15.070312 -4.34375 14.4375 -3.28125 C 13.8125 -2.21875 12.957031 -1.382812 11.875 -0.78125 C 10.789062 -0.175781 9.566406 0.125 8.203125 0.125 Z M 8.203125 -1.171875 C 9.285156 -1.171875 10.265625 -1.414062 11.140625 -1.90625 C 12.015625 -2.394531 12.695312 -3.070312 13.1875 -3.9375 C 13.6875 -4.800781 13.9375 -5.769531 13.9375 -6.84375 C 13.9375 -7.90625 13.6875 -8.867188 13.1875 -9.734375 C 12.695312 -10.609375 12.015625 -11.289062 11.140625 -11.78125 C 10.265625 -12.269531 9.285156 -12.515625 8.203125 -12.515625 C 7.128906 -12.515625 6.148438 -12.269531 5.265625 -11.78125 C 4.390625 -11.289062 3.695312 -10.609375 3.1875 -9.734375 C 2.6875 -8.867188 2.4375 -7.90625 2.4375 -6.84375 C 2.4375 -5.769531 2.6875 -4.800781 3.1875 -3.9375 C 3.695312 -3.070312 4.390625 -2.394531 5.265625 -1.90625 C 6.148438 -1.414062 7.128906 -1.171875 8.203125 -1.171875 Z M 8.203125 -1.171875 "/></g></g></g><g fill="#000000" fill-opacity="1"><g transform="translate(323.133472, 166.257137)"><g/></g></g><g fill="#000000" fill-opacity="1"><g transform="translate(328.256198, 166.257137)"><g><path d="M 2.234375 -13.6875 L 7.796875 -13.6875 C 9.242188 -13.6875 10.519531 -13.394531 11.625 -12.8125 C 12.738281 -12.226562 13.597656 -11.414062 14.203125 -10.375 C 14.816406 -9.34375 15.125 -8.164062 15.125 -6.84375 C 15.125 -5.507812 14.816406 -4.320312 14.203125 -3.28125 C 13.597656 -2.25 12.738281 -1.441406 11.625 -0.859375 C 10.519531 -0.285156 9.242188 0 7.796875 0 L 2.234375 0 Z M 7.71875 -1.25 C 8.914062 -1.25 9.960938 -1.484375 10.859375 -1.953125 C 11.765625 -2.429688 12.460938 -3.09375 12.953125 -3.9375 C 13.453125 -4.78125 13.703125 -5.75 13.703125 -6.84375 C 13.703125 -7.9375 13.453125 -8.898438 12.953125 -9.734375 C 12.460938 -10.578125 11.765625 -11.238281 10.859375 -11.71875 C 9.960938 -12.195312 8.914062 -12.4375 7.71875 -12.4375 L 3.671875 -12.4375 L 3.671875 -1.25 Z M 7.71875 -1.25 "/></g></g></g><g fill="#000000" fill-opacity="1"><g transform="translate(344.406446, 166.257137)"><g><path d="M 11.90625 -1.25 L 11.90625 0 L 2.234375 0 L 2.234375 -13.6875 L 11.609375 -13.6875 L 11.609375 -12.4375 L 3.671875 -12.4375 L 3.671875 -7.5625 L 10.75 -7.5625 L 10.75 -6.328125 L 3.671875 -6.328125 L 3.671875 -1.25 Z M 11.90625 -1.25 "/></g></g></g><g fill="#000000" fill-opacity="1"><g transform="translate(357.486975, 166.257137)"><g/></g></g><g fill="#000000" fill-opacity="1"><g transform="translate(362.609701, 166.257137)"><g><path d="M 3.671875 -12.4375 L 3.671875 -7.0625 L 10.75 -7.0625 L 10.75 -5.8125 L 3.671875 -5.8125 L 3.671875 0 L 2.234375 0 L 2.234375 -13.6875 L 11.609375 -13.6875 L 11.609375 -12.4375 Z M 3.671875 -12.4375 "/></g></g></g><g fill="#000000" fill-opacity="1"><g transform="translate(374.986353, 166.257137)"><g><path d="M 8.203125 0.125 C 6.847656 0.125 5.617188 -0.175781 4.515625 -0.78125 C 3.421875 -1.394531 2.5625 -2.226562 1.9375 -3.28125 C 1.320312 -4.34375 1.015625 -5.53125 1.015625 -6.84375 C 1.015625 -8.15625 1.320312 -9.335938 1.9375 -10.390625 C 2.5625 -11.453125 3.421875 -12.285156 4.515625 -12.890625 C 5.617188 -13.492188 6.847656 -13.796875 8.203125 -13.796875 C 9.566406 -13.796875 10.789062 -13.492188 11.875 -12.890625 C 12.957031 -12.296875 13.8125 -11.46875 14.4375 -10.40625 C 15.070312 -9.34375 15.390625 -8.15625 15.390625 -6.84375 C 15.390625 -5.53125 15.070312 -4.34375 14.4375 -3.28125 C 13.8125 -2.21875 12.957031 -1.382812 11.875 -0.78125 C 10.789062 -0.175781 9.566406 0.125 8.203125 0.125 Z M 8.203125 -1.171875 C 9.285156 -1.171875 10.265625 -1.414062 11.140625 -1.90625 C 12.015625 -2.394531 12.695312 -3.070312 13.1875 -3.9375 C 13.6875 -4.800781 13.9375 -5.769531 13.9375 -6.84375 C 13.9375 -7.90625 13.6875 -8.867188 13.1875 -9.734375 C 12.695312 -10.609375 12.015625 -11.289062 11.140625 -11.78125 C 10.265625 -12.269531 9.285156 -12.515625 8.203125 -12.515625 C 7.128906 -12.515625 6.148438 -12.269531 5.265625 -11.78125 C 4.390625 -11.289062 3.695312 -10.609375 3.1875 -9.734375 C 2.6875 -8.867188 2.4375 -7.90625 2.4375 -6.84375 C 2.4375 -5.769531 2.6875 -4.800781 3.1875 -3.9375 C 3.695312 -3.070312 4.390625 -2.394531 5.265625 -1.90625 C 6.148438 -1.414062 7.128906 -1.171875 8.203125 -1.171875 Z M 8.203125 -1.171875 "/></g></g></g><g fill="#000000" fill-opacity="1"><g transform="translate(391.390782, 166.257137)"><g><path d="M 11.578125 0 L 8.4375 -4.390625 C 8.09375 -4.359375 7.726562 -4.34375 7.34375 -4.34375 L 3.671875 -4.34375 L 3.671875 0 L 2.234375 0 L 2.234375 -13.6875 L 7.34375 -13.6875 C 9.09375 -13.6875 10.460938 -13.269531 11.453125 -12.4375 C 12.441406 -11.601562 12.9375 -10.453125 12.9375 -8.984375 C 12.9375 -7.921875 12.664062 -7.019531 12.125 -6.28125 C 11.582031 -5.550781 10.8125 -5.019531 9.8125 -4.6875 L 13.15625 0 Z M 7.3125 -5.578125 C 8.664062 -5.578125 9.703125 -5.875 10.421875 -6.46875 C 11.140625 -7.070312 11.5 -7.910156 11.5 -8.984375 C 11.5 -10.097656 11.140625 -10.953125 10.421875 -11.546875 C 9.703125 -12.140625 8.664062 -12.4375 7.3125 -12.4375 L 3.671875 -12.4375 L 3.671875 -5.578125 Z M 7.3125 -5.578125 "/></g></g></g><g fill="#000000" fill-opacity="1"><g transform="translate(405.527149, 166.257137)"><g><path d="M 16.4375 -13.6875 L 16.4375 0 L 15.046875 0 L 15.046875 -10.953125 L 9.671875 -1.734375 L 8.984375 -1.734375 L 3.609375 -10.890625 L 3.609375 0 L 2.234375 0 L 2.234375 -13.6875 L 3.421875 -13.6875 L 9.359375 -3.53125 L 15.25 -13.6875 Z M 16.4375 -13.6875 "/></g></g></g><g fill="#000000" fill-opacity="1"><g transform="translate(424.199656, 166.257137)"><g><path d="M 10.8125 -3.65625 L 3.1875 -3.65625 L 1.546875 0 L 0.046875 0 L 6.296875 -13.6875 L 7.71875 -13.6875 L 13.96875 0 L 12.453125 0 Z M 10.28125 -4.828125 L 7 -12.171875 L 3.71875 -4.828125 Z M 10.28125 -4.828125 "/></g></g></g><g fill="#000000" fill-opacity="1"><g transform="translate(438.218702, 166.257137)"><g><path d="M 8.171875 0.125 C 6.816406 0.125 5.59375 -0.175781 4.5 -0.78125 C 3.414062 -1.382812 2.5625 -2.21875 1.9375 -3.28125 C 1.320312 -4.34375 1.015625 -5.53125 1.015625 -6.84375 C 1.015625 -8.15625 1.320312 -9.34375 1.9375 -10.40625 C 2.5625 -11.46875 3.421875 -12.296875 4.515625 -12.890625 C 5.609375 -13.492188 6.832031 -13.796875 8.1875 -13.796875 C 9.207031 -13.796875 10.144531 -13.625 11 -13.28125 C 11.863281 -12.945312 12.59375 -12.457031 13.1875 -11.8125 L 12.28125 -10.890625 C 11.207031 -11.972656 9.859375 -12.515625 8.234375 -12.515625 C 7.148438 -12.515625 6.164062 -12.265625 5.28125 -11.765625 C 4.394531 -11.273438 3.695312 -10.597656 3.1875 -9.734375 C 2.6875 -8.867188 2.4375 -7.90625 2.4375 -6.84375 C 2.4375 -5.769531 2.6875 -4.800781 3.1875 -3.9375 C 3.695312 -3.082031 4.394531 -2.40625 5.28125 -1.90625 C 6.164062 -1.414062 7.148438 -1.171875 8.234375 -1.171875 C 9.867188 -1.171875 11.21875 -1.71875 12.28125 -2.8125 L 13.1875 -1.890625 C 12.59375 -1.242188 11.859375 -0.742188 10.984375 -0.390625 C 10.117188 -0.046875 9.179688 0.125 8.171875 0.125 Z M 7.46875 4.296875 C 6.832031 4.296875 6.285156 4.144531 5.828125 3.84375 L 6.15625 3.109375 C 6.539062 3.359375 6.972656 3.484375 7.453125 3.484375 C 7.835938 3.484375 8.132812 3.40625 8.34375 3.25 C 8.550781 3.09375 8.65625 2.863281 8.65625 2.5625 C 8.65625 2.289062 8.554688 2.070312 8.359375 1.90625 C 8.160156 1.738281 7.859375 1.65625 7.453125 1.65625 L 7 1.65625 L 7.46875 -0.125 L 8.3125 -0.125 L 8.015625 1.015625 C 8.546875 1.066406 8.957031 1.234375 9.25 1.515625 C 9.539062 1.796875 9.6875 2.15625 9.6875 2.59375 C 9.6875 3.113281 9.484375 3.523438 9.078125 3.828125 C 8.671875 4.140625 8.132812 4.296875 7.46875 4.296875 Z M 7.46875 4.296875 "/></g></g></g><g fill="#000000" fill-opacity="1"><g transform="translate(452.276846, 166.257137)"><g><path d="M 10.8125 -3.65625 L 3.1875 -3.65625 L 1.546875 0 L 0.046875 0 L 6.296875 -13.6875 L 7.71875 -13.6875 L 13.96875 0 L 12.453125 0 Z M 10.28125 -4.828125 L 7 -12.171875 L 3.71875 -4.828125 Z M 8.34375 -14.921875 C 8.039062 -14.921875 7.769531 -14.988281 7.53125 -15.125 C 7.300781 -15.257812 7.050781 -15.453125 6.78125 -15.703125 C 6.539062 -15.890625 6.351562 -16.023438 6.21875 -16.109375 C 6.082031 -16.203125 5.9375 -16.25 5.78125 -16.25 C 5.476562 -16.25 5.234375 -16.132812 5.046875 -15.90625 C 4.867188 -15.6875 4.773438 -15.382812 4.765625 -15 L 3.921875 -15 C 3.953125 -15.644531 4.125 -16.160156 4.4375 -16.546875 C 4.75 -16.941406 5.164062 -17.140625 5.6875 -17.140625 C 5.976562 -17.140625 6.238281 -17.070312 6.46875 -16.9375 C 6.695312 -16.8125 6.960938 -16.617188 7.265625 -16.359375 C 7.472656 -16.179688 7.644531 -16.046875 7.78125 -15.953125 C 7.925781 -15.859375 8.082031 -15.8125 8.25 -15.8125 C 8.53125 -15.8125 8.757812 -15.914062 8.9375 -16.125 C 9.125 -16.34375 9.234375 -16.644531 9.265625 -17.03125 L 10.09375 -17.03125 C 10.070312 -16.382812 9.90625 -15.867188 9.59375 -15.484375 C 9.28125 -15.109375 8.863281 -14.921875 8.34375 -14.921875 Z M 8.34375 -14.921875 "/></g></g></g><g fill="#000000" fill-opacity="1"><g transform="translate(466.295893, 166.257137)"><g><path d="M 8.203125 0.125 C 6.847656 0.125 5.617188 -0.175781 4.515625 -0.78125 C 3.421875 -1.394531 2.5625 -2.226562 1.9375 -3.28125 C 1.320312 -4.34375 1.015625 -5.53125 1.015625 -6.84375 C 1.015625 -8.15625 1.320312 -9.335938 1.9375 -10.390625 C 2.5625 -11.453125 3.421875 -12.285156 4.515625 -12.890625 C 5.617188 -13.492188 6.847656 -13.796875 8.203125 -13.796875 C 9.566406 -13.796875 10.789062 -13.492188 11.875 -12.890625 C 12.957031 -12.296875 13.8125 -11.46875 14.4375 -10.40625 C 15.070312 -9.34375 15.390625 -8.15625 15.390625 -6.84375 C 15.390625 -5.53125 15.070312 -4.34375 14.4375 -3.28125 C 13.8125 -2.21875 12.957031 -1.382812 11.875 -0.78125 C 10.789062 -0.175781 9.566406 0.125 8.203125 0.125 Z M 8.203125 -1.171875 C 9.285156 -1.171875 10.265625 -1.414062 11.140625 -1.90625 C 12.015625 -2.394531 12.695312 -3.070312 13.1875 -3.9375 C 13.6875 -4.800781 13.9375 -5.769531 13.9375 -6.84375 C 13.9375 -7.90625 13.6875 -8.867188 13.1875 -9.734375 C 12.695312 -10.609375 12.015625 -11.289062 11.140625 -11.78125 C 10.265625 -12.269531 9.285156 -12.515625 8.203125 -12.515625 C 7.128906 -12.515625 6.148438 -12.269531 5.265625 -11.78125 C 4.390625 -11.289062 3.695312 -10.609375 3.1875 -9.734375 C 2.6875 -8.867188 2.4375 -7.90625 2.4375 -6.84375 C 2.4375 -5.769531 2.6875 -4.800781 3.1875 -3.9375 C 3.695312 -3.070312 4.390625 -2.394531 5.265625 -1.90625 C 6.148438 -1.414062 7.128906 -1.171875 8.203125 -1.171875 Z M 8.203125 -1.171875 "/></g></g></g><g fill="#000000" fill-opacity="1"><g transform="translate(482.700308, 166.257137)"><g/></g></g><g fill="#000000" fill-opacity="1"><g transform="translate(487.823048, 166.257137)"><g><path d="M 4.890625 -12.4375 L 0.078125 -12.4375 L 0.078125 -13.6875 L 11.140625 -13.6875 L 11.140625 -12.4375 L 6.328125 -12.4375 L 6.328125 0 L 4.890625 0 Z M 4.890625 -12.4375 "/></g></g></g><g fill="#000000" fill-opacity="1"><g transform="translate(499.046085, 166.257137)"><g><path d="M 11.90625 -1.25 L 11.90625 0 L 2.234375 0 L 2.234375 -13.6875 L 11.609375 -13.6875 L 11.609375 -12.4375 L 3.671875 -12.4375 L 3.671875 -7.5625 L 10.75 -7.5625 L 10.75 -6.328125 L 3.671875 -6.328125 L 3.671875 -1.25 Z M 11.90625 -1.25 "/></g></g></g><g fill="#000000" fill-opacity="1"><g transform="translate(512.126601, 166.257137)"><g><path d="M 8.203125 0.125 C 6.847656 0.125 5.617188 -0.175781 4.515625 -0.78125 C 3.421875 -1.394531 2.5625 -2.226562 1.9375 -3.28125 C 1.320312 -4.34375 1.015625 -5.53125 1.015625 -6.84375 C 1.015625 -8.15625 1.320312 -9.335938 1.9375 -10.390625 C 2.5625 -11.453125 3.421875 -12.285156 4.515625 -12.890625 C 5.617188 -13.492188 6.847656 -13.796875 8.203125 -13.796875 C 9.566406 -13.796875 10.789062 -13.492188 11.875 -12.890625 C 12.957031 -12.296875 13.8125 -11.46875 14.4375 -10.40625 C 15.070312 -9.34375 15.390625 -8.15625 15.390625 -6.84375 C 15.390625 -5.53125 15.070312 -4.34375 14.4375 -3.28125 C 13.8125 -2.21875 12.957031 -1.382812 11.875 -0.78125 C 10.789062 -0.175781 9.566406 0.125 8.203125 0.125 Z M 8.203125 -1.171875 C 9.285156 -1.171875 10.265625 -1.414062 11.140625 -1.90625 C 12.015625 -2.394531 12.695312 -3.070312 13.1875 -3.9375 C 13.6875 -4.800781 13.9375 -5.769531 13.9375 -6.84375 C 13.9375 -7.90625 13.6875 -8.867188 13.1875 -9.734375 C 12.695312 -10.609375 12.015625 -11.289062 11.140625 -11.78125 C 10.265625 -12.269531 9.285156 -12.515625 8.203125 -12.515625 C 7.128906 -12.515625 6.148438 -12.269531 5.265625 -11.78125 C 4.390625 -11.289062 3.695312 -10.609375 3.1875 -9.734375 C 2.6875 -8.867188 2.4375 -7.90625 2.4375 -6.84375 C 2.4375 -5.769531 2.6875 -4.800781 3.1875 -3.9375 C 3.695312 -3.070312 4.390625 -2.394531 5.265625 -1.90625 C 6.148438 -1.414062 7.128906 -1.171875 8.203125 -1.171875 Z M 8.203125 -1.171875 "/></g></g></g><g fill="#000000" fill-opacity="1"><g transform="translate(528.531016, 166.257137)"><g><path d="M 2.234375 -13.6875 L 3.671875 -13.6875 L 3.671875 -1.25 L 11.34375 -1.25 L 11.34375 0 L 2.234375 0 Z M 2.234375 -13.6875 "/></g></g></g><g fill="#000000" fill-opacity="1"><g transform="translate(540.04736, 166.257137)"><g><path d="M 8.203125 0.125 C 6.847656 0.125 5.617188 -0.175781 4.515625 -0.78125 C 3.421875 -1.394531 2.5625 -2.226562 1.9375 -3.28125 C 1.320312 -4.34375 1.015625 -5.53125 1.015625 -6.84375 C 1.015625 -8.15625 1.320312 -9.335938 1.9375 -10.390625 C 2.5625 -11.453125 3.421875 -12.285156 4.515625 -12.890625 C 5.617188 -13.492188 6.847656 -13.796875 8.203125 -13.796875 C 9.566406 -13.796875 10.789062 -13.492188 11.875 -12.890625 C 12.957031 -12.296875 13.8125 -11.46875 14.4375 -10.40625 C 15.070312 -9.34375 15.390625 -8.15625 15.390625 -6.84375 C 15.390625 -5.53125 15.070312 -4.34375 14.4375 -3.28125 C 13.8125 -2.21875 12.957031 -1.382812 11.875 -0.78125 C 10.789062 -0.175781 9.566406 0.125 8.203125 0.125 Z M 8.203125 -1.171875 C 9.285156 -1.171875 10.265625 -1.414062 11.140625 -1.90625 C 12.015625 -2.394531 12.695312 -3.070312 13.1875 -3.9375 C 13.6875 -4.800781 13.9375 -5.769531 13.9375 -6.84375 C 13.9375 -7.90625 13.6875 -8.867188 13.1875 -9.734375 C 12.695312 -10.609375 12.015625 -11.289062 11.140625 -11.78125 C 10.265625 -12.269531 9.285156 -12.515625 8.203125 -12.515625 C 7.128906 -12.515625 6.148438 -12.269531 5.265625 -11.78125 C 4.390625 -11.289062 3.695312 -10.609375 3.1875 -9.734375 C 2.6875 -8.867188 2.4375 -7.90625 2.4375 -6.84375 C 2.4375 -5.769531 2.6875 -4.800781 3.1875 -3.9375 C 3.695312 -3.070312 4.390625 -2.394531 5.265625 -1.90625 C 6.148438 -1.414062 7.128906 -1.171875 8.203125 -1.171875 Z M 9.625 -17.21875 L 11.484375 -17.21875 L 8.3125 -14.796875 L 6.9375 -14.796875 Z M 9.625 -17.21875 "/></g></g></g><g fill="#000000" fill-opacity="1"><g transform="translate(556.451776, 166.257137)"><g><path d="M 11.859375 -6.84375 L 13.25 -6.84375 L 13.25 -1.625 C 12.613281 -1.0625 11.859375 -0.628906 10.984375 -0.328125 C 10.109375 -0.0234375 9.191406 0.125 8.234375 0.125 C 6.859375 0.125 5.625 -0.175781 4.53125 -0.78125 C 3.4375 -1.382812 2.578125 -2.21875 1.953125 -3.28125 C 1.328125 -4.34375 1.015625 -5.53125 1.015625 -6.84375 C 1.015625 -8.15625 1.328125 -9.34375 1.953125 -10.40625 C 2.578125 -11.46875 3.4375 -12.296875 4.53125 -12.890625 C 5.625 -13.492188 6.863281 -13.796875 8.25 -13.796875 C 9.289062 -13.796875 10.25 -13.628906 11.125 -13.296875 C 12 -12.960938 12.734375 -12.472656 13.328125 -11.828125 L 12.4375 -10.90625 C 11.351562 -11.976562 9.976562 -12.515625 8.3125 -12.515625 C 7.195312 -12.515625 6.191406 -12.269531 5.296875 -11.78125 C 4.410156 -11.289062 3.710938 -10.609375 3.203125 -9.734375 C 2.691406 -8.867188 2.4375 -7.90625 2.4375 -6.84375 C 2.4375 -5.769531 2.691406 -4.800781 3.203125 -3.9375 C 3.710938 -3.082031 4.410156 -2.40625 5.296875 -1.90625 C 6.179688 -1.414062 7.175781 -1.171875 8.28125 -1.171875 C 9.695312 -1.171875 10.890625 -1.523438 11.859375 -2.234375 Z M 11.859375 -6.84375 "/></g></g></g><g fill="#000000" fill-opacity="1"><g transform="translate(571.565742, 166.257137)"><g><path d="M 2.234375 -13.6875 L 3.671875 -13.6875 L 3.671875 0 L 2.234375 0 Z M 2.234375 -13.6875 "/></g></g></g><g fill="#000000" fill-opacity="1"><g transform="translate(577.47054, 166.257137)"><g><path d="M 10.8125 -3.65625 L 3.1875 -3.65625 L 1.546875 0 L 0.046875 0 L 6.296875 -13.6875 L 7.71875 -13.6875 L 13.96875 0 L 12.453125 0 Z M 10.28125 -4.828125 L 7 -12.171875 L 3.71875 -4.828125 Z M 10.28125 -4.828125 "/></g></g></g><g fill="#000000" fill-opacity="1"><g transform="translate(591.489587, 166.257137)"><g/></g></g><g fill="#000000" fill-opacity="1"><g transform="translate(596.612298, 166.257137)"><g><path d="M 2.234375 -13.6875 L 7.796875 -13.6875 C 9.242188 -13.6875 10.519531 -13.394531 11.625 -12.8125 C 12.738281 -12.226562 13.597656 -11.414062 14.203125 -10.375 C 14.816406 -9.34375 15.125 -8.164062 15.125 -6.84375 C 15.125 -5.507812 14.816406 -4.320312 14.203125 -3.28125 C 13.597656 -2.25 12.738281 -1.441406 11.625 -0.859375 C 10.519531 -0.285156 9.242188 0 7.796875 0 L 2.234375 0 Z M 7.71875 -1.25 C 8.914062 -1.25 9.960938 -1.484375 10.859375 -1.953125 C 11.765625 -2.429688 12.460938 -3.09375 12.953125 -3.9375 C 13.453125 -4.78125 13.703125 -5.75 13.703125 -6.84375 C 13.703125 -7.9375 13.453125 -8.898438 12.953125 -9.734375 C 12.460938 -10.578125 11.765625 -11.238281 10.859375 -11.71875 C 9.960938 -12.195312 8.914062 -12.4375 7.71875 -12.4375 L 3.671875 -12.4375 L 3.671875 -1.25 Z M 7.71875 -1.25 "/></g></g></g><g fill="#000000" fill-opacity="1"><g transform="translate(612.762546, 166.257137)"><g><path d="M 10.8125 -3.65625 L 3.1875 -3.65625 L 1.546875 0 L 0.046875 0 L 6.296875 -13.6875 L 7.71875 -13.6875 L 13.96875 0 L 12.453125 0 Z M 10.28125 -4.828125 L 7 -12.171875 L 3.71875 -4.828125 Z M 10.28125 -4.828125 "/></g></g></g><g fill="#000000" fill-opacity="1"><g transform="translate(626.781593, 166.257137)"><g/></g></g><g fill="#000000" fill-opacity="1"><g transform="translate(631.904332, 166.257137)"><g><path d="M 2.234375 -13.6875 L 3.671875 -13.6875 L 3.671875 0 L 2.234375 0 Z M 2.234375 -13.6875 "/></g></g></g><g fill="#000000" fill-opacity="1"><g transform="translate(637.80913, 166.257137)"><g><path d="M 11.859375 -6.84375 L 13.25 -6.84375 L 13.25 -1.625 C 12.613281 -1.0625 11.859375 -0.628906 10.984375 -0.328125 C 10.109375 -0.0234375 9.191406 0.125 8.234375 0.125 C 6.859375 0.125 5.625 -0.175781 4.53125 -0.78125 C 3.4375 -1.382812 2.578125 -2.21875 1.953125 -3.28125 C 1.328125 -4.34375 1.015625 -5.53125 1.015625 -6.84375 C 1.015625 -8.15625 1.328125 -9.34375 1.953125 -10.40625 C 2.578125 -11.46875 3.4375 -12.296875 4.53125 -12.890625 C 5.625 -13.492188 6.863281 -13.796875 8.25 -13.796875 C 9.289062 -13.796875 10.25 -13.628906 11.125 -13.296875 C 12 -12.960938 12.734375 -12.472656 13.328125 -11.828125 L 12.4375 -10.90625 C 11.351562 -11.976562 9.976562 -12.515625 8.3125 -12.515625 C 7.195312 -12.515625 6.191406 -12.269531 5.296875 -11.78125 C 4.410156 -11.289062 3.710938 -10.609375 3.203125 -9.734375 C 2.691406 -8.867188 2.4375 -7.90625 2.4375 -6.84375 C 2.4375 -5.769531 2.691406 -4.800781 3.203125 -3.9375 C 3.710938 -3.082031 4.410156 -2.40625 5.296875 -1.90625 C 6.179688 -1.414062 7.175781 -1.171875 8.28125 -1.171875 C 9.695312 -1.171875 10.890625 -1.523438 11.859375 -2.234375 Z M 11.859375 -6.84375 "/></g></g></g><g fill="#000000" fill-opacity="1"><g transform="translate(652.923097, 166.257137)"><g><path d="M 11.578125 0 L 8.4375 -4.390625 C 8.09375 -4.359375 7.726562 -4.34375 7.34375 -4.34375 L 3.671875 -4.34375 L 3.671875 0 L 2.234375 0 L 2.234375 -13.6875 L 7.34375 -13.6875 C 9.09375 -13.6875 10.460938 -13.269531 11.453125 -12.4375 C 12.441406 -11.601562 12.9375 -10.453125 12.9375 -8.984375 C 12.9375 -7.921875 12.664062 -7.019531 12.125 -6.28125 C 11.582031 -5.550781 10.8125 -5.019531 9.8125 -4.6875 L 13.15625 0 Z M 7.3125 -5.578125 C 8.664062 -5.578125 9.703125 -5.875 10.421875 -6.46875 C 11.140625 -7.070312 11.5 -7.910156 11.5 -8.984375 C 11.5 -10.097656 11.140625 -10.953125 10.421875 -11.546875 C 9.703125 -12.140625 8.664062 -12.4375 7.3125 -12.4375 L 3.671875 -12.4375 L 3.671875 -5.578125 Z M 7.3125 -5.578125 "/></g></g></g><g fill="#000000" fill-opacity="1"><g transform="translate(667.059449, 166.257137)"><g><path d="M 11.90625 -1.25 L 11.90625 0 L 2.234375 0 L 2.234375 -13.6875 L 11.609375 -13.6875 L 11.609375 -12.4375 L 3.671875 -12.4375 L 3.671875 -7.5625 L 10.75 -7.5625 L 10.75 -6.328125 L 3.671875 -6.328125 L 3.671875 -1.25 Z M 11.90625 -1.25 "/></g></g></g><g fill="#000000" fill-opacity="1"><g transform="translate(680.139965, 166.257137)"><g><path d="M 3.6875 0.125 C 2.90625 0.125 2.179688 -0.046875 1.515625 -0.390625 C 0.859375 -0.734375 0.320312 -1.21875 -0.09375 -1.84375 L 0.765625 -2.8125 C 1.515625 -1.695312 2.5 -1.140625 3.71875 -1.140625 C 5.40625 -1.140625 6.25 -2.140625 6.25 -4.140625 L 6.25 -12.4375 L 1.25 -12.4375 L 1.25 -13.6875 L 7.6875 -13.6875 L 7.6875 -4.203125 C 7.6875 -2.765625 7.347656 -1.679688 6.671875 -0.953125 C 6.003906 -0.234375 5.007812 0.125 3.6875 0.125 Z M 3.6875 0.125 "/></g></g></g><g fill="#000000" fill-opacity="1"><g transform="translate(689.935692, 166.257137)"><g><path d="M 10.8125 -3.65625 L 3.1875 -3.65625 L 1.546875 0 L 0.046875 0 L 6.296875 -13.6875 L 7.71875 -13.6875 L 13.96875 0 L 12.453125 0 Z M 10.28125 -4.828125 L 7 -12.171875 L 3.71875 -4.828125 Z M 10.28125 -4.828125 "/></g></g></g><g fill="#000000" fill-opacity="1"><g transform="translate(703.954738, 166.257137)"><g/></g></g><g fill="#000000" fill-opacity="1"><g transform="translate(709.07745, 166.257137)"><g><path d="M 13.65625 -13.6875 L 13.65625 0 L 12.46875 0 L 3.671875 -11.109375 L 3.671875 0 L 2.234375 0 L 2.234375 -13.6875 L 3.421875 -13.6875 L 12.234375 -2.578125 L 12.234375 -13.6875 Z M 13.65625 -13.6875 "/></g></g></g><g fill="#000000" fill-opacity="1"><g transform="translate(724.973531, 166.257137)"><g><path d="M 8.203125 0.125 C 6.847656 0.125 5.617188 -0.175781 4.515625 -0.78125 C 3.421875 -1.394531 2.5625 -2.226562 1.9375 -3.28125 C 1.320312 -4.34375 1.015625 -5.53125 1.015625 -6.84375 C 1.015625 -8.15625 1.320312 -9.335938 1.9375 -10.390625 C 2.5625 -11.453125 3.421875 -12.285156 4.515625 -12.890625 C 5.617188 -13.492188 6.847656 -13.796875 8.203125 -13.796875 C 9.566406 -13.796875 10.789062 -13.492188 11.875 -12.890625 C 12.957031 -12.296875 13.8125 -11.46875 14.4375 -10.40625 C 15.070312 -9.34375 15.390625 -8.15625 15.390625 -6.84375 C 15.390625 -5.53125 15.070312 -4.34375 14.4375 -3.28125 C 13.8125 -2.21875 12.957031 -1.382812 11.875 -0.78125 C 10.789062 -0.175781 9.566406 0.125 8.203125 0.125 Z M 8.203125 -1.171875 C 9.285156 -1.171875 10.265625 -1.414062 11.140625 -1.90625 C 12.015625 -2.394531 12.695312 -3.070312 13.1875 -3.9375 C 13.6875 -4.800781 13.9375 -5.769531 13.9375 -6.84375 C 13.9375 -7.90625 13.6875 -8.867188 13.1875 -9.734375 C 12.695312 -10.609375 12.015625 -11.289062 11.140625 -11.78125 C 10.265625 -12.269531 9.285156 -12.515625 8.203125 -12.515625 C 7.128906 -12.515625 6.148438 -12.269531 5.265625 -11.78125 C 4.390625 -11.289062 3.695312 -10.609375 3.1875 -9.734375 C 2.6875 -8.867188 2.4375 -7.90625 2.4375 -6.84375 C 2.4375 -5.769531 2.6875 -4.800781 3.1875 -3.9375 C 3.695312 -3.070312 4.390625 -2.394531 5.265625 -1.90625 C 6.148438 -1.414062 7.128906 -1.171875 8.203125 -1.171875 Z M 8.203125 -1.171875 "/></g></g></g><g fill="#000000" fill-opacity="1"><g transform="translate(741.377946, 166.257137)"><g><path d="M 13.609375 -13.6875 L 7.546875 0 L 6.125 0 L 0.0625 -13.6875 L 1.625 -13.6875 L 6.859375 -1.796875 L 12.140625 -13.6875 Z M 13.609375 -13.6875 "/></g></g></g><g fill="#000000" fill-opacity="1"><g transform="translate(755.025492, 166.257137)"><g><path d="M 10.8125 -3.65625 L 3.1875 -3.65625 L 1.546875 0 L 0.046875 0 L 6.296875 -13.6875 L 7.71875 -13.6875 L 13.96875 0 L 12.453125 0 Z M 10.28125 -4.828125 L 7 -12.171875 L 3.71875 -4.828125 Z M 10.28125 -4.828125 "/></g></g></g><g fill="#000000" fill-opacity="1"><g transform="translate(769.044511, 166.257137)"><g/></g></g><g fill="#000000" fill-opacity="1"><g transform="translate(774.16725, 166.257137)"><g><path d="M 3.671875 -12.4375 L 3.671875 -7.0625 L 10.75 -7.0625 L 10.75 -5.8125 L 3.671875 -5.8125 L 3.671875 0 L 2.234375 0 L 2.234375 -13.6875 L 11.609375 -13.6875 L 11.609375 -12.4375 Z M 3.671875 -12.4375 "/></g></g></g><g fill="#000000" fill-opacity="1"><g transform="translate(786.543874, 166.257137)"><g><path d="M 2.234375 -13.6875 L 3.671875 -13.6875 L 3.671875 0 L 2.234375 0 Z M 2.234375 -13.6875 "/></g></g></g><g fill="#000000" fill-opacity="1"><g transform="translate(792.448672, 166.257137)"><g><path d="M 2.234375 -13.6875 L 3.671875 -13.6875 L 3.671875 -1.25 L 11.34375 -1.25 L 11.34375 0 L 2.234375 0 Z M 2.234375 -13.6875 "/></g></g></g><g fill="#000000" fill-opacity="1"><g transform="translate(803.965016, 166.257137)"><g><path d="M 10.8125 -3.65625 L 3.1875 -3.65625 L 1.546875 0 L 0.046875 0 L 6.296875 -13.6875 L 7.71875 -13.6875 L 13.96875 0 L 12.453125 0 Z M 10.28125 -4.828125 L 7 -12.171875 L 3.71875 -4.828125 Z M 10.28125 -4.828125 "/></g></g></g><g fill="#000000" fill-opacity="1"><g transform="translate(817.98409, 166.257137)"><g><path d="M 2.234375 -13.6875 L 7.796875 -13.6875 C 9.242188 -13.6875 10.519531 -13.394531 11.625 -12.8125 C 12.738281 -12.226562 13.597656 -11.414062 14.203125 -10.375 C 14.816406 -9.34375 15.125 -8.164062 15.125 -6.84375 C 15.125 -5.507812 14.816406 -4.320312 14.203125 -3.28125 C 13.597656 -2.25 12.738281 -1.441406 11.625 -0.859375 C 10.519531 -0.285156 9.242188 0 7.796875 0 L 2.234375 0 Z M 7.71875 -1.25 C 8.914062 -1.25 9.960938 -1.484375 10.859375 -1.953125 C 11.765625 -2.429688 12.460938 -3.09375 12.953125 -3.9375 C 13.453125 -4.78125 13.703125 -5.75 13.703125 -6.84375 C 13.703125 -7.9375 13.453125 -8.898438 12.953125 -9.734375 C 12.460938 -10.578125 11.765625 -11.238281 10.859375 -11.71875 C 9.960938 -12.195312 8.914062 -12.4375 7.71875 -12.4375 L 3.671875 -12.4375 L 3.671875 -1.25 Z M 7.71875 -1.25 "/></g></g></g><g fill="#000000" fill-opacity="1"><g transform="translate(834.13431, 166.257137)"><g><path d="M 11.90625 -1.25 L 11.90625 0 L 2.234375 0 L 2.234375 -13.6875 L 11.609375 -13.6875 L 11.609375 -12.4375 L 3.671875 -12.4375 L 3.671875 -7.5625 L 10.75 -7.5625 L 10.75 -6.328125 L 3.671875 -6.328125 L 3.671875 -1.25 Z M 8.34375 -17.21875 L 10.203125 -17.21875 L 7.03125 -14.796875 L 5.65625 -14.796875 Z M 8.34375 -17.21875 "/></g></g></g><g fill="#000000" fill-opacity="1"><g transform="translate(847.214826, 166.257137)"><g><path d="M 2.234375 -13.6875 L 3.671875 -13.6875 L 3.671875 -1.25 L 11.34375 -1.25 L 11.34375 0 L 2.234375 0 Z M 2.234375 -13.6875 "/></g></g></g><g fill="#000000" fill-opacity="1"><g transform="translate(858.73117, 166.257137)"><g><path d="M 3.671875 -12.4375 L 3.671875 -7.0625 L 10.75 -7.0625 L 10.75 -5.8125 L 3.671875 -5.8125 L 3.671875 0 L 2.234375 0 L 2.234375 -13.6875 L 11.609375 -13.6875 L 11.609375 -12.4375 Z M 3.671875 -12.4375 "/></g></g></g><g fill="#000000" fill-opacity="1"><g transform="translate(871.10785, 166.257137)"><g><path d="M 2.234375 -13.6875 L 3.671875 -13.6875 L 3.671875 0 L 2.234375 0 Z M 2.234375 -13.6875 "/></g></g></g><g fill="#000000" fill-opacity="1"><g transform="translate(877.012647, 166.257137)"><g><path d="M 10.8125 -3.65625 L 3.1875 -3.65625 L 1.546875 0 L 0.046875 0 L 6.296875 -13.6875 L 7.71875 -13.6875 L 13.96875 0 L 12.453125 0 Z M 10.28125 -4.828125 L 7 -12.171875 L 3.71875 -4.828125 Z M 10.28125 -4.828125 "/></g></g></g><path fill="#000000" d="M 66.847656 11.820312 C 66.628906 12.410156 66.351562 21.371094 66.230469 31.738281 L 66.011719 50.582031 L 36.019531 51.007812 L 6.023438 51.4375 L 6.023438 66 L 36.019531 66.425781 L 66.011719 66.855469 L 66.230469 126.628906 C 66.429688 179.871094 66.597656 186.457031 67.789062 186.914062 C 68.523438 187.195312 69.96875 187.019531 70.996094 186.519531 C 74.539062 184.796875 82.003906 183.574219 86.621094 183.957031 C 90.273438 184.257812 92.746094 185.25 98.339844 188.648438 C 107.621094 194.285156 113.101562 196.054688 119.863281 195.597656 C 126.59375 195.144531 131.179688 192.921875 133.734375 188.878906 C 135.621094 185.886719 139.671875 173.765625 143.734375 158.933594 C 148.078125 143.078125 157.234375 108.222656 158.136719 104.113281 C 159.078125 99.820312 162.203125 87.820312 164.710938 78.847656 C 165.898438 74.605469 167.191406 69.402344 167.582031 67.285156 C 167.972656 65.164062 168.84375 61.886719 169.515625 60.003906 C 170.1875 58.117188 171.003906 55.132812 171.332031 53.363281 C 171.695312 51.394531 172.40625 50.152344 173.167969 50.152344 C 174.859375 50.152344 174.757812 51.214844 172.292969 59.617188 C 171.125 63.597656 170.160156 67.421875 170.148438 68.117188 C 170.140625 68.808594 169.382812 71.890625 168.464844 74.96875 C 167.546875 78.042969 165 87.882812 162.804688 96.835938 C 160.605469 105.785156 157.894531 116.578125 156.769531 120.816406 C 155.648438 125.058594 153.917969 131.609375 152.925781 135.378906 C 149.519531 148.300781 143.34375 169.855469 141.417969 175.519531 C 139.464844 181.273438 138.757812 187.515625 140.113281 187.066406 C 142.246094 186.355469 149.136719 165.835938 157.332031 135.808594 C 160.121094 125.574219 167.636719 97.289062 170.1875 87.414062 C 171.160156 83.644531 172.695312 78.054688 173.597656 74.992188 C 174.496094 71.929688 175.871094 66.726562 176.652344 63.429688 C 178.234375 56.75 179.78125 54.316406 181.410156 55.945312 C 182.472656 57.003906 181.421875 61.824219 177.726562 72.851562 C 176.777344 75.675781 175.644531 79.726562 175.207031 81.84375 C 174.769531 83.964844 173.46875 88.78125 172.316406 92.550781 C 171.167969 96.320312 168.5 105.570312 166.390625 113.109375 C 164.285156 120.644531 161.550781 130.089844 160.320312 134.09375 C 158.851562 138.875 157.402344 143.660156 155.96875 148.449219 C 154.804688 152.34375 151.921875 161.378906 149.5625 168.53125 C 145.277344 181.519531 144.929688 186.089844 148.710938 179.761719 C 150.6875 176.445312 154.785156 165.953125 156.84375 158.933594 C 157.464844 156.8125 158.746094 152.960938 159.691406 150.367188 C 160.632812 147.777344 162.597656 141.707031 164.054688 136.878906 C 165.511719 132.050781 167.84375 124.339844 169.242188 119.746094 C 170.859375 114.402344 172.453125 109.046875 174.023438 103.6875 C 177.707031 91.039062 180.242188 82.605469 182.128906 76.707031 C 183.109375 73.644531 184.378906 69.402344 184.949219 67.285156 C 185.742188 64.328125 186.433594 63.363281 187.914062 63.15625 C 190.359375 62.808594 190.34375 63.019531 187.347656 72.125 C 185.976562 76.292969 183.628906 83.941406 182.128906 89.125 C 180.257812 95.5625 178.347656 101.984375 176.398438 108.398438 L 171.691406 123.816406 C 168.140625 135.460938 159.054688 163.085938 156.507812 169.988281 C 153.617188 177.816406 153.273438 179.824219 154.921875 179.28125 C 157.058594 178.578125 167.46875 153.167969 171.40625 139.042969 C 172.027344 136.816406 173.488281 132.382812 174.648438 129.191406 C 175.8125 126 178 119.148438 179.511719 113.964844 C 181.019531 108.78125 182.847656 103.195312 183.570312 101.546875 C 184.292969 99.894531 185.574219 96.042969 186.421875 92.980469 C 189.21875 82.875 192.089844 73.734375 193.015625 71.996094 C 193.515625 71.050781 194.722656 67.792969 195.695312 64.75 C 197.789062 58.222656 197.246094 57.003906 192.238281 57.003906 C 188.886719 57.003906 188.855469 56.972656 189.4375 54.328125 C 190.144531 51.101562 189.050781 50.183594 184.484375 50.164062 C 181.707031 50.152344 181.273438 49.886719 181.273438 48.183594 C 181.273438 45.550781 179.730469 44.15625 176.816406 44.15625 C 174.757812 44.15625 174.417969 43.816406 174.417969 41.746094 L 174.417969 39.335938 L 165.203125 38.359375 C 154.261719 37.203125 146.445312 34.816406 133.738281 28.742188 C 122.105469 23.179688 118.835938 22.015625 112.304688 21.105469 C 102.867188 19.785156 91.195312 22.695312 84.222656 28.101562 L 81.007812 30.597656 L 81.007812 21.703125 C 81.007812 15.925781 80.648438 12.445312 79.980469 11.777344 C 78.5625 10.363281 67.375 10.398438 66.847656 11.820312 M 70.726562 34.203125 C 70.726562 49.148438 70.472656 53.578125 69.578125 54.320312 C 68.804688 54.964844 59.101562 55.339844 39.464844 55.496094 C 13.894531 55.695312 10.394531 55.882812 9.621094 57.101562 C 9.144531 57.863281 8.992188 59.117188 9.289062 59.886719 C 9.773438 61.144531 12.835938 61.289062 39.746094 61.289062 L 69.667969 61.289062 L 70.183594 63.214844 C 70.46875 64.273438 70.707031 91.6875 70.710938 124.128906 L 70.726562 183.117188 L 72.652344 182.648438 C 74.582031 182.171875 76.511719 181.683594 78.4375 181.1875 C 84.285156 179.683594 93.875 180.53125 97.847656 182.90625 C 109.574219 189.910156 110.230469 190.152344 117.429688 190.152344 C 126.300781 190.152344 128.339844 188.894531 130.308594 182.214844 C 131.09375 179.539062 132.082031 176.578125 132.503906 175.636719 C 132.921875 174.695312 134.839844 168.160156 136.761719 161.113281 C 138.679688 154.070312 140.394531 148.078125 140.5625 147.800781 C 140.960938 147.164062 147.710938 121.949219 148.707031 117.390625 C 149.117188 115.507812 151.238281 107.027344 153.414062 98.546875 C 155.59375 90.066406 157.496094 82.359375 157.640625 81.417969 C 157.789062 80.472656 158.136719 79.125 158.421875 78.417969 C 158.703125 77.710938 159.878906 73.277344 161.03125 68.566406 C 162.1875 63.855469 163.953125 56.957031 164.957031 53.230469 C 165.960938 49.503906 166.609375 46 166.394531 45.4375 C 166.171875 44.859375 163.460938 44.203125 160.140625 43.921875 C 152.078125 43.242188 143.171875 40.160156 130.167969 33.542969 C 118.34375 27.527344 114.320312 26.179688 106.34375 25.546875 C 100.265625 25.066406 96.429688 26.054688 87.863281 30.316406 L 81.4375 33.511719 L 81.191406 42.261719 L 80.949219 51.007812 L 110.113281 51.007812 C 126.273438 51.007812 139.28125 51.34375 139.28125 51.761719 C 139.28125 52.175781 138.644531 53.042969 137.867188 53.6875 C 136.726562 54.636719 130.671875 54.863281 106.800781 54.863281 L 77.152344 54.863281 L 76.691406 15.035156 L 70.726562 15.035156 Z M 76.976562 62.359375 C 76.070312 63.550781 76.539062 71.566406 77.515625 71.566406 C 77.855469 71.566406 78.492188 70.136719 78.929688 68.386719 C 79.804688 64.875 81.347656 64.089844 87.648438 63.941406 C 91.558594 63.851562 92.515625 62.671875 89.363281 61.828125 C 85.882812 60.894531 77.828125 61.242188 76.976562 62.359375 " fill-opacity="1" fill-rule="evenodd"/></svg>