<svg xmlns="http://www.w3.org/2000/svg" xmlns:xlink="http://www.w3.org/1999/xlink" width="1225" zoomAndPan="magnify" viewBox="0 0 918.75 191.999996" height="256" preserveAspectRatio="xMidYMid meet" version="1.0"><defs><g/></defs><g fill="#ffffff" fill-opacity="1"><g transform="translate(234.279146, 135.395558)"><g><path d="M 45.375 1.375 C 33.5 1.375 23.503906 -1.835938 15.390625 -8.265625 C 7.273438 -14.703125 3.21875 -23.929688 3.21875 -35.953125 C 3.21875 -43.003906 4.554688 -49.285156 7.234375 -54.796875 C 9.910156 -60.304688 13.4375 -64.632812 17.8125 -67.78125 C 26.613281 -74.207031 36.488281 -77.421875 47.4375 -77.421875 C 53.800781 -77.421875 60.425781 -76.273438 67.3125 -73.984375 L 66.171875 -66.171875 C 62.566406 -67.703125 59.769531 -68.847656 57.78125 -69.609375 C 52.039062 -71.679688 46.257812 -72.71875 40.4375 -72.71875 C 32.394531 -70.875 26.207031 -66.890625 21.875 -60.765625 C 17.550781 -54.640625 15.390625 -46.984375 15.390625 -37.796875 C 15.390625 -26.535156 18.335938 -17.859375 24.234375 -11.765625 C 30.128906 -5.679688 37.898438 -2.640625 47.546875 -2.640625 C 57.203125 -2.640625 64.40625 -4.707031 69.15625 -8.84375 L 69.15625 -2.53125 C 62.570312 0.0703125 54.644531 1.375 45.375 1.375 Z M 45.375 1.375 "/></g></g></g><g fill="#ffffff" fill-opacity="1"><g transform="translate(306.87762, 135.395558)"><g><path d="M 10.34375 0 L 10.34375 -76.046875 L 56.40625 -76.046875 L 55.25 -68.34375 L 33.890625 -71.90625 C 30.140625 -71.90625 26.003906 -71.253906 21.484375 -69.953125 L 21.484375 -42.046875 L 46.984375 -42.046875 L 46.984375 -37.671875 L 21.484375 -37.671875 L 21.484375 -4.140625 L 57.09375 -7.703125 L 55.9375 0 Z M 10.34375 0 "/></g></g></g><g fill="#ffffff" fill-opacity="1"><g transform="translate(371.435125, 135.395558)"><g><path d="M 68.125 1.265625 L 66.171875 1.265625 L 15.859375 -61.6875 L 15.390625 -61.6875 L 15.390625 0 L 10.34375 0 L 10.34375 -76.046875 L 18.84375 -76.046875 L 62.609375 -20.796875 L 63.0625 -20.796875 L 63.0625 -76.046875 L 68.125 -76.046875 Z M 68.125 1.265625 "/></g></g></g><g fill="#ffffff" fill-opacity="1"><g transform="translate(449.892021, 135.395558)"><g><path d="M 21.484375 -42.046875 L 45.828125 -42.046875 L 45.828125 -37.671875 L 21.484375 -37.671875 L 21.484375 0 L 10.34375 0 L 10.34375 -76.046875 L 55.25 -76.046875 L 55.25 -68.34375 L 34 -71.90625 C 30.175781 -71.90625 26.003906 -71.253906 21.484375 -69.953125 Z M 21.484375 -42.046875 "/></g></g></g><g fill="#ffffff" fill-opacity="1"><g transform="translate(505.144966, 135.395558)"><g><path d="M 44.921875 -77.421875 C 54.867188 -77.421875 63.097656 -74.144531 69.609375 -67.59375 C 76.117188 -61.050781 79.375 -51.960938 79.375 -40.328125 C 79.375 -32.816406 78.070312 -26.242188 75.46875 -20.609375 C 72.863281 -14.984375 69.457031 -10.640625 65.25 -7.578125 C 57.050781 -1.609375 48.007812 1.375 38.125 1.375 C 28.25 1.375 20.078125 -1.9375 13.609375 -8.5625 C 7.140625 -15.1875 3.90625 -24.316406 3.90625 -35.953125 C 3.90625 -42.003906 4.765625 -47.460938 6.484375 -52.328125 C 8.210938 -57.191406 10.472656 -61.15625 13.265625 -64.21875 C 16.066406 -67.28125 19.300781 -69.84375 22.96875 -71.90625 C 29.707031 -75.582031 37.023438 -77.421875 44.921875 -77.421875 Z M 21.828125 -13.09375 C 23.816406 -9.726562 26.492188 -7.101562 29.859375 -5.21875 C 33.234375 -3.34375 37.117188 -2.40625 41.515625 -2.40625 C 45.921875 -2.40625 49.847656 -3.515625 53.296875 -5.734375 C 56.742188 -7.960938 59.425781 -10.875 61.34375 -14.46875 C 65.25 -21.664062 67.203125 -29.398438 67.203125 -37.671875 C 67.203125 -47.859375 65.171875 -56.054688 61.109375 -62.265625 C 56.585938 -69.234375 49.125 -72.71875 38.71875 -72.71875 C 31.28125 -70.113281 25.644531 -65.628906 21.8125 -59.265625 C 17.988281 -52.910156 16.078125 -45.710938 16.078125 -37.671875 C 16.078125 -27.867188 17.992188 -19.675781 21.828125 -13.09375 Z M 21.828125 -13.09375 "/></g></g></g><g fill="#ffffff" fill-opacity="1"><g transform="translate(588.426432, 135.395558)"><g><path d="M 21.59375 -36.296875 L 21.59375 0 L 10.34375 0 L 10.34375 -76.046875 L 35.15625 -76.046875 C 42.882812 -76.046875 49.21875 -74.320312 54.15625 -70.875 C 59.101562 -67.425781 61.578125 -62.890625 61.578125 -57.265625 C 61.578125 -51.640625 59.601562 -47.195312 55.65625 -43.9375 C 51.707031 -40.6875 46.363281 -38.445312 39.625 -37.21875 L 70.421875 0 L 57.09375 1.609375 L 30.4375 -36.296875 Z M 21.59375 -39.75 L 28.953125 -39.75 C 42.734375 -39.75 49.625 -45.1875 49.625 -56.0625 C 49.625 -57.894531 49.164062 -59.960938 48.25 -62.265625 C 46.488281 -67.085938 42.734375 -70.265625 36.984375 -71.796875 C 31.773438 -71.796875 26.644531 -71.144531 21.59375 -69.84375 Z M 21.59375 -39.75 "/></g></g></g><g fill="#ffffff" fill-opacity="1"><g transform="translate(661.714134, 135.395558)"><g><path d="M 36.296875 0 L 25.15625 0 L 25.15625 -70.53125 C 22.550781 -71.144531 19.945312 -71.453125 17.34375 -71.453125 L 1.84375 -67.890625 L 1.15625 -76.046875 L 60.3125 -76.046875 L 59.734375 -67.890625 L 44.109375 -71.453125 C 41.503906 -71.453125 38.898438 -71.144531 36.296875 -70.53125 Z M 36.296875 0 "/></g></g></g><g fill="#ffffff" fill-opacity="1"><g transform="translate(723.170126, 135.395558)"><g><path d="M 20.90625 -76.046875 L 20.90625 0 L 10.34375 0 L 10.34375 -76.046875 Z M 20.90625 -76.046875 "/></g></g></g><g fill="#ffffff" fill-opacity="1"><g transform="translate(754.415026, 135.395558)"><g><path d="M 68.125 1.265625 L 66.171875 1.265625 L 15.859375 -61.6875 L 15.390625 -61.6875 L 15.390625 0 L 10.34375 0 L 10.34375 -76.046875 L 18.84375 -76.046875 L 62.609375 -20.796875 L 63.0625 -20.796875 L 63.0625 -76.046875 L 68.125 -76.046875 Z M 68.125 1.265625 "/></g></g></g><g fill="#ffffff" fill-opacity="1"><g transform="translate(832.871899, 135.395558)"><g><path d="M 21.484375 -42.046875 L 45.828125 -42.046875 L 45.828125 -37.671875 L 21.484375 -37.671875 L 21.484375 0 L 10.34375 0 L 10.34375 -76.046875 L 55.25 -76.046875 L 55.25 -68.34375 L 34 -71.90625 C 30.175781 -71.90625 26.003906 -71.253906 21.484375 -69.953125 Z M 21.484375 -42.046875 "/></g></g></g><path fill="#ffffff" d="M 66.449219 4.527344 C 66.230469 5.117188 65.953125 14.089844 65.832031 24.46875 L 65.613281 43.335938 L 35.59375 43.765625 L 5.578125 44.195312 L 5.578125 58.773438 L 35.59375 59.203125 L 65.613281 59.632812 L 65.832031 119.484375 C 66.027344 172.796875 66.199219 179.390625 67.390625 179.847656 C 68.128906 180.128906 69.570312 179.953125 70.601562 179.453125 C 74.148438 177.726562 81.617188 176.5 86.238281 176.886719 C 89.890625 177.1875 92.367188 178.179688 97.96875 181.582031 C 107.257812 187.226562 112.742188 189 119.507812 188.542969 C 126.246094 188.085938 130.832031 185.863281 133.390625 181.8125 C 135.28125 178.816406 139.332031 166.679688 143.398438 151.832031 C 147.746094 135.953125 156.910156 101.054688 157.8125 96.941406 C 158.753906 92.640625 161.878906 80.625 164.394531 71.640625 C 165.582031 67.394531 166.871094 62.183594 167.265625 60.0625 C 167.65625 57.9375 168.527344 54.660156 169.199219 52.773438 C 169.875 50.886719 170.691406 47.894531 171.015625 46.125 C 171.378906 44.152344 172.09375 42.910156 172.859375 42.910156 C 174.546875 42.910156 174.449219 43.972656 171.980469 52.386719 C 170.808594 56.371094 169.84375 60.199219 169.835938 60.894531 C 169.824219 61.589844 169.066406 64.675781 168.148438 67.757812 C 167.230469 70.835938 164.683594 80.6875 162.484375 89.652344 C 160.285156 98.613281 157.570312 109.417969 156.445312 113.664062 C 155.324219 117.910156 153.589844 124.472656 152.597656 128.246094 C 149.191406 141.183594 143.007812 162.769531 141.082031 168.4375 C 139.125 174.199219 138.417969 180.449219 139.773438 180 C 141.910156 179.285156 148.804688 158.742188 157.003906 128.675781 C 159.796875 118.429688 167.320312 90.105469 169.875 80.214844 C 170.847656 76.441406 172.382812 70.847656 173.285156 67.78125 C 174.1875 64.714844 175.5625 59.503906 176.34375 56.203125 C 177.925781 49.515625 179.472656 47.078125 181.105469 48.707031 C 182.167969 49.769531 181.113281 54.597656 177.417969 65.636719 C 176.46875 68.464844 175.335938 72.519531 174.894531 74.640625 C 174.457031 76.765625 173.15625 81.589844 172.003906 85.363281 C 170.855469 89.136719 168.183594 98.398438 166.074219 105.945312 C 163.964844 113.492188 161.230469 122.949219 159.996094 126.957031 C 158.53125 131.746094 157.078125 136.539062 155.640625 141.332031 C 154.476562 145.230469 151.59375 154.277344 149.230469 161.441406 C 144.945312 174.445312 144.597656 179.023438 148.378906 172.683594 C 150.355469 169.363281 154.457031 158.859375 156.519531 151.832031 C 157.140625 149.707031 158.421875 145.847656 159.367188 143.253906 C 160.3125 140.660156 162.277344 134.582031 163.734375 129.746094 C 165.195312 124.910156 167.527344 117.191406 168.925781 112.59375 C 170.546875 107.238281 172.140625 101.878906 173.710938 96.511719 C 177.402344 83.847656 179.9375 75.402344 181.824219 69.496094 C 182.804688 66.429688 184.074219 62.183594 184.644531 60.0625 C 185.441406 57.105469 186.132812 56.136719 187.613281 55.929688 C 190.058594 55.582031 190.046875 55.792969 187.046875 64.910156 C 185.675781 69.082031 183.324219 76.742188 181.824219 81.933594 C 179.953125 88.375 178.042969 94.808594 176.089844 101.230469 L 171.378906 116.667969 C 167.824219 128.328125 158.730469 155.988281 156.179688 162.898438 C 153.289062 170.738281 152.945312 172.746094 154.59375 172.203125 C 156.730469 171.5 167.152344 146.058594 171.09375 131.914062 C 171.714844 129.683594 173.175781 125.246094 174.339844 122.050781 C 175.503906 118.851562 177.691406 111.992188 179.203125 106.804688 C 180.714844 101.613281 182.542969 96.019531 183.265625 94.367188 C 183.988281 92.71875 185.273438 88.859375 186.121094 85.792969 C 188.917969 75.675781 191.792969 66.519531 192.71875 64.777344 C 193.21875 63.835938 194.425781 60.570312 195.402344 57.527344 C 197.496094 50.988281 196.953125 49.769531 191.941406 49.769531 C 188.589844 49.769531 188.554688 49.738281 189.136719 47.089844 C 189.847656 43.859375 188.753906 42.941406 184.183594 42.921875 C 181.402344 42.910156 180.964844 42.640625 180.964844 40.9375 C 180.964844 38.300781 179.421875 36.90625 176.507812 36.90625 C 174.445312 36.90625 174.105469 36.5625 174.105469 34.492188 L 174.105469 32.078125 L 164.886719 31.101562 C 153.933594 29.945312 146.109375 27.550781 133.394531 21.46875 C 121.753906 15.902344 118.480469 14.734375 111.945312 13.824219 C 102.5 12.503906 90.816406 15.414062 83.835938 20.832031 L 80.621094 23.328125 L 80.621094 14.421875 C 80.621094 8.636719 80.261719 5.152344 79.59375 4.484375 C 78.175781 3.066406 66.976562 3.105469 66.449219 4.527344 M 70.328125 26.9375 C 70.328125 41.90625 70.078125 46.339844 69.183594 47.082031 C 68.40625 47.726562 58.695312 48.105469 39.042969 48.257812 C 13.453125 48.457031 9.949219 48.644531 9.179688 49.867188 C 8.699219 50.628906 8.546875 51.882812 8.84375 52.65625 C 9.328125 53.917969 12.394531 54.058594 39.328125 54.058594 L 69.273438 54.058594 L 69.789062 55.988281 C 70.074219 57.050781 70.3125 84.496094 70.316406 116.980469 L 70.328125 176.042969 L 72.257812 175.574219 C 74.191406 175.097656 76.121094 174.609375 78.046875 174.113281 C 83.898438 172.605469 93.5 173.457031 97.476562 175.832031 C 109.210938 182.847656 109.867188 183.089844 117.070312 183.089844 C 125.949219 183.089844 127.992188 181.832031 129.960938 175.144531 C 130.75 172.464844 131.738281 169.5 132.160156 168.554688 C 132.578125 167.613281 134.496094 161.066406 136.417969 154.015625 C 138.339844 146.960938 140.054688 140.960938 140.226562 140.683594 C 140.621094 140.042969 147.378906 114.796875 148.375 110.234375 C 148.789062 108.347656 150.910156 99.855469 153.085938 91.367188 C 155.265625 82.875 157.171875 75.15625 157.316406 74.214844 C 157.464844 73.269531 157.8125 71.917969 158.097656 71.210938 C 158.378906 70.503906 159.554688 66.066406 160.710938 61.347656 C 161.863281 56.632812 163.632812 49.71875 164.636719 45.992188 C 165.644531 42.261719 166.289062 38.75 166.074219 38.1875 C 165.851562 37.609375 163.140625 36.953125 159.816406 36.671875 C 151.75 35.992188 142.835938 32.902344 129.820312 26.277344 C 117.988281 20.253906 113.960938 18.902344 105.976562 18.269531 C 99.894531 17.789062 96.054688 18.78125 87.484375 23.046875 L 81.050781 26.246094 L 80.804688 35.007812 L 80.5625 43.765625 L 109.75 43.765625 C 125.925781 43.765625 138.941406 44.101562 138.941406 44.519531 C 138.941406 44.933594 138.304688 45.800781 137.523438 46.449219 C 136.382812 47.398438 130.324219 47.625 106.433594 47.625 L 76.761719 47.625 L 76.53125 27.683594 L 76.300781 7.746094 L 70.328125 7.746094 Z M 76.585938 55.128906 C 75.675781 56.324219 76.148438 64.351562 77.125 64.351562 C 77.464844 64.351562 78.101562 62.917969 78.539062 61.167969 C 79.417969 57.652344 80.960938 56.863281 87.269531 56.71875 C 91.179688 56.625 92.136719 55.445312 88.984375 54.597656 C 85.5 53.664062 77.4375 54.011719 76.585938 55.128906 " fill-opacity="1" fill-rule="evenodd"/></svg>