<svg xmlns="http://www.w3.org/2000/svg" xmlns:xlink="http://www.w3.org/1999/xlink" width="943" zoomAndPan="magnify" viewBox="0 0 707.25 352.49999" height="470" preserveAspectRatio="xMidYMid meet" version="1.0"><defs><g/></defs><g fill="#ffffff" fill-opacity="1"><g transform="translate(23.075373, 299.397119)"><g><path d="M 45.328125 1.375 C 33.472656 1.375 23.488281 -1.835938 15.375 -8.265625 C 7.269531 -14.691406 3.21875 -23.910156 3.21875 -35.921875 C 3.21875 -42.953125 4.554688 -49.222656 7.234375 -54.734375 C 9.910156 -60.242188 13.425781 -64.566406 17.78125 -67.703125 C 26.582031 -74.128906 36.453125 -77.34375 47.390625 -77.34375 C 53.742188 -77.34375 60.363281 -76.195312 67.25 -73.90625 L 66.09375 -66.09375 C 62.5 -67.625 59.707031 -68.769531 57.71875 -69.53125 C 51.976562 -71.601562 46.203125 -72.640625 40.390625 -72.640625 C 32.359375 -70.796875 26.179688 -66.8125 21.859375 -60.6875 C 17.535156 -54.570312 15.375 -46.925781 15.375 -37.75 C 15.375 -26.507812 18.316406 -17.847656 24.203125 -11.765625 C 30.097656 -5.679688 37.863281 -2.640625 47.5 -2.640625 C 57.144531 -2.640625 64.335938 -4.703125 69.078125 -8.828125 L 69.078125 -2.53125 C 62.503906 0.0703125 54.585938 1.375 45.328125 1.375 Z M 45.328125 1.375 "/></g></g></g><g fill="#ffffff" fill-opacity="1"><g transform="translate(95.590742, 299.397119)"><g><path d="M 10.328125 0 L 10.328125 -75.96875 L 56.34375 -75.96875 L 55.1875 -68.28125 L 33.84375 -71.828125 C 30.101562 -71.828125 25.972656 -71.175781 21.453125 -69.875 L 21.453125 -42 L 46.9375 -42 L 46.9375 -37.640625 L 21.453125 -37.640625 L 21.453125 -4.125 L 57.03125 -7.6875 L 55.890625 0 Z M 10.328125 0 "/></g></g></g><g fill="#ffffff" fill-opacity="1"><g transform="translate(160.074345, 299.397119)"><g><path d="M 68.046875 1.265625 L 66.09375 1.265625 L 15.828125 -61.625 L 15.375 -61.625 L 15.375 0 L 10.328125 0 L 10.328125 -75.96875 L 18.8125 -75.96875 L 62.53125 -20.765625 L 63 -20.765625 L 63 -75.96875 L 68.046875 -75.96875 Z M 68.046875 1.265625 "/></g></g></g><g fill="#ffffff" fill-opacity="1"><g transform="translate(238.441429, 299.397119)"><g><path d="M 21.453125 -42 L 45.78125 -42 L 45.78125 -37.640625 L 21.453125 -37.640625 L 21.453125 0 L 10.328125 0 L 10.328125 -75.96875 L 55.1875 -75.96875 L 55.1875 -68.28125 L 33.96875 -71.828125 C 30.144531 -71.828125 25.972656 -71.175781 21.453125 -69.875 Z M 21.453125 -42 "/></g></g></g><g fill="#ffffff" fill-opacity="1"><g transform="translate(293.631124, 299.397119)"><g><path d="M 44.875 -77.34375 C 54.8125 -77.34375 63.03125 -74.070312 69.53125 -67.53125 C 76.039062 -60.988281 79.296875 -51.90625 79.296875 -40.28125 C 79.296875 -32.78125 77.992188 -26.21875 75.390625 -20.59375 C 72.785156 -14.96875 69.378906 -10.628906 65.171875 -7.578125 C 56.992188 -1.609375 47.96875 1.375 38.09375 1.375 C 28.226562 1.375 20.0625 -1.929688 13.59375 -8.546875 C 7.132812 -15.160156 3.90625 -24.285156 3.90625 -35.921875 C 3.90625 -41.960938 4.765625 -47.410156 6.484375 -52.265625 C 8.203125 -57.128906 10.457031 -61.085938 13.25 -64.140625 C 16.039062 -67.203125 19.273438 -69.765625 22.953125 -71.828125 C 29.679688 -75.503906 36.988281 -77.34375 44.875 -77.34375 Z M 21.796875 -13.078125 C 23.785156 -9.710938 26.460938 -7.09375 29.828125 -5.21875 C 33.203125 -3.34375 37.085938 -2.40625 41.484375 -2.40625 C 45.878906 -2.40625 49.796875 -3.515625 53.234375 -5.734375 C 56.679688 -7.953125 59.363281 -10.859375 61.28125 -14.453125 C 65.175781 -21.648438 67.125 -29.378906 67.125 -37.640625 C 67.125 -47.816406 65.097656 -56 61.046875 -62.1875 C 56.535156 -69.15625 49.078125 -72.640625 38.671875 -72.640625 C 31.253906 -70.035156 25.628906 -65.554688 21.796875 -59.203125 C 17.972656 -52.859375 16.0625 -45.671875 16.0625 -37.640625 C 16.0625 -27.847656 17.972656 -19.660156 21.796875 -13.078125 Z M 21.796875 -13.078125 "/></g></g></g><g fill="#ffffff" fill-opacity="1"><g transform="translate(376.817254, 299.397119)"><g><path d="M 21.578125 -36.265625 L 21.578125 0 L 10.328125 0 L 10.328125 -75.96875 L 35.109375 -75.96875 C 42.835938 -75.96875 49.164062 -74.242188 54.09375 -70.796875 C 59.03125 -67.359375 61.5 -62.828125 61.5 -57.203125 C 61.5 -51.578125 59.53125 -47.140625 55.59375 -43.890625 C 51.65625 -40.640625 46.320312 -38.398438 39.59375 -37.171875 L 70.34375 0 L 57.03125 1.609375 L 30.40625 -36.265625 Z M 21.578125 -39.703125 L 28.921875 -39.703125 C 42.691406 -39.703125 49.578125 -45.132812 49.578125 -56 C 49.578125 -57.832031 49.113281 -59.894531 48.1875 -62.1875 C 46.4375 -67.007812 42.691406 -70.1875 36.953125 -71.71875 C 31.742188 -71.71875 26.617188 -71.066406 21.578125 -69.765625 Z M 21.578125 -39.703125 "/></g></g></g><g fill="#ffffff" fill-opacity="1"><g transform="translate(450.021061, 299.397119)"><g><path d="M 36.265625 0 L 25.125 0 L 25.125 -70.453125 C 22.53125 -71.066406 19.929688 -71.375 17.328125 -71.375 L 1.84375 -67.8125 L 1.140625 -75.96875 L 60.25 -75.96875 L 59.671875 -67.8125 L 44.0625 -71.375 C 41.457031 -71.375 38.859375 -71.066406 36.265625 -70.453125 Z M 36.265625 0 "/></g></g></g><g fill="#ffffff" fill-opacity="1"><g transform="translate(511.406702, 299.397119)"><g><path d="M 20.890625 -75.96875 L 20.890625 0 L 10.328125 0 L 10.328125 -75.96875 Z M 20.890625 -75.96875 "/></g></g></g><g fill="#ffffff" fill-opacity="1"><g transform="translate(542.615834, 299.397119)"><g><path d="M 68.046875 1.265625 L 66.09375 1.265625 L 15.828125 -61.625 L 15.375 -61.625 L 15.375 0 L 10.328125 0 L 10.328125 -75.96875 L 18.8125 -75.96875 L 62.53125 -20.765625 L 63 -20.765625 L 63 -75.96875 L 68.046875 -75.96875 Z M 68.046875 1.265625 "/></g></g></g><g fill="#ffffff" fill-opacity="1"><g transform="translate(620.982895, 299.397119)"><g><path d="M 21.453125 -42 L 45.78125 -42 L 45.78125 -37.640625 L 21.453125 -37.640625 L 21.453125 0 L 10.328125 0 L 10.328125 -75.96875 L 55.1875 -75.96875 L 55.1875 -68.28125 L 33.96875 -71.828125 C 30.144531 -71.828125 25.972656 -71.175781 21.453125 -69.875 Z M 21.453125 -42 "/></g></g></g><g fill="#ffffff" fill-opacity="1"><g transform="translate(26.908883, 334.323117)"><g><path d="M 8.171875 0.125 C 6.816406 0.125 5.59375 -0.175781 4.5 -0.78125 C 3.414062 -1.382812 2.5625 -2.21875 1.9375 -3.28125 C 1.320312 -4.34375 1.015625 -5.53125 1.015625 -6.84375 C 1.015625 -8.15625 1.320312 -9.34375 1.9375 -10.40625 C 2.5625 -11.46875 3.421875 -12.296875 4.515625 -12.890625 C 5.609375 -13.492188 6.832031 -13.796875 8.1875 -13.796875 C 9.207031 -13.796875 10.144531 -13.625 11 -13.28125 C 11.863281 -12.945312 12.59375 -12.457031 13.1875 -11.8125 L 12.28125 -10.890625 C 11.207031 -11.972656 9.859375 -12.515625 8.234375 -12.515625 C 7.148438 -12.515625 6.164062 -12.265625 5.28125 -11.765625 C 4.394531 -11.273438 3.695312 -10.597656 3.1875 -9.734375 C 2.6875 -8.867188 2.4375 -7.90625 2.4375 -6.84375 C 2.4375 -5.769531 2.6875 -4.800781 3.1875 -3.9375 C 3.695312 -3.082031 4.394531 -2.40625 5.28125 -1.90625 C 6.164062 -1.414062 7.148438 -1.171875 8.234375 -1.171875 C 9.867188 -1.171875 11.21875 -1.71875 12.28125 -2.8125 L 13.1875 -1.890625 C 12.59375 -1.242188 11.859375 -0.742188 10.984375 -0.390625 C 10.117188 -0.046875 9.179688 0.125 8.171875 0.125 Z M 8.171875 0.125 "/></g></g></g><g fill="#ffffff" fill-opacity="1"><g transform="translate(40.964773, 334.323117)"><g><path d="M 11.90625 -1.25 L 11.90625 0 L 2.234375 0 L 2.234375 -13.6875 L 11.609375 -13.6875 L 11.609375 -12.4375 L 3.671875 -12.4375 L 3.671875 -7.5625 L 10.75 -7.5625 L 10.75 -6.328125 L 3.671875 -6.328125 L 3.671875 -1.25 Z M 11.90625 -1.25 "/></g></g></g><g fill="#ffffff" fill-opacity="1"><g transform="translate(54.043205, 334.323117)"><g><path d="M 13.65625 -13.6875 L 13.65625 0 L 12.46875 0 L 3.671875 -11.109375 L 3.671875 0 L 2.234375 0 L 2.234375 -13.6875 L 3.421875 -13.6875 L 12.234375 -2.578125 L 12.234375 -13.6875 Z M 13.65625 -13.6875 "/></g></g></g><g fill="#ffffff" fill-opacity="1"><g transform="translate(69.936722, 334.323117)"><g><path d="M 4.890625 -12.4375 L 0.078125 -12.4375 L 0.078125 -13.6875 L 11.140625 -13.6875 L 11.140625 -12.4375 L 6.328125 -12.4375 L 6.328125 0 L 4.890625 0 Z M 4.890625 -12.4375 "/></g></g></g><g fill="#ffffff" fill-opacity="1"><g transform="translate(81.157973, 334.323117)"><g><path d="M 11.578125 0 L 8.4375 -4.390625 C 8.09375 -4.359375 7.726562 -4.34375 7.34375 -4.34375 L 3.671875 -4.34375 L 3.671875 0 L 2.234375 0 L 2.234375 -13.6875 L 7.34375 -13.6875 C 9.09375 -13.6875 10.460938 -13.269531 11.453125 -12.4375 C 12.441406 -11.601562 12.9375 -10.453125 12.9375 -8.984375 C 12.9375 -7.921875 12.664062 -7.019531 12.125 -6.28125 C 11.582031 -5.550781 10.8125 -5.019531 9.8125 -4.6875 L 13.15625 0 Z M 7.3125 -5.578125 C 8.664062 -5.578125 9.703125 -5.875 10.421875 -6.46875 C 11.140625 -7.070312 11.5 -7.910156 11.5 -8.984375 C 11.5 -10.097656 11.140625 -10.953125 10.421875 -11.546875 C 9.703125 -12.140625 8.664062 -12.4375 7.3125 -12.4375 L 3.671875 -12.4375 L 3.671875 -5.578125 Z M 7.3125 -5.578125 "/></g></g></g><g fill="#ffffff" fill-opacity="1"><g transform="translate(95.292073, 334.323117)"><g><path d="M 8.203125 0.125 C 6.847656 0.125 5.617188 -0.175781 4.515625 -0.78125 C 3.421875 -1.394531 2.5625 -2.226562 1.9375 -3.28125 C 1.320312 -4.34375 1.015625 -5.53125 1.015625 -6.84375 C 1.015625 -8.15625 1.320312 -9.335938 1.9375 -10.390625 C 2.5625 -11.453125 3.421875 -12.285156 4.515625 -12.890625 C 5.617188 -13.492188 6.847656 -13.796875 8.203125 -13.796875 C 9.566406 -13.796875 10.789062 -13.492188 11.875 -12.890625 C 12.957031 -12.296875 13.8125 -11.46875 14.4375 -10.40625 C 15.070312 -9.34375 15.390625 -8.15625 15.390625 -6.84375 C 15.390625 -5.53125 15.070312 -4.34375 14.4375 -3.28125 C 13.8125 -2.21875 12.957031 -1.382812 11.875 -0.78125 C 10.789062 -0.175781 9.566406 0.125 8.203125 0.125 Z M 8.203125 -1.171875 C 9.285156 -1.171875 10.265625 -1.414062 11.140625 -1.90625 C 12.015625 -2.394531 12.695312 -3.070312 13.1875 -3.9375 C 13.6875 -4.800781 13.9375 -5.769531 13.9375 -6.84375 C 13.9375 -7.90625 13.6875 -8.867188 13.1875 -9.734375 C 12.695312 -10.609375 12.015625 -11.289062 11.140625 -11.78125 C 10.265625 -12.269531 9.285156 -12.515625 8.203125 -12.515625 C 7.128906 -12.515625 6.148438 -12.269531 5.265625 -11.78125 C 4.390625 -11.289062 3.695312 -10.609375 3.1875 -9.734375 C 2.6875 -8.867188 2.4375 -7.90625 2.4375 -6.84375 C 2.4375 -5.769531 2.6875 -4.800781 3.1875 -3.9375 C 3.695312 -3.070312 4.390625 -2.394531 5.265625 -1.90625 C 6.148438 -1.414062 7.128906 -1.171875 8.203125 -1.171875 Z M 8.203125 -1.171875 "/></g></g></g><g fill="#ffffff" fill-opacity="1"><g transform="translate(111.693872, 334.323117)"><g/></g></g><g fill="#ffffff" fill-opacity="1"><g transform="translate(116.815776, 334.323117)"><g><path d="M 2.234375 -13.6875 L 7.796875 -13.6875 C 9.242188 -13.6875 10.519531 -13.394531 11.625 -12.8125 C 12.738281 -12.226562 13.597656 -11.414062 14.203125 -10.375 C 14.816406 -9.34375 15.125 -8.164062 15.125 -6.84375 C 15.125 -5.507812 14.816406 -4.320312 14.203125 -3.28125 C 13.597656 -2.25 12.738281 -1.441406 11.625 -0.859375 C 10.519531 -0.285156 9.242188 0 7.796875 0 L 2.234375 0 Z M 7.71875 -1.25 C 8.914062 -1.25 9.960938 -1.484375 10.859375 -1.953125 C 11.765625 -2.429688 12.460938 -3.09375 12.953125 -3.9375 C 13.453125 -4.78125 13.703125 -5.75 13.703125 -6.84375 C 13.703125 -7.9375 13.453125 -8.898438 12.953125 -9.734375 C 12.460938 -10.578125 11.765625 -11.238281 10.859375 -11.71875 C 9.960938 -12.195312 8.914062 -12.4375 7.71875 -12.4375 L 3.671875 -12.4375 L 3.671875 -1.25 Z M 7.71875 -1.25 "/></g></g></g><g fill="#ffffff" fill-opacity="1"><g transform="translate(132.963434, 334.323117)"><g><path d="M 11.90625 -1.25 L 11.90625 0 L 2.234375 0 L 2.234375 -13.6875 L 11.609375 -13.6875 L 11.609375 -12.4375 L 3.671875 -12.4375 L 3.671875 -7.5625 L 10.75 -7.5625 L 10.75 -6.328125 L 3.671875 -6.328125 L 3.671875 -1.25 Z M 11.90625 -1.25 "/></g></g></g><g fill="#ffffff" fill-opacity="1"><g transform="translate(146.041866, 334.323117)"><g/></g></g><g fill="#ffffff" fill-opacity="1"><g transform="translate(151.16377, 334.323117)"><g><path d="M 3.671875 -12.4375 L 3.671875 -7.0625 L 10.75 -7.0625 L 10.75 -5.8125 L 3.671875 -5.8125 L 3.671875 0 L 2.234375 0 L 2.234375 -13.6875 L 11.609375 -13.6875 L 11.609375 -12.4375 Z M 3.671875 -12.4375 "/></g></g></g><g fill="#ffffff" fill-opacity="1"><g transform="translate(163.538437, 334.323117)"><g><path d="M 8.203125 0.125 C 6.847656 0.125 5.617188 -0.175781 4.515625 -0.78125 C 3.421875 -1.394531 2.5625 -2.226562 1.9375 -3.28125 C 1.320312 -4.34375 1.015625 -5.53125 1.015625 -6.84375 C 1.015625 -8.15625 1.320312 -9.335938 1.9375 -10.390625 C 2.5625 -11.453125 3.421875 -12.285156 4.515625 -12.890625 C 5.617188 -13.492188 6.847656 -13.796875 8.203125 -13.796875 C 9.566406 -13.796875 10.789062 -13.492188 11.875 -12.890625 C 12.957031 -12.296875 13.8125 -11.46875 14.4375 -10.40625 C 15.070312 -9.34375 15.390625 -8.15625 15.390625 -6.84375 C 15.390625 -5.53125 15.070312 -4.34375 14.4375 -3.28125 C 13.8125 -2.21875 12.957031 -1.382812 11.875 -0.78125 C 10.789062 -0.175781 9.566406 0.125 8.203125 0.125 Z M 8.203125 -1.171875 C 9.285156 -1.171875 10.265625 -1.414062 11.140625 -1.90625 C 12.015625 -2.394531 12.695312 -3.070312 13.1875 -3.9375 C 13.6875 -4.800781 13.9375 -5.769531 13.9375 -6.84375 C 13.9375 -7.90625 13.6875 -8.867188 13.1875 -9.734375 C 12.695312 -10.609375 12.015625 -11.289062 11.140625 -11.78125 C 10.265625 -12.269531 9.285156 -12.515625 8.203125 -12.515625 C 7.128906 -12.515625 6.148438 -12.269531 5.265625 -11.78125 C 4.390625 -11.289062 3.695312 -10.609375 3.1875 -9.734375 C 2.6875 -8.867188 2.4375 -7.90625 2.4375 -6.84375 C 2.4375 -5.769531 2.6875 -4.800781 3.1875 -3.9375 C 3.695312 -3.070312 4.390625 -2.394531 5.265625 -1.90625 C 6.148438 -1.414062 7.128906 -1.171875 8.203125 -1.171875 Z M 8.203125 -1.171875 "/></g></g></g><g fill="#ffffff" fill-opacity="1"><g transform="translate(179.940236, 334.323117)"><g><path d="M 11.578125 0 L 8.4375 -4.390625 C 8.09375 -4.359375 7.726562 -4.34375 7.34375 -4.34375 L 3.671875 -4.34375 L 3.671875 0 L 2.234375 0 L 2.234375 -13.6875 L 7.34375 -13.6875 C 9.09375 -13.6875 10.460938 -13.269531 11.453125 -12.4375 C 12.441406 -11.601562 12.9375 -10.453125 12.9375 -8.984375 C 12.9375 -7.921875 12.664062 -7.019531 12.125 -6.28125 C 11.582031 -5.550781 10.8125 -5.019531 9.8125 -4.6875 L 13.15625 0 Z M 7.3125 -5.578125 C 8.664062 -5.578125 9.703125 -5.875 10.421875 -6.46875 C 11.140625 -7.070312 11.5 -7.910156 11.5 -8.984375 C 11.5 -10.097656 11.140625 -10.953125 10.421875 -11.546875 C 9.703125 -12.140625 8.664062 -12.4375 7.3125 -12.4375 L 3.671875 -12.4375 L 3.671875 -5.578125 Z M 7.3125 -5.578125 "/></g></g></g><g fill="#ffffff" fill-opacity="1"><g transform="translate(194.074336, 334.323117)"><g><path d="M 16.4375 -13.6875 L 16.4375 0 L 15.046875 0 L 15.046875 -10.953125 L 9.671875 -1.734375 L 8.984375 -1.734375 L 3.609375 -10.890625 L 3.609375 0 L 2.234375 0 L 2.234375 -13.6875 L 3.421875 -13.6875 L 9.359375 -3.53125 L 15.25 -13.6875 Z M 16.4375 -13.6875 "/></g></g></g><g fill="#ffffff" fill-opacity="1"><g transform="translate(212.743848, 334.323117)"><g><path d="M 10.8125 -3.65625 L 3.1875 -3.65625 L 1.546875 0 L 0.046875 0 L 6.296875 -13.6875 L 7.71875 -13.6875 L 13.96875 0 L 12.453125 0 Z M 10.28125 -4.828125 L 7 -12.171875 L 3.71875 -4.828125 Z M 10.28125 -4.828125 "/></g></g></g><g fill="#ffffff" fill-opacity="1"><g transform="translate(226.760647, 334.323117)"><g><path d="M 8.171875 0.125 C 6.816406 0.125 5.59375 -0.175781 4.5 -0.78125 C 3.414062 -1.382812 2.5625 -2.21875 1.9375 -3.28125 C 1.320312 -4.34375 1.015625 -5.53125 1.015625 -6.84375 C 1.015625 -8.15625 1.320312 -9.34375 1.9375 -10.40625 C 2.5625 -11.46875 3.421875 -12.296875 4.515625 -12.890625 C 5.609375 -13.492188 6.832031 -13.796875 8.1875 -13.796875 C 9.207031 -13.796875 10.144531 -13.625 11 -13.28125 C 11.863281 -12.945312 12.59375 -12.457031 13.1875 -11.8125 L 12.28125 -10.890625 C 11.207031 -11.972656 9.859375 -12.515625 8.234375 -12.515625 C 7.148438 -12.515625 6.164062 -12.265625 5.28125 -11.765625 C 4.394531 -11.273438 3.695312 -10.597656 3.1875 -9.734375 C 2.6875 -8.867188 2.4375 -7.90625 2.4375 -6.84375 C 2.4375 -5.769531 2.6875 -4.800781 3.1875 -3.9375 C 3.695312 -3.082031 4.394531 -2.40625 5.28125 -1.90625 C 6.164062 -1.414062 7.148438 -1.171875 8.234375 -1.171875 C 9.867188 -1.171875 11.21875 -1.71875 12.28125 -2.8125 L 13.1875 -1.890625 C 12.59375 -1.242188 11.859375 -0.742188 10.984375 -0.390625 C 10.117188 -0.046875 9.179688 0.125 8.171875 0.125 Z M 7.46875 4.296875 C 6.832031 4.296875 6.285156 4.144531 5.828125 3.84375 L 6.15625 3.109375 C 6.539062 3.359375 6.972656 3.484375 7.453125 3.484375 C 7.835938 3.484375 8.132812 3.40625 8.34375 3.25 C 8.550781 3.09375 8.65625 2.863281 8.65625 2.5625 C 8.65625 2.289062 8.554688 2.070312 8.359375 1.90625 C 8.160156 1.738281 7.859375 1.65625 7.453125 1.65625 L 7 1.65625 L 7.46875 -0.125 L 8.3125 -0.125 L 8.015625 1.015625 C 8.546875 1.066406 8.957031 1.234375 9.25 1.515625 C 9.539062 1.796875 9.6875 2.15625 9.6875 2.59375 C 9.6875 3.113281 9.484375 3.523438 9.078125 3.828125 C 8.671875 4.140625 8.132812 4.296875 7.46875 4.296875 Z M 7.46875 4.296875 "/></g></g></g><g fill="#ffffff" fill-opacity="1"><g transform="translate(240.816536, 334.323117)"><g><path d="M 10.8125 -3.65625 L 3.1875 -3.65625 L 1.546875 0 L 0.046875 0 L 6.296875 -13.6875 L 7.71875 -13.6875 L 13.96875 0 L 12.453125 0 Z M 10.28125 -4.828125 L 7 -12.171875 L 3.71875 -4.828125 Z M 8.34375 -14.921875 C 8.039062 -14.921875 7.769531 -14.988281 7.53125 -15.125 C 7.300781 -15.257812 7.050781 -15.453125 6.78125 -15.703125 C 6.539062 -15.890625 6.351562 -16.023438 6.21875 -16.109375 C 6.082031 -16.203125 5.9375 -16.25 5.78125 -16.25 C 5.476562 -16.25 5.234375 -16.132812 5.046875 -15.90625 C 4.867188 -15.6875 4.773438 -15.382812 4.765625 -15 L 3.921875 -15 C 3.953125 -15.644531 4.125 -16.160156 4.4375 -16.546875 C 4.75 -16.941406 5.164062 -17.140625 5.6875 -17.140625 C 5.976562 -17.140625 6.238281 -17.070312 6.46875 -16.9375 C 6.695312 -16.8125 6.960938 -16.617188 7.265625 -16.359375 C 7.472656 -16.179688 7.644531 -16.046875 7.78125 -15.953125 C 7.925781 -15.859375 8.082031 -15.8125 8.25 -15.8125 C 8.53125 -15.8125 8.757812 -15.914062 8.9375 -16.125 C 9.125 -16.34375 9.234375 -16.644531 9.265625 -17.03125 L 10.09375 -17.03125 C 10.070312 -16.382812 9.90625 -15.867188 9.59375 -15.484375 C 9.28125 -15.109375 8.863281 -14.921875 8.34375 -14.921875 Z M 8.34375 -14.921875 "/></g></g></g><g fill="#ffffff" fill-opacity="1"><g transform="translate(254.833335, 334.323117)"><g><path d="M 8.203125 0.125 C 6.847656 0.125 5.617188 -0.175781 4.515625 -0.78125 C 3.421875 -1.394531 2.5625 -2.226562 1.9375 -3.28125 C 1.320312 -4.34375 1.015625 -5.53125 1.015625 -6.84375 C 1.015625 -8.15625 1.320312 -9.335938 1.9375 -10.390625 C 2.5625 -11.453125 3.421875 -12.285156 4.515625 -12.890625 C 5.617188 -13.492188 6.847656 -13.796875 8.203125 -13.796875 C 9.566406 -13.796875 10.789062 -13.492188 11.875 -12.890625 C 12.957031 -12.296875 13.8125 -11.46875 14.4375 -10.40625 C 15.070312 -9.34375 15.390625 -8.15625 15.390625 -6.84375 C 15.390625 -5.53125 15.070312 -4.34375 14.4375 -3.28125 C 13.8125 -2.21875 12.957031 -1.382812 11.875 -0.78125 C 10.789062 -0.175781 9.566406 0.125 8.203125 0.125 Z M 8.203125 -1.171875 C 9.285156 -1.171875 10.265625 -1.414062 11.140625 -1.90625 C 12.015625 -2.394531 12.695312 -3.070312 13.1875 -3.9375 C 13.6875 -4.800781 13.9375 -5.769531 13.9375 -6.84375 C 13.9375 -7.90625 13.6875 -8.867188 13.1875 -9.734375 C 12.695312 -10.609375 12.015625 -11.289062 11.140625 -11.78125 C 10.265625 -12.269531 9.285156 -12.515625 8.203125 -12.515625 C 7.128906 -12.515625 6.148438 -12.269531 5.265625 -11.78125 C 4.390625 -11.289062 3.695312 -10.609375 3.1875 -9.734375 C 2.6875 -8.867188 2.4375 -7.90625 2.4375 -6.84375 C 2.4375 -5.769531 2.6875 -4.800781 3.1875 -3.9375 C 3.695312 -3.070312 4.390625 -2.394531 5.265625 -1.90625 C 6.148438 -1.414062 7.128906 -1.171875 8.203125 -1.171875 Z M 8.203125 -1.171875 "/></g></g></g><g fill="#ffffff" fill-opacity="1"><g transform="translate(271.23512, 334.323117)"><g/></g></g><g fill="#ffffff" fill-opacity="1"><g transform="translate(276.357038, 334.323117)"><g><path d="M 4.890625 -12.4375 L 0.078125 -12.4375 L 0.078125 -13.6875 L 11.140625 -13.6875 L 11.140625 -12.4375 L 6.328125 -12.4375 L 6.328125 0 L 4.890625 0 Z M 4.890625 -12.4375 "/></g></g></g><g fill="#ffffff" fill-opacity="1"><g transform="translate(287.578275, 334.323117)"><g><path d="M 11.90625 -1.25 L 11.90625 0 L 2.234375 0 L 2.234375 -13.6875 L 11.609375 -13.6875 L 11.609375 -12.4375 L 3.671875 -12.4375 L 3.671875 -7.5625 L 10.75 -7.5625 L 10.75 -6.328125 L 3.671875 -6.328125 L 3.671875 -1.25 Z M 11.90625 -1.25 "/></g></g></g><g fill="#ffffff" fill-opacity="1"><g transform="translate(300.656693, 334.323117)"><g><path d="M 8.203125 0.125 C 6.847656 0.125 5.617188 -0.175781 4.515625 -0.78125 C 3.421875 -1.394531 2.5625 -2.226562 1.9375 -3.28125 C 1.320312 -4.34375 1.015625 -5.53125 1.015625 -6.84375 C 1.015625 -8.15625 1.320312 -9.335938 1.9375 -10.390625 C 2.5625 -11.453125 3.421875 -12.285156 4.515625 -12.890625 C 5.617188 -13.492188 6.847656 -13.796875 8.203125 -13.796875 C 9.566406 -13.796875 10.789062 -13.492188 11.875 -12.890625 C 12.957031 -12.296875 13.8125 -11.46875 14.4375 -10.40625 C 15.070312 -9.34375 15.390625 -8.15625 15.390625 -6.84375 C 15.390625 -5.53125 15.070312 -4.34375 14.4375 -3.28125 C 13.8125 -2.21875 12.957031 -1.382812 11.875 -0.78125 C 10.789062 -0.175781 9.566406 0.125 8.203125 0.125 Z M 8.203125 -1.171875 C 9.285156 -1.171875 10.265625 -1.414062 11.140625 -1.90625 C 12.015625 -2.394531 12.695312 -3.070312 13.1875 -3.9375 C 13.6875 -4.800781 13.9375 -5.769531 13.9375 -6.84375 C 13.9375 -7.90625 13.6875 -8.867188 13.1875 -9.734375 C 12.695312 -10.609375 12.015625 -11.289062 11.140625 -11.78125 C 10.265625 -12.269531 9.285156 -12.515625 8.203125 -12.515625 C 7.128906 -12.515625 6.148438 -12.269531 5.265625 -11.78125 C 4.390625 -11.289062 3.695312 -10.609375 3.1875 -9.734375 C 2.6875 -8.867188 2.4375 -7.90625 2.4375 -6.84375 C 2.4375 -5.769531 2.6875 -4.800781 3.1875 -3.9375 C 3.695312 -3.070312 4.390625 -2.394531 5.265625 -1.90625 C 6.148438 -1.414062 7.128906 -1.171875 8.203125 -1.171875 Z M 8.203125 -1.171875 "/></g></g></g><g fill="#ffffff" fill-opacity="1"><g transform="translate(317.058478, 334.323117)"><g><path d="M 2.234375 -13.6875 L 3.671875 -13.6875 L 3.671875 -1.25 L 11.34375 -1.25 L 11.34375 0 L 2.234375 0 Z M 2.234375 -13.6875 "/></g></g></g><g fill="#ffffff" fill-opacity="1"><g transform="translate(328.572975, 334.323117)"><g><path d="M 8.203125 0.125 C 6.847656 0.125 5.617188 -0.175781 4.515625 -0.78125 C 3.421875 -1.394531 2.5625 -2.226562 1.9375 -3.28125 C 1.320312 -4.34375 1.015625 -5.53125 1.015625 -6.84375 C 1.015625 -8.15625 1.320312 -9.335938 1.9375 -10.390625 C 2.5625 -11.453125 3.421875 -12.285156 4.515625 -12.890625 C 5.617188 -13.492188 6.847656 -13.796875 8.203125 -13.796875 C 9.566406 -13.796875 10.789062 -13.492188 11.875 -12.890625 C 12.957031 -12.296875 13.8125 -11.46875 14.4375 -10.40625 C 15.070312 -9.34375 15.390625 -8.15625 15.390625 -6.84375 C 15.390625 -5.53125 15.070312 -4.34375 14.4375 -3.28125 C 13.8125 -2.21875 12.957031 -1.382812 11.875 -0.78125 C 10.789062 -0.175781 9.566406 0.125 8.203125 0.125 Z M 8.203125 -1.171875 C 9.285156 -1.171875 10.265625 -1.414062 11.140625 -1.90625 C 12.015625 -2.394531 12.695312 -3.070312 13.1875 -3.9375 C 13.6875 -4.800781 13.9375 -5.769531 13.9375 -6.84375 C 13.9375 -7.90625 13.6875 -8.867188 13.1875 -9.734375 C 12.695312 -10.609375 12.015625 -11.289062 11.140625 -11.78125 C 10.265625 -12.269531 9.285156 -12.515625 8.203125 -12.515625 C 7.128906 -12.515625 6.148438 -12.269531 5.265625 -11.78125 C 4.390625 -11.289062 3.695312 -10.609375 3.1875 -9.734375 C 2.6875 -8.867188 2.4375 -7.90625 2.4375 -6.84375 C 2.4375 -5.769531 2.6875 -4.800781 3.1875 -3.9375 C 3.695312 -3.070312 4.390625 -2.394531 5.265625 -1.90625 C 6.148438 -1.414062 7.128906 -1.171875 8.203125 -1.171875 Z M 9.625 -17.21875 L 11.484375 -17.21875 L 8.3125 -14.796875 L 6.9375 -14.796875 Z M 9.625 -17.21875 "/></g></g></g><g fill="#ffffff" fill-opacity="1"><g transform="translate(344.97476, 334.323117)"><g><path d="M 11.859375 -6.84375 L 13.25 -6.84375 L 13.25 -1.625 C 12.613281 -1.0625 11.859375 -0.628906 10.984375 -0.328125 C 10.109375 -0.0234375 9.191406 0.125 8.234375 0.125 C 6.859375 0.125 5.625 -0.175781 4.53125 -0.78125 C 3.4375 -1.382812 2.578125 -2.21875 1.953125 -3.28125 C 1.328125 -4.34375 1.015625 -5.53125 1.015625 -6.84375 C 1.015625 -8.15625 1.328125 -9.34375 1.953125 -10.40625 C 2.578125 -11.46875 3.4375 -12.296875 4.53125 -12.890625 C 5.625 -13.492188 6.863281 -13.796875 8.25 -13.796875 C 9.289062 -13.796875 10.25 -13.628906 11.125 -13.296875 C 12 -12.960938 12.734375 -12.472656 13.328125 -11.828125 L 12.4375 -10.90625 C 11.351562 -11.976562 9.976562 -12.515625 8.3125 -12.515625 C 7.195312 -12.515625 6.191406 -12.269531 5.296875 -11.78125 C 4.410156 -11.289062 3.710938 -10.609375 3.203125 -9.734375 C 2.691406 -8.867188 2.4375 -7.90625 2.4375 -6.84375 C 2.4375 -5.769531 2.691406 -4.800781 3.203125 -3.9375 C 3.710938 -3.082031 4.410156 -2.40625 5.296875 -1.90625 C 6.179688 -1.414062 7.175781 -1.171875 8.28125 -1.171875 C 9.695312 -1.171875 10.890625 -1.523438 11.859375 -2.234375 Z M 11.859375 -6.84375 "/></g></g></g><g fill="#ffffff" fill-opacity="1"><g transform="translate(360.086303, 334.323117)"><g><path d="M 2.234375 -13.6875 L 3.671875 -13.6875 L 3.671875 0 L 2.234375 0 Z M 2.234375 -13.6875 "/></g></g></g><g fill="#ffffff" fill-opacity="1"><g transform="translate(365.990154, 334.323117)"><g><path d="M 10.8125 -3.65625 L 3.1875 -3.65625 L 1.546875 0 L 0.046875 0 L 6.296875 -13.6875 L 7.71875 -13.6875 L 13.96875 0 L 12.453125 0 Z M 10.28125 -4.828125 L 7 -12.171875 L 3.71875 -4.828125 Z M 10.28125 -4.828125 "/></g></g></g><g fill="#ffffff" fill-opacity="1"><g transform="translate(380.006952, 334.323117)"><g/></g></g><g fill="#ffffff" fill-opacity="1"><g transform="translate(385.128842, 334.323117)"><g><path d="M 2.234375 -13.6875 L 7.796875 -13.6875 C 9.242188 -13.6875 10.519531 -13.394531 11.625 -12.8125 C 12.738281 -12.226562 13.597656 -11.414062 14.203125 -10.375 C 14.816406 -9.34375 15.125 -8.164062 15.125 -6.84375 C 15.125 -5.507812 14.816406 -4.320312 14.203125 -3.28125 C 13.597656 -2.25 12.738281 -1.441406 11.625 -0.859375 C 10.519531 -0.285156 9.242188 0 7.796875 0 L 2.234375 0 Z M 7.71875 -1.25 C 8.914062 -1.25 9.960938 -1.484375 10.859375 -1.953125 C 11.765625 -2.429688 12.460938 -3.09375 12.953125 -3.9375 C 13.453125 -4.78125 13.703125 -5.75 13.703125 -6.84375 C 13.703125 -7.9375 13.453125 -8.898438 12.953125 -9.734375 C 12.460938 -10.578125 11.765625 -11.238281 10.859375 -11.71875 C 9.960938 -12.195312 8.914062 -12.4375 7.71875 -12.4375 L 3.671875 -12.4375 L 3.671875 -1.25 Z M 7.71875 -1.25 "/></g></g></g><g fill="#ffffff" fill-opacity="1"><g transform="translate(401.276501, 334.323117)"><g><path d="M 10.8125 -3.65625 L 3.1875 -3.65625 L 1.546875 0 L 0.046875 0 L 6.296875 -13.6875 L 7.71875 -13.6875 L 13.96875 0 L 12.453125 0 Z M 10.28125 -4.828125 L 7 -12.171875 L 3.71875 -4.828125 Z M 10.28125 -4.828125 "/></g></g></g><g fill="#ffffff" fill-opacity="1"><g transform="translate(415.293299, 334.323117)"><g/></g></g><g fill="#ffffff" fill-opacity="1"><g transform="translate(420.415217, 334.323117)"><g><path d="M 2.234375 -13.6875 L 3.671875 -13.6875 L 3.671875 0 L 2.234375 0 Z M 2.234375 -13.6875 "/></g></g></g><g fill="#ffffff" fill-opacity="1"><g transform="translate(426.319068, 334.323117)"><g><path d="M 11.859375 -6.84375 L 13.25 -6.84375 L 13.25 -1.625 C 12.613281 -1.0625 11.859375 -0.628906 10.984375 -0.328125 C 10.109375 -0.0234375 9.191406 0.125 8.234375 0.125 C 6.859375 0.125 5.625 -0.175781 4.53125 -0.78125 C 3.4375 -1.382812 2.578125 -2.21875 1.953125 -3.28125 C 1.328125 -4.34375 1.015625 -5.53125 1.015625 -6.84375 C 1.015625 -8.15625 1.328125 -9.34375 1.953125 -10.40625 C 2.578125 -11.46875 3.4375 -12.296875 4.53125 -12.890625 C 5.625 -13.492188 6.863281 -13.796875 8.25 -13.796875 C 9.289062 -13.796875 10.25 -13.628906 11.125 -13.296875 C 12 -12.960938 12.734375 -12.472656 13.328125 -11.828125 L 12.4375 -10.90625 C 11.351562 -11.976562 9.976562 -12.515625 8.3125 -12.515625 C 7.195312 -12.515625 6.191406 -12.269531 5.296875 -11.78125 C 4.410156 -11.289062 3.710938 -10.609375 3.203125 -9.734375 C 2.691406 -8.867188 2.4375 -7.90625 2.4375 -6.84375 C 2.4375 -5.769531 2.691406 -4.800781 3.203125 -3.9375 C 3.710938 -3.082031 4.410156 -2.40625 5.296875 -1.90625 C 6.179688 -1.414062 7.175781 -1.171875 8.28125 -1.171875 C 9.695312 -1.171875 10.890625 -1.523438 11.859375 -2.234375 Z M 11.859375 -6.84375 "/></g></g></g><g fill="#ffffff" fill-opacity="1"><g transform="translate(441.430611, 334.323117)"><g><path d="M 11.578125 0 L 8.4375 -4.390625 C 8.09375 -4.359375 7.726562 -4.34375 7.34375 -4.34375 L 3.671875 -4.34375 L 3.671875 0 L 2.234375 0 L 2.234375 -13.6875 L 7.34375 -13.6875 C 9.09375 -13.6875 10.460938 -13.269531 11.453125 -12.4375 C 12.441406 -11.601562 12.9375 -10.453125 12.9375 -8.984375 C 12.9375 -7.921875 12.664062 -7.019531 12.125 -6.28125 C 11.582031 -5.550781 10.8125 -5.019531 9.8125 -4.6875 L 13.15625 0 Z M 7.3125 -5.578125 C 8.664062 -5.578125 9.703125 -5.875 10.421875 -6.46875 C 11.140625 -7.070312 11.5 -7.910156 11.5 -8.984375 C 11.5 -10.097656 11.140625 -10.953125 10.421875 -11.546875 C 9.703125 -12.140625 8.664062 -12.4375 7.3125 -12.4375 L 3.671875 -12.4375 L 3.671875 -5.578125 Z M 7.3125 -5.578125 "/></g></g></g><g fill="#ffffff" fill-opacity="1"><g transform="translate(455.564697, 334.323117)"><g><path d="M 11.90625 -1.25 L 11.90625 0 L 2.234375 0 L 2.234375 -13.6875 L 11.609375 -13.6875 L 11.609375 -12.4375 L 3.671875 -12.4375 L 3.671875 -7.5625 L 10.75 -7.5625 L 10.75 -6.328125 L 3.671875 -6.328125 L 3.671875 -1.25 Z M 11.90625 -1.25 "/></g></g></g><g fill="#ffffff" fill-opacity="1"><g transform="translate(468.643115, 334.323117)"><g><path d="M 3.6875 0.125 C 2.90625 0.125 2.179688 -0.046875 1.515625 -0.390625 C 0.859375 -0.734375 0.320312 -1.21875 -0.09375 -1.84375 L 0.765625 -2.8125 C 1.515625 -1.695312 2.5 -1.140625 3.71875 -1.140625 C 5.40625 -1.140625 6.25 -2.140625 6.25 -4.140625 L 6.25 -12.4375 L 1.25 -12.4375 L 1.25 -13.6875 L 7.6875 -13.6875 L 7.6875 -4.203125 C 7.6875 -2.765625 7.347656 -1.679688 6.671875 -0.953125 C 6.003906 -0.234375 5.007812 0.125 3.6875 0.125 Z M 3.6875 0.125 "/></g></g></g><g fill="#ffffff" fill-opacity="1"><g transform="translate(478.437271, 334.323117)"><g><path d="M 10.8125 -3.65625 L 3.1875 -3.65625 L 1.546875 0 L 0.046875 0 L 6.296875 -13.6875 L 7.71875 -13.6875 L 13.96875 0 L 12.453125 0 Z M 10.28125 -4.828125 L 7 -12.171875 L 3.71875 -4.828125 Z M 10.28125 -4.828125 "/></g></g></g><g fill="#ffffff" fill-opacity="1"><g transform="translate(492.454069, 334.323117)"><g/></g></g><g fill="#ffffff" fill-opacity="1"><g transform="translate(497.575959, 334.323117)"><g><path d="M 13.65625 -13.6875 L 13.65625 0 L 12.46875 0 L 3.671875 -11.109375 L 3.671875 0 L 2.234375 0 L 2.234375 -13.6875 L 3.421875 -13.6875 L 12.234375 -2.578125 L 12.234375 -13.6875 Z M 13.65625 -13.6875 "/></g></g></g><g fill="#ffffff" fill-opacity="1"><g transform="translate(513.469491, 334.323117)"><g><path d="M 8.203125 0.125 C 6.847656 0.125 5.617188 -0.175781 4.515625 -0.78125 C 3.421875 -1.394531 2.5625 -2.226562 1.9375 -3.28125 C 1.320312 -4.34375 1.015625 -5.53125 1.015625 -6.84375 C 1.015625 -8.15625 1.320312 -9.335938 1.9375 -10.390625 C 2.5625 -11.453125 3.421875 -12.285156 4.515625 -12.890625 C 5.617188 -13.492188 6.847656 -13.796875 8.203125 -13.796875 C 9.566406 -13.796875 10.789062 -13.492188 11.875 -12.890625 C 12.957031 -12.296875 13.8125 -11.46875 14.4375 -10.40625 C 15.070312 -9.34375 15.390625 -8.15625 15.390625 -6.84375 C 15.390625 -5.53125 15.070312 -4.34375 14.4375 -3.28125 C 13.8125 -2.21875 12.957031 -1.382812 11.875 -0.78125 C 10.789062 -0.175781 9.566406 0.125 8.203125 0.125 Z M 8.203125 -1.171875 C 9.285156 -1.171875 10.265625 -1.414062 11.140625 -1.90625 C 12.015625 -2.394531 12.695312 -3.070312 13.1875 -3.9375 C 13.6875 -4.800781 13.9375 -5.769531 13.9375 -6.84375 C 13.9375 -7.90625 13.6875 -8.867188 13.1875 -9.734375 C 12.695312 -10.609375 12.015625 -11.289062 11.140625 -11.78125 C 10.265625 -12.269531 9.285156 -12.515625 8.203125 -12.515625 C 7.128906 -12.515625 6.148438 -12.269531 5.265625 -11.78125 C 4.390625 -11.289062 3.695312 -10.609375 3.1875 -9.734375 C 2.6875 -8.867188 2.4375 -7.90625 2.4375 -6.84375 C 2.4375 -5.769531 2.6875 -4.800781 3.1875 -3.9375 C 3.695312 -3.070312 4.390625 -2.394531 5.265625 -1.90625 C 6.148438 -1.414062 7.128906 -1.171875 8.203125 -1.171875 Z M 8.203125 -1.171875 "/></g></g></g><g fill="#ffffff" fill-opacity="1"><g transform="translate(529.871276, 334.323117)"><g><path d="M 13.609375 -13.6875 L 7.546875 0 L 6.125 0 L 0.0625 -13.6875 L 1.625 -13.6875 L 6.859375 -1.796875 L 12.140625 -13.6875 Z M 13.609375 -13.6875 "/></g></g></g><g fill="#ffffff" fill-opacity="1"><g transform="translate(543.516633, 334.323117)"><g><path d="M 10.8125 -3.65625 L 3.1875 -3.65625 L 1.546875 0 L 0.046875 0 L 6.296875 -13.6875 L 7.71875 -13.6875 L 13.96875 0 L 12.453125 0 Z M 10.28125 -4.828125 L 7 -12.171875 L 3.71875 -4.828125 Z M 10.28125 -4.828125 "/></g></g></g><g fill="#ffffff" fill-opacity="1"><g transform="translate(557.533404, 334.323117)"><g/></g></g><g fill="#ffffff" fill-opacity="1"><g transform="translate(562.655322, 334.323117)"><g><path d="M 3.671875 -12.4375 L 3.671875 -7.0625 L 10.75 -7.0625 L 10.75 -5.8125 L 3.671875 -5.8125 L 3.671875 0 L 2.234375 0 L 2.234375 -13.6875 L 11.609375 -13.6875 L 11.609375 -12.4375 Z M 3.671875 -12.4375 "/></g></g></g><g fill="#ffffff" fill-opacity="1"><g transform="translate(575.029961, 334.323117)"><g><path d="M 2.234375 -13.6875 L 3.671875 -13.6875 L 3.671875 0 L 2.234375 0 Z M 2.234375 -13.6875 "/></g></g></g><g fill="#ffffff" fill-opacity="1"><g transform="translate(580.933812, 334.323117)"><g><path d="M 2.234375 -13.6875 L 3.671875 -13.6875 L 3.671875 -1.25 L 11.34375 -1.25 L 11.34375 0 L 2.234375 0 Z M 2.234375 -13.6875 "/></g></g></g><g fill="#ffffff" fill-opacity="1"><g transform="translate(592.448309, 334.323117)"><g><path d="M 10.8125 -3.65625 L 3.1875 -3.65625 L 1.546875 0 L 0.046875 0 L 6.296875 -13.6875 L 7.71875 -13.6875 L 13.96875 0 L 12.453125 0 Z M 10.28125 -4.828125 L 7 -12.171875 L 3.71875 -4.828125 Z M 10.28125 -4.828125 "/></g></g></g><g fill="#ffffff" fill-opacity="1"><g transform="translate(606.465135, 334.323117)"><g><path d="M 2.234375 -13.6875 L 7.796875 -13.6875 C 9.242188 -13.6875 10.519531 -13.394531 11.625 -12.8125 C 12.738281 -12.226562 13.597656 -11.414062 14.203125 -10.375 C 14.816406 -9.34375 15.125 -8.164062 15.125 -6.84375 C 15.125 -5.507812 14.816406 -4.320312 14.203125 -3.28125 C 13.597656 -2.25 12.738281 -1.441406 11.625 -0.859375 C 10.519531 -0.285156 9.242188 0 7.796875 0 L 2.234375 0 Z M 7.71875 -1.25 C 8.914062 -1.25 9.960938 -1.484375 10.859375 -1.953125 C 11.765625 -2.429688 12.460938 -3.09375 12.953125 -3.9375 C 13.453125 -4.78125 13.703125 -5.75 13.703125 -6.84375 C 13.703125 -7.9375 13.453125 -8.898438 12.953125 -9.734375 C 12.460938 -10.578125 11.765625 -11.238281 10.859375 -11.71875 C 9.960938 -12.195312 8.914062 -12.4375 7.71875 -12.4375 L 3.671875 -12.4375 L 3.671875 -1.25 Z M 7.71875 -1.25 "/></g></g></g><g fill="#ffffff" fill-opacity="1"><g transform="translate(622.612765, 334.323117)"><g><path d="M 11.90625 -1.25 L 11.90625 0 L 2.234375 0 L 2.234375 -13.6875 L 11.609375 -13.6875 L 11.609375 -12.4375 L 3.671875 -12.4375 L 3.671875 -7.5625 L 10.75 -7.5625 L 10.75 -6.328125 L 3.671875 -6.328125 L 3.671875 -1.25 Z M 8.34375 -17.21875 L 10.203125 -17.21875 L 7.03125 -14.796875 L 5.65625 -14.796875 Z M 8.34375 -17.21875 "/></g></g></g><g fill="#ffffff" fill-opacity="1"><g transform="translate(635.691183, 334.323117)"><g><path d="M 2.234375 -13.6875 L 3.671875 -13.6875 L 3.671875 -1.25 L 11.34375 -1.25 L 11.34375 0 L 2.234375 0 Z M 2.234375 -13.6875 "/></g></g></g><g fill="#ffffff" fill-opacity="1"><g transform="translate(647.20568, 334.323117)"><g><path d="M 3.671875 -12.4375 L 3.671875 -7.0625 L 10.75 -7.0625 L 10.75 -5.8125 L 3.671875 -5.8125 L 3.671875 0 L 2.234375 0 L 2.234375 -13.6875 L 11.609375 -13.6875 L 11.609375 -12.4375 Z M 3.671875 -12.4375 "/></g></g></g><g fill="#ffffff" fill-opacity="1"><g transform="translate(659.580376, 334.323117)"><g><path d="M 2.234375 -13.6875 L 3.671875 -13.6875 L 3.671875 0 L 2.234375 0 Z M 2.234375 -13.6875 "/></g></g></g><g fill="#ffffff" fill-opacity="1"><g transform="translate(665.484227, 334.323117)"><g><path d="M 10.8125 -3.65625 L 3.1875 -3.65625 L 1.546875 0 L 0.046875 0 L 6.296875 -13.6875 L 7.71875 -13.6875 L 13.96875 0 L 12.453125 0 Z M 10.28125 -4.828125 L 7 -12.171875 L 3.71875 -4.828125 Z M 10.28125 -4.828125 "/></g></g></g><path fill="#ffffff" d="M 318.488281 4.496094 C 318.273438 5.085938 317.996094 14.050781 317.875 24.414062 L 317.65625 43.261719 L 287.671875 43.691406 L 257.6875 44.117188 L 257.6875 58.683594 L 287.671875 59.109375 L 317.65625 59.539062 L 317.875 119.320312 C 318.070312 172.570312 318.242188 179.15625 319.433594 179.617188 C 320.167969 179.898438 321.609375 179.71875 322.640625 179.21875 C 326.179688 177.496094 333.640625 176.273438 338.257812 176.65625 C 341.90625 176.960938 344.382812 177.949219 349.972656 181.347656 C 359.253906 186.988281 364.730469 188.757812 371.488281 188.300781 C 378.21875 187.847656 382.800781 185.625 385.355469 181.578125 C 387.242188 178.585938 391.289062 166.464844 395.351562 151.628906 C 399.695312 135.773438 408.851562 100.914062 409.75 96.804688 C 410.691406 92.507812 413.8125 80.507812 416.324219 71.53125 C 417.507812 67.292969 418.800781 62.085938 419.191406 59.96875 C 419.582031 57.847656 420.453125 54.570312 421.125 52.683594 C 421.796875 50.800781 422.613281 47.8125 422.941406 46.046875 C 423.304688 44.078125 424.015625 42.832031 424.777344 42.832031 C 426.464844 42.832031 426.367188 43.894531 423.902344 52.300781 C 422.734375 56.28125 421.769531 60.105469 421.757812 60.800781 C 421.75 61.492188 420.992188 64.578125 420.074219 67.652344 C 419.160156 70.726562 416.613281 80.570312 414.417969 89.523438 C 412.21875 98.472656 409.507812 109.269531 408.386719 113.507812 C 407.261719 117.75 405.53125 124.304688 404.539062 128.074219 C 401.136719 140.996094 394.960938 162.554688 393.039062 168.21875 C 391.085938 173.972656 390.378906 180.21875 391.734375 179.765625 C 393.863281 179.054688 400.753906 158.535156 408.945312 128.5 C 411.734375 118.269531 419.246094 89.976562 421.796875 80.097656 C 422.769531 76.328125 424.304688 70.738281 425.203125 67.675781 C 426.105469 64.613281 427.480469 59.410156 428.261719 56.113281 C 429.839844 49.433594 431.386719 46.996094 433.015625 48.625 C 434.078125 49.6875 433.027344 54.507812 429.332031 65.535156 C 428.382812 68.363281 427.253906 72.410156 426.8125 74.53125 C 426.375 76.652344 425.078125 81.46875 423.925781 85.238281 C 422.777344 89.007812 420.109375 98.261719 418.003906 105.796875 C 415.894531 113.335938 413.164062 122.78125 411.933594 126.789062 C 410.464844 131.570312 409.015625 136.355469 407.582031 141.144531 C 406.417969 145.039062 403.535156 154.078125 401.179688 161.230469 C 396.894531 174.222656 396.550781 178.792969 400.328125 172.460938 C 402.304688 169.144531 406.398438 158.652344 408.457031 151.628906 C 409.082031 149.511719 410.359375 145.65625 411.304688 143.0625 C 412.246094 140.472656 414.210938 134.402344 415.664062 129.570312 C 417.121094 124.742188 419.457031 117.03125 420.851562 112.4375 C 422.46875 107.089844 424.0625 101.738281 425.632812 96.375 C 429.316406 83.726562 431.851562 75.289062 433.734375 69.390625 C 434.714844 66.328125 435.984375 62.085938 436.550781 59.96875 C 437.347656 57.011719 438.039062 56.046875 439.515625 55.835938 C 441.960938 55.492188 441.945312 55.703125 438.953125 64.808594 C 437.582031 68.976562 435.234375 76.628906 433.738281 81.8125 C 431.867188 88.25 429.957031 94.671875 428.007812 101.085938 L 423.300781 116.507812 C 419.75 128.15625 410.667969 155.78125 408.121094 162.683594 C 405.230469 170.515625 404.890625 172.523438 406.535156 171.980469 C 408.671875 171.28125 419.078125 145.867188 423.015625 131.734375 C 423.636719 129.507812 425.097656 125.078125 426.257812 121.882812 C 427.421875 118.691406 429.609375 111.839844 431.117188 106.65625 C 432.625 101.472656 434.453125 95.882812 435.175781 94.234375 C 435.894531 92.585938 437.179688 88.730469 438.027344 85.667969 C 440.820312 75.5625 443.691406 66.417969 444.617188 64.679688 C 445.117188 63.734375 446.324219 60.476562 447.296875 57.433594 C 449.386719 50.90625 448.84375 49.6875 443.839844 49.6875 C 440.492188 49.6875 440.457031 49.65625 441.039062 47.011719 C 441.746094 43.785156 440.65625 42.863281 436.089844 42.847656 C 433.3125 42.835938 432.878906 42.566406 432.878906 40.863281 C 432.878906 38.230469 431.335938 36.835938 428.421875 36.835938 C 426.363281 36.835938 426.023438 36.496094 426.023438 34.425781 L 426.023438 32.015625 L 416.816406 31.039062 C 405.875 29.882812 398.0625 27.492188 385.359375 21.417969 C 373.730469 15.859375 370.464844 14.691406 363.933594 13.78125 C 354.5 12.460938 342.832031 15.371094 335.859375 20.78125 L 332.648438 23.273438 L 332.648438 14.378906 C 332.648438 8.601562 332.285156 5.121094 331.621094 4.453125 C 330.203125 3.039062 319.015625 3.074219 318.488281 4.496094 M 322.367188 26.878906 C 322.367188 41.832031 322.117188 46.257812 321.222656 47 C 320.445312 47.644531 310.75 48.023438 291.117188 48.175781 C 265.554688 48.375 262.054688 48.5625 261.285156 49.785156 C 260.808594 50.546875 260.65625 51.796875 260.953125 52.570312 C 261.4375 53.828125 264.5 53.96875 291.402344 53.96875 L 321.3125 53.96875 L 321.828125 55.898438 C 322.109375 56.957031 322.347656 84.375 322.355469 116.820312 L 322.367188 175.816406 L 324.296875 175.347656 C 326.226562 174.871094 328.152344 174.382812 330.078125 173.886719 C 335.921875 172.382812 345.511719 173.234375 349.484375 175.605469 C 361.207031 182.613281 361.863281 182.855469 369.054688 182.855469 C 377.925781 182.855469 379.964844 181.597656 381.929688 174.917969 C 382.71875 172.238281 383.707031 169.277344 384.125 168.335938 C 384.546875 167.394531 386.460938 160.855469 388.378906 153.8125 C 390.300781 146.765625 392.011719 140.773438 392.183594 140.496094 C 392.578125 139.859375 399.328125 114.640625 400.324219 110.082031 C 400.734375 108.199219 402.855469 99.714844 405.03125 91.234375 C 407.207031 82.753906 409.109375 75.042969 409.253906 74.101562 C 409.402344 73.160156 409.753906 71.808594 410.035156 71.105469 C 410.316406 70.398438 411.492188 65.964844 412.644531 61.253906 C 413.796875 56.539062 415.5625 49.636719 416.570312 45.910156 C 417.574219 42.1875 418.21875 38.679688 418.003906 38.117188 C 417.78125 37.539062 415.070312 36.882812 411.753906 36.605469 C 403.695312 35.921875 394.789062 32.839844 381.792969 26.222656 C 369.96875 20.207031 365.945312 18.855469 357.972656 18.222656 C 351.898438 17.742188 348.0625 18.734375 339.5 22.992188 L 333.074219 26.191406 L 332.832031 34.941406 L 332.585938 43.691406 L 361.746094 43.691406 C 377.898438 43.691406 390.902344 44.023438 390.902344 44.441406 C 390.902344 44.855469 390.265625 45.722656 389.484375 46.371094 C 388.34375 47.316406 382.292969 47.546875 358.429688 47.546875 L 328.792969 47.546875 L 328.332031 7.710938 L 322.367188 7.710938 Z M 328.617188 55.042969 C 327.710938 56.230469 328.179688 64.25 329.15625 64.25 C 329.496094 64.25 330.132812 62.820312 330.570312 61.070312 C 331.445312 57.558594 332.988281 56.773438 339.285156 56.625 C 343.195312 56.535156 344.152344 55.355469 341 54.511719 C 337.519531 53.578125 329.464844 53.921875 328.617188 55.042969 " fill-opacity="1" fill-rule="evenodd"/></svg>