<svg xmlns="http://www.w3.org/2000/svg" xmlns:xlink="http://www.w3.org/1999/xlink" width="1225" zoomAndPan="magnify" viewBox="0 0 918.75 198.749996" height="265" preserveAspectRatio="xMidYMid meet" version="1.0"><defs><g/></defs><g fill="#ffffff" fill-opacity="1"><g transform="translate(234.50076, 131.325552)"><g><path d="M 45.328125 1.375 C 33.472656 1.375 23.488281 -1.835938 15.375 -8.265625 C 7.269531 -14.691406 3.21875 -23.910156 3.21875 -35.921875 C 3.21875 -42.960938 4.554688 -49.234375 7.234375 -54.734375 C 9.910156 -60.242188 13.425781 -64.570312 17.78125 -67.71875 C 26.582031 -74.144531 36.453125 -77.359375 47.390625 -77.359375 C 53.742188 -77.359375 60.363281 -76.207031 67.25 -73.90625 L 66.109375 -66.109375 C 62.515625 -67.640625 59.722656 -68.785156 57.734375 -69.546875 C 51.992188 -71.609375 46.210938 -72.640625 40.390625 -72.640625 C 32.359375 -70.804688 26.179688 -66.828125 21.859375 -60.703125 C 17.535156 -54.585938 15.375 -46.941406 15.375 -37.765625 C 15.375 -26.515625 18.316406 -17.847656 24.203125 -11.765625 C 30.097656 -5.679688 37.863281 -2.640625 47.5 -2.640625 C 57.144531 -2.640625 64.34375 -4.707031 69.09375 -8.84375 L 69.09375 -2.53125 C 62.507812 0.0703125 54.585938 1.375 45.328125 1.375 Z M 45.328125 1.375 "/></g></g></g><g fill="#ffffff" fill-opacity="1"><g transform="translate(307.027759, 131.325552)"><g><path d="M 10.328125 0 L 10.328125 -75.96875 L 56.34375 -75.96875 L 55.203125 -68.28125 L 33.859375 -71.84375 C 30.109375 -71.84375 25.976562 -71.191406 21.46875 -69.890625 L 21.46875 -42 L 46.9375 -42 L 46.9375 -37.640625 L 21.46875 -37.640625 L 21.46875 -4.125 L 57.03125 -7.6875 L 55.890625 0 Z M 10.328125 0 "/></g></g></g><g fill="#ffffff" fill-opacity="1"><g transform="translate(371.521704, 131.325552)"><g><path d="M 68.0625 1.265625 L 66.109375 1.265625 L 15.84375 -61.625 L 15.375 -61.625 L 15.375 0 L 10.328125 0 L 10.328125 -75.96875 L 18.828125 -75.96875 L 62.546875 -20.765625 L 63 -20.765625 L 63 -75.96875 L 68.0625 -75.96875 Z M 68.0625 1.265625 "/></g></g></g><g fill="#ffffff" fill-opacity="1"><g transform="translate(449.901358, 131.325552)"><g><path d="M 21.46875 -42 L 45.796875 -42 L 45.796875 -37.640625 L 21.46875 -37.640625 L 21.46875 0 L 10.328125 0 L 10.328125 -75.96875 L 55.203125 -75.96875 L 55.203125 -68.28125 L 33.96875 -71.84375 C 30.144531 -71.84375 25.976562 -71.191406 21.46875 -69.890625 Z M 21.46875 -42 "/></g></g></g><g fill="#ffffff" fill-opacity="1"><g transform="translate(505.099904, 131.325552)"><g><path d="M 44.875 -77.359375 C 54.820312 -77.359375 63.046875 -74.085938 69.546875 -67.546875 C 76.046875 -61.003906 79.296875 -51.914062 79.296875 -40.28125 C 79.296875 -32.78125 77.992188 -26.21875 75.390625 -20.59375 C 72.796875 -14.976562 69.394531 -10.640625 65.1875 -7.578125 C 57 -1.609375 47.96875 1.375 38.09375 1.375 C 28.226562 1.375 20.0625 -1.929688 13.59375 -8.546875 C 7.132812 -15.171875 3.90625 -24.296875 3.90625 -35.921875 C 3.90625 -41.960938 4.765625 -47.410156 6.484375 -52.265625 C 8.203125 -57.128906 10.457031 -61.09375 13.25 -64.15625 C 16.039062 -67.21875 19.273438 -69.78125 22.953125 -71.84375 C 29.679688 -75.519531 36.988281 -77.359375 44.875 -77.359375 Z M 21.8125 -13.078125 C 23.800781 -9.710938 26.476562 -7.09375 29.84375 -5.21875 C 33.207031 -3.34375 37.085938 -2.40625 41.484375 -2.40625 C 45.890625 -2.40625 49.8125 -3.515625 53.25 -5.734375 C 56.695312 -7.953125 59.375 -10.859375 61.28125 -14.453125 C 65.1875 -21.648438 67.140625 -29.378906 67.140625 -37.640625 C 67.140625 -47.816406 65.113281 -56.003906 61.0625 -62.203125 C 56.539062 -69.160156 49.078125 -72.640625 38.671875 -72.640625 C 31.253906 -70.046875 25.628906 -65.570312 21.796875 -59.21875 C 17.972656 -52.863281 16.0625 -45.671875 16.0625 -37.640625 C 16.0625 -27.847656 17.976562 -19.660156 21.8125 -13.078125 Z M 21.8125 -13.078125 "/></g></g></g><g fill="#ffffff" fill-opacity="1"><g transform="translate(588.299376, 131.325552)"><g><path d="M 21.578125 -36.265625 L 21.578125 0 L 10.328125 0 L 10.328125 -75.96875 L 35.125 -75.96875 C 42.84375 -75.96875 49.171875 -74.242188 54.109375 -70.796875 C 59.046875 -67.359375 61.515625 -62.828125 61.515625 -57.203125 C 61.515625 -51.585938 59.539062 -47.148438 55.59375 -43.890625 C 51.65625 -40.640625 46.320312 -38.40625 39.59375 -37.1875 L 70.34375 0 L 57.03125 1.609375 L 30.40625 -36.265625 Z M 21.578125 -39.703125 L 28.921875 -39.703125 C 42.691406 -39.703125 49.578125 -45.132812 49.578125 -56 C 49.578125 -57.84375 49.117188 -59.910156 48.203125 -62.203125 C 46.441406 -67.023438 42.691406 -70.203125 36.953125 -71.734375 C 31.753906 -71.734375 26.628906 -71.082031 21.578125 -69.78125 Z M 21.578125 -39.703125 "/></g></g></g><g fill="#ffffff" fill-opacity="1"><g transform="translate(661.514924, 131.325552)"><g><path d="M 36.265625 0 L 25.140625 0 L 25.140625 -70.46875 C 22.535156 -71.082031 19.929688 -71.390625 17.328125 -71.390625 L 1.84375 -67.828125 L 1.140625 -75.96875 L 60.25 -75.96875 L 59.671875 -67.828125 L 44.0625 -71.390625 C 41.46875 -71.390625 38.867188 -71.082031 36.265625 -70.46875 Z M 36.265625 0 "/></g></g></g><g fill="#ffffff" fill-opacity="1"><g transform="translate(722.910411, 131.325552)"><g><path d="M 20.890625 -75.96875 L 20.890625 0 L 10.328125 0 L 10.328125 -75.96875 Z M 20.890625 -75.96875 "/></g></g></g><g fill="#ffffff" fill-opacity="1"><g transform="translate(754.124549, 131.325552)"><g><path d="M 68.0625 1.265625 L 66.109375 1.265625 L 15.84375 -61.625 L 15.375 -61.625 L 15.375 0 L 10.328125 0 L 10.328125 -75.96875 L 18.828125 -75.96875 L 62.546875 -20.765625 L 63 -20.765625 L 63 -75.96875 L 68.0625 -75.96875 Z M 68.0625 1.265625 "/></g></g></g><g fill="#ffffff" fill-opacity="1"><g transform="translate(832.504178, 131.325552)"><g><path d="M 21.46875 -42 L 45.796875 -42 L 45.796875 -37.640625 L 21.46875 -37.640625 L 21.46875 0 L 10.328125 0 L 10.328125 -75.96875 L 55.203125 -75.96875 L 55.203125 -68.28125 L 33.96875 -71.84375 C 30.144531 -71.84375 25.976562 -71.191406 21.46875 -69.890625 Z M 21.46875 -42 "/></g></g></g><g fill="#ffffff" fill-opacity="1"><g transform="translate(238.334885, 166.257137)"><g><path d="M 8.171875 0.125 C 6.816406 0.125 5.59375 -0.175781 4.5 -0.78125 C 3.414062 -1.382812 2.5625 -2.21875 1.9375 -3.28125 C 1.320312 -4.34375 1.015625 -5.53125 1.015625 -6.84375 C 1.015625 -8.15625 1.320312 -9.34375 1.9375 -10.40625 C 2.5625 -11.46875 3.421875 -12.296875 4.515625 -12.890625 C 5.609375 -13.492188 6.832031 -13.796875 8.1875 -13.796875 C 9.207031 -13.796875 10.144531 -13.625 11 -13.28125 C 11.863281 -12.945312 12.59375 -12.457031 13.1875 -11.8125 L 12.28125 -10.890625 C 11.207031 -11.972656 9.859375 -12.515625 8.234375 -12.515625 C 7.148438 -12.515625 6.164062 -12.265625 5.28125 -11.765625 C 4.394531 -11.273438 3.695312 -10.597656 3.1875 -9.734375 C 2.6875 -8.867188 2.4375 -7.90625 2.4375 -6.84375 C 2.4375 -5.769531 2.6875 -4.800781 3.1875 -3.9375 C 3.695312 -3.082031 4.394531 -2.40625 5.28125 -1.90625 C 6.164062 -1.414062 7.148438 -1.171875 8.234375 -1.171875 C 9.867188 -1.171875 11.21875 -1.71875 12.28125 -2.8125 L 13.1875 -1.890625 C 12.59375 -1.242188 11.859375 -0.742188 10.984375 -0.390625 C 10.117188 -0.046875 9.179688 0.125 8.171875 0.125 Z M 8.171875 0.125 "/></g></g></g><g fill="#ffffff" fill-opacity="1"><g transform="translate(252.393029, 166.257137)"><g><path d="M 11.90625 -1.25 L 11.90625 0 L 2.234375 0 L 2.234375 -13.6875 L 11.609375 -13.6875 L 11.609375 -12.4375 L 3.671875 -12.4375 L 3.671875 -7.5625 L 10.75 -7.5625 L 10.75 -6.328125 L 3.671875 -6.328125 L 3.671875 -1.25 Z M 11.90625 -1.25 "/></g></g></g><g fill="#ffffff" fill-opacity="1"><g transform="translate(265.473559, 166.257137)"><g><path d="M 13.65625 -13.6875 L 13.65625 0 L 12.46875 0 L 3.671875 -11.109375 L 3.671875 0 L 2.234375 0 L 2.234375 -13.6875 L 3.421875 -13.6875 L 12.234375 -2.578125 L 12.234375 -13.6875 Z M 13.65625 -13.6875 "/></g></g></g><g fill="#ffffff" fill-opacity="1"><g transform="translate(281.369625, 166.257137)"><g><path d="M 4.890625 -12.4375 L 0.078125 -12.4375 L 0.078125 -13.6875 L 11.140625 -13.6875 L 11.140625 -12.4375 L 6.328125 -12.4375 L 6.328125 0 L 4.890625 0 Z M 4.890625 -12.4375 "/></g></g></g><g fill="#ffffff" fill-opacity="1"><g transform="translate(292.592676, 166.257137)"><g><path d="M 11.578125 0 L 8.4375 -4.390625 C 8.09375 -4.359375 7.726562 -4.34375 7.34375 -4.34375 L 3.671875 -4.34375 L 3.671875 0 L 2.234375 0 L 2.234375 -13.6875 L 7.34375 -13.6875 C 9.09375 -13.6875 10.460938 -13.269531 11.453125 -12.4375 C 12.441406 -11.601562 12.9375 -10.453125 12.9375 -8.984375 C 12.9375 -7.921875 12.664062 -7.019531 12.125 -6.28125 C 11.582031 -5.550781 10.8125 -5.019531 9.8125 -4.6875 L 13.15625 0 Z M 7.3125 -5.578125 C 8.664062 -5.578125 9.703125 -5.875 10.421875 -6.46875 C 11.140625 -7.070312 11.5 -7.910156 11.5 -8.984375 C 11.5 -10.097656 11.140625 -10.953125 10.421875 -11.546875 C 9.703125 -12.140625 8.664062 -12.4375 7.3125 -12.4375 L 3.671875 -12.4375 L 3.671875 -5.578125 Z M 7.3125 -5.578125 "/></g></g></g><g fill="#ffffff" fill-opacity="1"><g transform="translate(306.729043, 166.257137)"><g><path d="M 8.203125 0.125 C 6.847656 0.125 5.617188 -0.175781 4.515625 -0.78125 C 3.421875 -1.394531 2.5625 -2.226562 1.9375 -3.28125 C 1.320312 -4.34375 1.015625 -5.53125 1.015625 -6.84375 C 1.015625 -8.15625 1.320312 -9.335938 1.9375 -10.390625 C 2.5625 -11.453125 3.421875 -12.285156 4.515625 -12.890625 C 5.617188 -13.492188 6.847656 -13.796875 8.203125 -13.796875 C 9.566406 -13.796875 10.789062 -13.492188 11.875 -12.890625 C 12.957031 -12.296875 13.8125 -11.46875 14.4375 -10.40625 C 15.070312 -9.34375 15.390625 -8.15625 15.390625 -6.84375 C 15.390625 -5.53125 15.070312 -4.34375 14.4375 -3.28125 C 13.8125 -2.21875 12.957031 -1.382812 11.875 -0.78125 C 10.789062 -0.175781 9.566406 0.125 8.203125 0.125 Z M 8.203125 -1.171875 C 9.285156 -1.171875 10.265625 -1.414062 11.140625 -1.90625 C 12.015625 -2.394531 12.695312 -3.070312 13.1875 -3.9375 C 13.6875 -4.800781 13.9375 -5.769531 13.9375 -6.84375 C 13.9375 -7.90625 13.6875 -8.867188 13.1875 -9.734375 C 12.695312 -10.609375 12.015625 -11.289062 11.140625 -11.78125 C 10.265625 -12.269531 9.285156 -12.515625 8.203125 -12.515625 C 7.128906 -12.515625 6.148438 -12.269531 5.265625 -11.78125 C 4.390625 -11.289062 3.695312 -10.609375 3.1875 -9.734375 C 2.6875 -8.867188 2.4375 -7.90625 2.4375 -6.84375 C 2.4375 -5.769531 2.6875 -4.800781 3.1875 -3.9375 C 3.695312 -3.070312 4.390625 -2.394531 5.265625 -1.90625 C 6.148438 -1.414062 7.128906 -1.171875 8.203125 -1.171875 Z M 8.203125 -1.171875 "/></g></g></g><g fill="#ffffff" fill-opacity="1"><g transform="translate(323.133472, 166.257137)"><g/></g></g><g fill="#ffffff" fill-opacity="1"><g transform="translate(328.256198, 166.257137)"><g><path d="M 2.234375 -13.6875 L 7.796875 -13.6875 C 9.242188 -13.6875 10.519531 -13.394531 11.625 -12.8125 C 12.738281 -12.226562 13.597656 -11.414062 14.203125 -10.375 C 14.816406 -9.34375 15.125 -8.164062 15.125 -6.84375 C 15.125 -5.507812 14.816406 -4.320312 14.203125 -3.28125 C 13.597656 -2.25 12.738281 -1.441406 11.625 -0.859375 C 10.519531 -0.285156 9.242188 0 7.796875 0 L 2.234375 0 Z M 7.71875 -1.25 C 8.914062 -1.25 9.960938 -1.484375 10.859375 -1.953125 C 11.765625 -2.429688 12.460938 -3.09375 12.953125 -3.9375 C 13.453125 -4.78125 13.703125 -5.75 13.703125 -6.84375 C 13.703125 -7.9375 13.453125 -8.898438 12.953125 -9.734375 C 12.460938 -10.578125 11.765625 -11.238281 10.859375 -11.71875 C 9.960938 -12.195312 8.914062 -12.4375 7.71875 -12.4375 L 3.671875 -12.4375 L 3.671875 -1.25 Z M 7.71875 -1.25 "/></g></g></g><g fill="#ffffff" fill-opacity="1"><g transform="translate(344.406446, 166.257137)"><g><path d="M 11.90625 -1.25 L 11.90625 0 L 2.234375 0 L 2.234375 -13.6875 L 11.609375 -13.6875 L 11.609375 -12.4375 L 3.671875 -12.4375 L 3.671875 -7.5625 L 10.75 -7.5625 L 10.75 -6.328125 L 3.671875 -6.328125 L 3.671875 -1.25 Z M 11.90625 -1.25 "/></g></g></g><g fill="#ffffff" fill-opacity="1"><g transform="translate(357.486975, 166.257137)"><g/></g></g><g fill="#ffffff" fill-opacity="1"><g transform="translate(362.609701, 166.257137)"><g><path d="M 3.671875 -12.4375 L 3.671875 -7.0625 L 10.75 -7.0625 L 10.75 -5.8125 L 3.671875 -5.8125 L 3.671875 0 L 2.234375 0 L 2.234375 -13.6875 L 11.609375 -13.6875 L 11.609375 -12.4375 Z M 3.671875 -12.4375 "/></g></g></g><g fill="#ffffff" fill-opacity="1"><g transform="translate(374.986353, 166.257137)"><g><path d="M 8.203125 0.125 C 6.847656 0.125 5.617188 -0.175781 4.515625 -0.78125 C 3.421875 -1.394531 2.5625 -2.226562 1.9375 -3.28125 C 1.320312 -4.34375 1.015625 -5.53125 1.015625 -6.84375 C 1.015625 -8.15625 1.320312 -9.335938 1.9375 -10.390625 C 2.5625 -11.453125 3.421875 -12.285156 4.515625 -12.890625 C 5.617188 -13.492188 6.847656 -13.796875 8.203125 -13.796875 C 9.566406 -13.796875 10.789062 -13.492188 11.875 -12.890625 C 12.957031 -12.296875 13.8125 -11.46875 14.4375 -10.40625 C 15.070312 -9.34375 15.390625 -8.15625 15.390625 -6.84375 C 15.390625 -5.53125 15.070312 -4.34375 14.4375 -3.28125 C 13.8125 -2.21875 12.957031 -1.382812 11.875 -0.78125 C 10.789062 -0.175781 9.566406 0.125 8.203125 0.125 Z M 8.203125 -1.171875 C 9.285156 -1.171875 10.265625 -1.414062 11.140625 -1.90625 C 12.015625 -2.394531 12.695312 -3.070312 13.1875 -3.9375 C 13.6875 -4.800781 13.9375 -5.769531 13.9375 -6.84375 C 13.9375 -7.90625 13.6875 -8.867188 13.1875 -9.734375 C 12.695312 -10.609375 12.015625 -11.289062 11.140625 -11.78125 C 10.265625 -12.269531 9.285156 -12.515625 8.203125 -12.515625 C 7.128906 -12.515625 6.148438 -12.269531 5.265625 -11.78125 C 4.390625 -11.289062 3.695312 -10.609375 3.1875 -9.734375 C 2.6875 -8.867188 2.4375 -7.90625 2.4375 -6.84375 C 2.4375 -5.769531 2.6875 -4.800781 3.1875 -3.9375 C 3.695312 -3.070312 4.390625 -2.394531 5.265625 -1.90625 C 6.148438 -1.414062 7.128906 -1.171875 8.203125 -1.171875 Z M 8.203125 -1.171875 "/></g></g></g><g fill="#ffffff" fill-opacity="1"><g transform="translate(391.390782, 166.257137)"><g><path d="M 11.578125 0 L 8.4375 -4.390625 C 8.09375 -4.359375 7.726562 -4.34375 7.34375 -4.34375 L 3.671875 -4.34375 L 3.671875 0 L 2.234375 0 L 2.234375 -13.6875 L 7.34375 -13.6875 C 9.09375 -13.6875 10.460938 -13.269531 11.453125 -12.4375 C 12.441406 -11.601562 12.9375 -10.453125 12.9375 -8.984375 C 12.9375 -7.921875 12.664062 -7.019531 12.125 -6.28125 C 11.582031 -5.550781 10.8125 -5.019531 9.8125 -4.6875 L 13.15625 0 Z M 7.3125 -5.578125 C 8.664062 -5.578125 9.703125 -5.875 10.421875 -6.46875 C 11.140625 -7.070312 11.5 -7.910156 11.5 -8.984375 C 11.5 -10.097656 11.140625 -10.953125 10.421875 -11.546875 C 9.703125 -12.140625 8.664062 -12.4375 7.3125 -12.4375 L 3.671875 -12.4375 L 3.671875 -5.578125 Z M 7.3125 -5.578125 "/></g></g></g><g fill="#ffffff" fill-opacity="1"><g transform="translate(405.527149, 166.257137)"><g><path d="M 16.4375 -13.6875 L 16.4375 0 L 15.046875 0 L 15.046875 -10.953125 L 9.671875 -1.734375 L 8.984375 -1.734375 L 3.609375 -10.890625 L 3.609375 0 L 2.234375 0 L 2.234375 -13.6875 L 3.421875 -13.6875 L 9.359375 -3.53125 L 15.25 -13.6875 Z M 16.4375 -13.6875 "/></g></g></g><g fill="#ffffff" fill-opacity="1"><g transform="translate(424.199656, 166.257137)"><g><path d="M 10.8125 -3.65625 L 3.1875 -3.65625 L 1.546875 0 L 0.046875 0 L 6.296875 -13.6875 L 7.71875 -13.6875 L 13.96875 0 L 12.453125 0 Z M 10.28125 -4.828125 L 7 -12.171875 L 3.71875 -4.828125 Z M 10.28125 -4.828125 "/></g></g></g><g fill="#ffffff" fill-opacity="1"><g transform="translate(438.218702, 166.257137)"><g><path d="M 8.171875 0.125 C 6.816406 0.125 5.59375 -0.175781 4.5 -0.78125 C 3.414062 -1.382812 2.5625 -2.21875 1.9375 -3.28125 C 1.320312 -4.34375 1.015625 -5.53125 1.015625 -6.84375 C 1.015625 -8.15625 1.320312 -9.34375 1.9375 -10.40625 C 2.5625 -11.46875 3.421875 -12.296875 4.515625 -12.890625 C 5.609375 -13.492188 6.832031 -13.796875 8.1875 -13.796875 C 9.207031 -13.796875 10.144531 -13.625 11 -13.28125 C 11.863281 -12.945312 12.59375 -12.457031 13.1875 -11.8125 L 12.28125 -10.890625 C 11.207031 -11.972656 9.859375 -12.515625 8.234375 -12.515625 C 7.148438 -12.515625 6.164062 -12.265625 5.28125 -11.765625 C 4.394531 -11.273438 3.695312 -10.597656 3.1875 -9.734375 C 2.6875 -8.867188 2.4375 -7.90625 2.4375 -6.84375 C 2.4375 -5.769531 2.6875 -4.800781 3.1875 -3.9375 C 3.695312 -3.082031 4.394531 -2.40625 5.28125 -1.90625 C 6.164062 -1.414062 7.148438 -1.171875 8.234375 -1.171875 C 9.867188 -1.171875 11.21875 -1.71875 12.28125 -2.8125 L 13.1875 -1.890625 C 12.59375 -1.242188 11.859375 -0.742188 10.984375 -0.390625 C 10.117188 -0.046875 9.179688 0.125 8.171875 0.125 Z M 7.46875 4.296875 C 6.832031 4.296875 6.285156 4.144531 5.828125 3.84375 L 6.15625 3.109375 C 6.539062 3.359375 6.972656 3.484375 7.453125 3.484375 C 7.835938 3.484375 8.132812 3.40625 8.34375 3.25 C 8.550781 3.09375 8.65625 2.863281 8.65625 2.5625 C 8.65625 2.289062 8.554688 2.070312 8.359375 1.90625 C 8.160156 1.738281 7.859375 1.65625 7.453125 1.65625 L 7 1.65625 L 7.46875 -0.125 L 8.3125 -0.125 L 8.015625 1.015625 C 8.546875 1.066406 8.957031 1.234375 9.25 1.515625 C 9.539062 1.796875 9.6875 2.15625 9.6875 2.59375 C 9.6875 3.113281 9.484375 3.523438 9.078125 3.828125 C 8.671875 4.140625 8.132812 4.296875 7.46875 4.296875 Z M 7.46875 4.296875 "/></g></g></g><g fill="#ffffff" fill-opacity="1"><g transform="translate(452.276846, 166.257137)"><g><path d="M 10.8125 -3.65625 L 3.1875 -3.65625 L 1.546875 0 L 0.046875 0 L 6.296875 -13.6875 L 7.71875 -13.6875 L 13.96875 0 L 12.453125 0 Z M 10.28125 -4.828125 L 7 -12.171875 L 3.71875 -4.828125 Z M 8.34375 -14.921875 C 8.039062 -14.921875 7.769531 -14.988281 7.53125 -15.125 C 7.300781 -15.257812 7.050781 -15.453125 6.78125 -15.703125 C 6.539062 -15.890625 6.351562 -16.023438 6.21875 -16.109375 C 6.082031 -16.203125 5.9375 -16.25 5.78125 -16.25 C 5.476562 -16.25 5.234375 -16.132812 5.046875 -15.90625 C 4.867188 -15.6875 4.773438 -15.382812 4.765625 -15 L 3.921875 -15 C 3.953125 -15.644531 4.125 -16.160156 4.4375 -16.546875 C 4.75 -16.941406 5.164062 -17.140625 5.6875 -17.140625 C 5.976562 -17.140625 6.238281 -17.070312 6.46875 -16.9375 C 6.695312 -16.8125 6.960938 -16.617188 7.265625 -16.359375 C 7.472656 -16.179688 7.644531 -16.046875 7.78125 -15.953125 C 7.925781 -15.859375 8.082031 -15.8125 8.25 -15.8125 C 8.53125 -15.8125 8.757812 -15.914062 8.9375 -16.125 C 9.125 -16.34375 9.234375 -16.644531 9.265625 -17.03125 L 10.09375 -17.03125 C 10.070312 -16.382812 9.90625 -15.867188 9.59375 -15.484375 C 9.28125 -15.109375 8.863281 -14.921875 8.34375 -14.921875 Z M 8.34375 -14.921875 "/></g></g></g><g fill="#ffffff" fill-opacity="1"><g transform="translate(466.295893, 166.257137)"><g><path d="M 8.203125 0.125 C 6.847656 0.125 5.617188 -0.175781 4.515625 -0.78125 C 3.421875 -1.394531 2.5625 -2.226562 1.9375 -3.28125 C 1.320312 -4.34375 1.015625 -5.53125 1.015625 -6.84375 C 1.015625 -8.15625 1.320312 -9.335938 1.9375 -10.390625 C 2.5625 -11.453125 3.421875 -12.285156 4.515625 -12.890625 C 5.617188 -13.492188 6.847656 -13.796875 8.203125 -13.796875 C 9.566406 -13.796875 10.789062 -13.492188 11.875 -12.890625 C 12.957031 -12.296875 13.8125 -11.46875 14.4375 -10.40625 C 15.070312 -9.34375 15.390625 -8.15625 15.390625 -6.84375 C 15.390625 -5.53125 15.070312 -4.34375 14.4375 -3.28125 C 13.8125 -2.21875 12.957031 -1.382812 11.875 -0.78125 C 10.789062 -0.175781 9.566406 0.125 8.203125 0.125 Z M 8.203125 -1.171875 C 9.285156 -1.171875 10.265625 -1.414062 11.140625 -1.90625 C 12.015625 -2.394531 12.695312 -3.070312 13.1875 -3.9375 C 13.6875 -4.800781 13.9375 -5.769531 13.9375 -6.84375 C 13.9375 -7.90625 13.6875 -8.867188 13.1875 -9.734375 C 12.695312 -10.609375 12.015625 -11.289062 11.140625 -11.78125 C 10.265625 -12.269531 9.285156 -12.515625 8.203125 -12.515625 C 7.128906 -12.515625 6.148438 -12.269531 5.265625 -11.78125 C 4.390625 -11.289062 3.695312 -10.609375 3.1875 -9.734375 C 2.6875 -8.867188 2.4375 -7.90625 2.4375 -6.84375 C 2.4375 -5.769531 2.6875 -4.800781 3.1875 -3.9375 C 3.695312 -3.070312 4.390625 -2.394531 5.265625 -1.90625 C 6.148438 -1.414062 7.128906 -1.171875 8.203125 -1.171875 Z M 8.203125 -1.171875 "/></g></g></g><g fill="#ffffff" fill-opacity="1"><g transform="translate(482.700308, 166.257137)"><g/></g></g><g fill="#ffffff" fill-opacity="1"><g transform="translate(487.823048, 166.257137)"><g><path d="M 4.890625 -12.4375 L 0.078125 -12.4375 L 0.078125 -13.6875 L 11.140625 -13.6875 L 11.140625 -12.4375 L 6.328125 -12.4375 L 6.328125 0 L 4.890625 0 Z M 4.890625 -12.4375 "/></g></g></g><g fill="#ffffff" fill-opacity="1"><g transform="translate(499.046085, 166.257137)"><g><path d="M 11.90625 -1.25 L 11.90625 0 L 2.234375 0 L 2.234375 -13.6875 L 11.609375 -13.6875 L 11.609375 -12.4375 L 3.671875 -12.4375 L 3.671875 -7.5625 L 10.75 -7.5625 L 10.75 -6.328125 L 3.671875 -6.328125 L 3.671875 -1.25 Z M 11.90625 -1.25 "/></g></g></g><g fill="#ffffff" fill-opacity="1"><g transform="translate(512.126601, 166.257137)"><g><path d="M 8.203125 0.125 C 6.847656 0.125 5.617188 -0.175781 4.515625 -0.78125 C 3.421875 -1.394531 2.5625 -2.226562 1.9375 -3.28125 C 1.320312 -4.34375 1.015625 -5.53125 1.015625 -6.84375 C 1.015625 -8.15625 1.320312 -9.335938 1.9375 -10.390625 C 2.5625 -11.453125 3.421875 -12.285156 4.515625 -12.890625 C 5.617188 -13.492188 6.847656 -13.796875 8.203125 -13.796875 C 9.566406 -13.796875 10.789062 -13.492188 11.875 -12.890625 C 12.957031 -12.296875 13.8125 -11.46875 14.4375 -10.40625 C 15.070312 -9.34375 15.390625 -8.15625 15.390625 -6.84375 C 15.390625 -5.53125 15.070312 -4.34375 14.4375 -3.28125 C 13.8125 -2.21875 12.957031 -1.382812 11.875 -0.78125 C 10.789062 -0.175781 9.566406 0.125 8.203125 0.125 Z M 8.203125 -1.171875 C 9.285156 -1.171875 10.265625 -1.414062 11.140625 -1.90625 C 12.015625 -2.394531 12.695312 -3.070312 13.1875 -3.9375 C 13.6875 -4.800781 13.9375 -5.769531 13.9375 -6.84375 C 13.9375 -7.90625 13.6875 -8.867188 13.1875 -9.734375 C 12.695312 -10.609375 12.015625 -11.289062 11.140625 -11.78125 C 10.265625 -12.269531 9.285156 -12.515625 8.203125 -12.515625 C 7.128906 -12.515625 6.148438 -12.269531 5.265625 -11.78125 C 4.390625 -11.289062 3.695312 -10.609375 3.1875 -9.734375 C 2.6875 -8.867188 2.4375 -7.90625 2.4375 -6.84375 C 2.4375 -5.769531 2.6875 -4.800781 3.1875 -3.9375 C 3.695312 -3.070312 4.390625 -2.394531 5.265625 -1.90625 C 6.148438 -1.414062 7.128906 -1.171875 8.203125 -1.171875 Z M 8.203125 -1.171875 "/></g></g></g><g fill="#ffffff" fill-opacity="1"><g transform="translate(528.531016, 166.257137)"><g><path d="M 2.234375 -13.6875 L 3.671875 -13.6875 L 3.671875 -1.25 L 11.34375 -1.25 L 11.34375 0 L 2.234375 0 Z M 2.234375 -13.6875 "/></g></g></g><g fill="#ffffff" fill-opacity="1"><g transform="translate(540.04736, 166.257137)"><g><path d="M 8.203125 0.125 C 6.847656 0.125 5.617188 -0.175781 4.515625 -0.78125 C 3.421875 -1.394531 2.5625 -2.226562 1.9375 -3.28125 C 1.320312 -4.34375 1.015625 -5.53125 1.015625 -6.84375 C 1.015625 -8.15625 1.320312 -9.335938 1.9375 -10.390625 C 2.5625 -11.453125 3.421875 -12.285156 4.515625 -12.890625 C 5.617188 -13.492188 6.847656 -13.796875 8.203125 -13.796875 C 9.566406 -13.796875 10.789062 -13.492188 11.875 -12.890625 C 12.957031 -12.296875 13.8125 -11.46875 14.4375 -10.40625 C 15.070312 -9.34375 15.390625 -8.15625 15.390625 -6.84375 C 15.390625 -5.53125 15.070312 -4.34375 14.4375 -3.28125 C 13.8125 -2.21875 12.957031 -1.382812 11.875 -0.78125 C 10.789062 -0.175781 9.566406 0.125 8.203125 0.125 Z M 8.203125 -1.171875 C 9.285156 -1.171875 10.265625 -1.414062 11.140625 -1.90625 C 12.015625 -2.394531 12.695312 -3.070312 13.1875 -3.9375 C 13.6875 -4.800781 13.9375 -5.769531 13.9375 -6.84375 C 13.9375 -7.90625 13.6875 -8.867188 13.1875 -9.734375 C 12.695312 -10.609375 12.015625 -11.289062 11.140625 -11.78125 C 10.265625 -12.269531 9.285156 -12.515625 8.203125 -12.515625 C 7.128906 -12.515625 6.148438 -12.269531 5.265625 -11.78125 C 4.390625 -11.289062 3.695312 -10.609375 3.1875 -9.734375 C 2.6875 -8.867188 2.4375 -7.90625 2.4375 -6.84375 C 2.4375 -5.769531 2.6875 -4.800781 3.1875 -3.9375 C 3.695312 -3.070312 4.390625 -2.394531 5.265625 -1.90625 C 6.148438 -1.414062 7.128906 -1.171875 8.203125 -1.171875 Z M 9.625 -17.21875 L 11.484375 -17.21875 L 8.3125 -14.796875 L 6.9375 -14.796875 Z M 9.625 -17.21875 "/></g></g></g><g fill="#ffffff" fill-opacity="1"><g transform="translate(556.451776, 166.257137)"><g><path d="M 11.859375 -6.84375 L 13.25 -6.84375 L 13.25 -1.625 C 12.613281 -1.0625 11.859375 -0.628906 10.984375 -0.328125 C 10.109375 -0.0234375 9.191406 0.125 8.234375 0.125 C 6.859375 0.125 5.625 -0.175781 4.53125 -0.78125 C 3.4375 -1.382812 2.578125 -2.21875 1.953125 -3.28125 C 1.328125 -4.34375 1.015625 -5.53125 1.015625 -6.84375 C 1.015625 -8.15625 1.328125 -9.34375 1.953125 -10.40625 C 2.578125 -11.46875 3.4375 -12.296875 4.53125 -12.890625 C 5.625 -13.492188 6.863281 -13.796875 8.25 -13.796875 C 9.289062 -13.796875 10.25 -13.628906 11.125 -13.296875 C 12 -12.960938 12.734375 -12.472656 13.328125 -11.828125 L 12.4375 -10.90625 C 11.351562 -11.976562 9.976562 -12.515625 8.3125 -12.515625 C 7.195312 -12.515625 6.191406 -12.269531 5.296875 -11.78125 C 4.410156 -11.289062 3.710938 -10.609375 3.203125 -9.734375 C 2.691406 -8.867188 2.4375 -7.90625 2.4375 -6.84375 C 2.4375 -5.769531 2.691406 -4.800781 3.203125 -3.9375 C 3.710938 -3.082031 4.410156 -2.40625 5.296875 -1.90625 C 6.179688 -1.414062 7.175781 -1.171875 8.28125 -1.171875 C 9.695312 -1.171875 10.890625 -1.523438 11.859375 -2.234375 Z M 11.859375 -6.84375 "/></g></g></g><g fill="#ffffff" fill-opacity="1"><g transform="translate(571.565742, 166.257137)"><g><path d="M 2.234375 -13.6875 L 3.671875 -13.6875 L 3.671875 0 L 2.234375 0 Z M 2.234375 -13.6875 "/></g></g></g><g fill="#ffffff" fill-opacity="1"><g transform="translate(577.47054, 166.257137)"><g><path d="M 10.8125 -3.65625 L 3.1875 -3.65625 L 1.546875 0 L 0.046875 0 L 6.296875 -13.6875 L 7.71875 -13.6875 L 13.96875 0 L 12.453125 0 Z M 10.28125 -4.828125 L 7 -12.171875 L 3.71875 -4.828125 Z M 10.28125 -4.828125 "/></g></g></g><g fill="#ffffff" fill-opacity="1"><g transform="translate(591.489587, 166.257137)"><g/></g></g><g fill="#ffffff" fill-opacity="1"><g transform="translate(596.612298, 166.257137)"><g><path d="M 2.234375 -13.6875 L 7.796875 -13.6875 C 9.242188 -13.6875 10.519531 -13.394531 11.625 -12.8125 C 12.738281 -12.226562 13.597656 -11.414062 14.203125 -10.375 C 14.816406 -9.34375 15.125 -8.164062 15.125 -6.84375 C 15.125 -5.507812 14.816406 -4.320312 14.203125 -3.28125 C 13.597656 -2.25 12.738281 -1.441406 11.625 -0.859375 C 10.519531 -0.285156 9.242188 0 7.796875 0 L 2.234375 0 Z M 7.71875 -1.25 C 8.914062 -1.25 9.960938 -1.484375 10.859375 -1.953125 C 11.765625 -2.429688 12.460938 -3.09375 12.953125 -3.9375 C 13.453125 -4.78125 13.703125 -5.75 13.703125 -6.84375 C 13.703125 -7.9375 13.453125 -8.898438 12.953125 -9.734375 C 12.460938 -10.578125 11.765625 -11.238281 10.859375 -11.71875 C 9.960938 -12.195312 8.914062 -12.4375 7.71875 -12.4375 L 3.671875 -12.4375 L 3.671875 -1.25 Z M 7.71875 -1.25 "/></g></g></g><g fill="#ffffff" fill-opacity="1"><g transform="translate(612.762546, 166.257137)"><g><path d="M 10.8125 -3.65625 L 3.1875 -3.65625 L 1.546875 0 L 0.046875 0 L 6.296875 -13.6875 L 7.71875 -13.6875 L 13.96875 0 L 12.453125 0 Z M 10.28125 -4.828125 L 7 -12.171875 L 3.71875 -4.828125 Z M 10.28125 -4.828125 "/></g></g></g><g fill="#ffffff" fill-opacity="1"><g transform="translate(626.781593, 166.257137)"><g/></g></g><g fill="#ffffff" fill-opacity="1"><g transform="translate(631.904332, 166.257137)"><g><path d="M 2.234375 -13.6875 L 3.671875 -13.6875 L 3.671875 0 L 2.234375 0 Z M 2.234375 -13.6875 "/></g></g></g><g fill="#ffffff" fill-opacity="1"><g transform="translate(637.80913, 166.257137)"><g><path d="M 11.859375 -6.84375 L 13.25 -6.84375 L 13.25 -1.625 C 12.613281 -1.0625 11.859375 -0.628906 10.984375 -0.328125 C 10.109375 -0.0234375 9.191406 0.125 8.234375 0.125 C 6.859375 0.125 5.625 -0.175781 4.53125 -0.78125 C 3.4375 -1.382812 2.578125 -2.21875 1.953125 -3.28125 C 1.328125 -4.34375 1.015625 -5.53125 1.015625 -6.84375 C 1.015625 -8.15625 1.328125 -9.34375 1.953125 -10.40625 C 2.578125 -11.46875 3.4375 -12.296875 4.53125 -12.890625 C 5.625 -13.492188 6.863281 -13.796875 8.25 -13.796875 C 9.289062 -13.796875 10.25 -13.628906 11.125 -13.296875 C 12 -12.960938 12.734375 -12.472656 13.328125 -11.828125 L 12.4375 -10.90625 C 11.351562 -11.976562 9.976562 -12.515625 8.3125 -12.515625 C 7.195312 -12.515625 6.191406 -12.269531 5.296875 -11.78125 C 4.410156 -11.289062 3.710938 -10.609375 3.203125 -9.734375 C 2.691406 -8.867188 2.4375 -7.90625 2.4375 -6.84375 C 2.4375 -5.769531 2.691406 -4.800781 3.203125 -3.9375 C 3.710938 -3.082031 4.410156 -2.40625 5.296875 -1.90625 C 6.179688 -1.414062 7.175781 -1.171875 8.28125 -1.171875 C 9.695312 -1.171875 10.890625 -1.523438 11.859375 -2.234375 Z M 11.859375 -6.84375 "/></g></g></g><g fill="#ffffff" fill-opacity="1"><g transform="translate(652.923097, 166.257137)"><g><path d="M 11.578125 0 L 8.4375 -4.390625 C 8.09375 -4.359375 7.726562 -4.34375 7.34375 -4.34375 L 3.671875 -4.34375 L 3.671875 0 L 2.234375 0 L 2.234375 -13.6875 L 7.34375 -13.6875 C 9.09375 -13.6875 10.460938 -13.269531 11.453125 -12.4375 C 12.441406 -11.601562 12.9375 -10.453125 12.9375 -8.984375 C 12.9375 -7.921875 12.664062 -7.019531 12.125 -6.28125 C 11.582031 -5.550781 10.8125 -5.019531 9.8125 -4.6875 L 13.15625 0 Z M 7.3125 -5.578125 C 8.664062 -5.578125 9.703125 -5.875 10.421875 -6.46875 C 11.140625 -7.070312 11.5 -7.910156 11.5 -8.984375 C 11.5 -10.097656 11.140625 -10.953125 10.421875 -11.546875 C 9.703125 -12.140625 8.664062 -12.4375 7.3125 -12.4375 L 3.671875 -12.4375 L 3.671875 -5.578125 Z M 7.3125 -5.578125 "/></g></g></g><g fill="#ffffff" fill-opacity="1"><g transform="translate(667.059449, 166.257137)"><g><path d="M 11.90625 -1.25 L 11.90625 0 L 2.234375 0 L 2.234375 -13.6875 L 11.609375 -13.6875 L 11.609375 -12.4375 L 3.671875 -12.4375 L 3.671875 -7.5625 L 10.75 -7.5625 L 10.75 -6.328125 L 3.671875 -6.328125 L 3.671875 -1.25 Z M 11.90625 -1.25 "/></g></g></g><g fill="#ffffff" fill-opacity="1"><g transform="translate(680.139965, 166.257137)"><g><path d="M 3.6875 0.125 C 2.90625 0.125 2.179688 -0.046875 1.515625 -0.390625 C 0.859375 -0.734375 0.320312 -1.21875 -0.09375 -1.84375 L 0.765625 -2.8125 C 1.515625 -1.695312 2.5 -1.140625 3.71875 -1.140625 C 5.40625 -1.140625 6.25 -2.140625 6.25 -4.140625 L 6.25 -12.4375 L 1.25 -12.4375 L 1.25 -13.6875 L 7.6875 -13.6875 L 7.6875 -4.203125 C 7.6875 -2.765625 7.347656 -1.679688 6.671875 -0.953125 C 6.003906 -0.234375 5.007812 0.125 3.6875 0.125 Z M 3.6875 0.125 "/></g></g></g><g fill="#ffffff" fill-opacity="1"><g transform="translate(689.935692, 166.257137)"><g><path d="M 10.8125 -3.65625 L 3.1875 -3.65625 L 1.546875 0 L 0.046875 0 L 6.296875 -13.6875 L 7.71875 -13.6875 L 13.96875 0 L 12.453125 0 Z M 10.28125 -4.828125 L 7 -12.171875 L 3.71875 -4.828125 Z M 10.28125 -4.828125 "/></g></g></g><g fill="#ffffff" fill-opacity="1"><g transform="translate(703.954738, 166.257137)"><g/></g></g><g fill="#ffffff" fill-opacity="1"><g transform="translate(709.07745, 166.257137)"><g><path d="M 13.65625 -13.6875 L 13.65625 0 L 12.46875 0 L 3.671875 -11.109375 L 3.671875 0 L 2.234375 0 L 2.234375 -13.6875 L 3.421875 -13.6875 L 12.234375 -2.578125 L 12.234375 -13.6875 Z M 13.65625 -13.6875 "/></g></g></g><g fill="#ffffff" fill-opacity="1"><g transform="translate(724.973531, 166.257137)"><g><path d="M 8.203125 0.125 C 6.847656 0.125 5.617188 -0.175781 4.515625 -0.78125 C 3.421875 -1.394531 2.5625 -2.226562 1.9375 -3.28125 C 1.320312 -4.34375 1.015625 -5.53125 1.015625 -6.84375 C 1.015625 -8.15625 1.320312 -9.335938 1.9375 -10.390625 C 2.5625 -11.453125 3.421875 -12.285156 4.515625 -12.890625 C 5.617188 -13.492188 6.847656 -13.796875 8.203125 -13.796875 C 9.566406 -13.796875 10.789062 -13.492188 11.875 -12.890625 C 12.957031 -12.296875 13.8125 -11.46875 14.4375 -10.40625 C 15.070312 -9.34375 15.390625 -8.15625 15.390625 -6.84375 C 15.390625 -5.53125 15.070312 -4.34375 14.4375 -3.28125 C 13.8125 -2.21875 12.957031 -1.382812 11.875 -0.78125 C 10.789062 -0.175781 9.566406 0.125 8.203125 0.125 Z M 8.203125 -1.171875 C 9.285156 -1.171875 10.265625 -1.414062 11.140625 -1.90625 C 12.015625 -2.394531 12.695312 -3.070312 13.1875 -3.9375 C 13.6875 -4.800781 13.9375 -5.769531 13.9375 -6.84375 C 13.9375 -7.90625 13.6875 -8.867188 13.1875 -9.734375 C 12.695312 -10.609375 12.015625 -11.289062 11.140625 -11.78125 C 10.265625 -12.269531 9.285156 -12.515625 8.203125 -12.515625 C 7.128906 -12.515625 6.148438 -12.269531 5.265625 -11.78125 C 4.390625 -11.289062 3.695312 -10.609375 3.1875 -9.734375 C 2.6875 -8.867188 2.4375 -7.90625 2.4375 -6.84375 C 2.4375 -5.769531 2.6875 -4.800781 3.1875 -3.9375 C 3.695312 -3.070312 4.390625 -2.394531 5.265625 -1.90625 C 6.148438 -1.414062 7.128906 -1.171875 8.203125 -1.171875 Z M 8.203125 -1.171875 "/></g></g></g><g fill="#ffffff" fill-opacity="1"><g transform="translate(741.377946, 166.257137)"><g><path d="M 13.609375 -13.6875 L 7.546875 0 L 6.125 0 L 0.0625 -13.6875 L 1.625 -13.6875 L 6.859375 -1.796875 L 12.140625 -13.6875 Z M 13.609375 -13.6875 "/></g></g></g><g fill="#ffffff" fill-opacity="1"><g transform="translate(755.025492, 166.257137)"><g><path d="M 10.8125 -3.65625 L 3.1875 -3.65625 L 1.546875 0 L 0.046875 0 L 6.296875 -13.6875 L 7.71875 -13.6875 L 13.96875 0 L 12.453125 0 Z M 10.28125 -4.828125 L 7 -12.171875 L 3.71875 -4.828125 Z M 10.28125 -4.828125 "/></g></g></g><g fill="#ffffff" fill-opacity="1"><g transform="translate(769.044511, 166.257137)"><g/></g></g><g fill="#ffffff" fill-opacity="1"><g transform="translate(774.16725, 166.257137)"><g><path d="M 3.671875 -12.4375 L 3.671875 -7.0625 L 10.75 -7.0625 L 10.75 -5.8125 L 3.671875 -5.8125 L 3.671875 0 L 2.234375 0 L 2.234375 -13.6875 L 11.609375 -13.6875 L 11.609375 -12.4375 Z M 3.671875 -12.4375 "/></g></g></g><g fill="#ffffff" fill-opacity="1"><g transform="translate(786.543874, 166.257137)"><g><path d="M 2.234375 -13.6875 L 3.671875 -13.6875 L 3.671875 0 L 2.234375 0 Z M 2.234375 -13.6875 "/></g></g></g><g fill="#ffffff" fill-opacity="1"><g transform="translate(792.448672, 166.257137)"><g><path d="M 2.234375 -13.6875 L 3.671875 -13.6875 L 3.671875 -1.25 L 11.34375 -1.25 L 11.34375 0 L 2.234375 0 Z M 2.234375 -13.6875 "/></g></g></g><g fill="#ffffff" fill-opacity="1"><g transform="translate(803.965016, 166.257137)"><g><path d="M 10.8125 -3.65625 L 3.1875 -3.65625 L 1.546875 0 L 0.046875 0 L 6.296875 -13.6875 L 7.71875 -13.6875 L 13.96875 0 L 12.453125 0 Z M 10.28125 -4.828125 L 7 -12.171875 L 3.71875 -4.828125 Z M 10.28125 -4.828125 "/></g></g></g><g fill="#ffffff" fill-opacity="1"><g transform="translate(817.98409, 166.257137)"><g><path d="M 2.234375 -13.6875 L 7.796875 -13.6875 C 9.242188 -13.6875 10.519531 -13.394531 11.625 -12.8125 C 12.738281 -12.226562 13.597656 -11.414062 14.203125 -10.375 C 14.816406 -9.34375 15.125 -8.164062 15.125 -6.84375 C 15.125 -5.507812 14.816406 -4.320312 14.203125 -3.28125 C 13.597656 -2.25 12.738281 -1.441406 11.625 -0.859375 C 10.519531 -0.285156 9.242188 0 7.796875 0 L 2.234375 0 Z M 7.71875 -1.25 C 8.914062 -1.25 9.960938 -1.484375 10.859375 -1.953125 C 11.765625 -2.429688 12.460938 -3.09375 12.953125 -3.9375 C 13.453125 -4.78125 13.703125 -5.75 13.703125 -6.84375 C 13.703125 -7.9375 13.453125 -8.898438 12.953125 -9.734375 C 12.460938 -10.578125 11.765625 -11.238281 10.859375 -11.71875 C 9.960938 -12.195312 8.914062 -12.4375 7.71875 -12.4375 L 3.671875 -12.4375 L 3.671875 -1.25 Z M 7.71875 -1.25 "/></g></g></g><g fill="#ffffff" fill-opacity="1"><g transform="translate(834.13431, 166.257137)"><g><path d="M 11.90625 -1.25 L 11.90625 0 L 2.234375 0 L 2.234375 -13.6875 L 11.609375 -13.6875 L 11.609375 -12.4375 L 3.671875 -12.4375 L 3.671875 -7.5625 L 10.75 -7.5625 L 10.75 -6.328125 L 3.671875 -6.328125 L 3.671875 -1.25 Z M 8.34375 -17.21875 L 10.203125 -17.21875 L 7.03125 -14.796875 L 5.65625 -14.796875 Z M 8.34375 -17.21875 "/></g></g></g><g fill="#ffffff" fill-opacity="1"><g transform="translate(847.214826, 166.257137)"><g><path d="M 2.234375 -13.6875 L 3.671875 -13.6875 L 3.671875 -1.25 L 11.34375 -1.25 L 11.34375 0 L 2.234375 0 Z M 2.234375 -13.6875 "/></g></g></g><g fill="#ffffff" fill-opacity="1"><g transform="translate(858.73117, 166.257137)"><g><path d="M 3.671875 -12.4375 L 3.671875 -7.0625 L 10.75 -7.0625 L 10.75 -5.8125 L 3.671875 -5.8125 L 3.671875 0 L 2.234375 0 L 2.234375 -13.6875 L 11.609375 -13.6875 L 11.609375 -12.4375 Z M 3.671875 -12.4375 "/></g></g></g><g fill="#ffffff" fill-opacity="1"><g transform="translate(871.10785, 166.257137)"><g><path d="M 2.234375 -13.6875 L 3.671875 -13.6875 L 3.671875 0 L 2.234375 0 Z M 2.234375 -13.6875 "/></g></g></g><g fill="#ffffff" fill-opacity="1"><g transform="translate(877.012647, 166.257137)"><g><path d="M 10.8125 -3.65625 L 3.1875 -3.65625 L 1.546875 0 L 0.046875 0 L 6.296875 -13.6875 L 7.71875 -13.6875 L 13.96875 0 L 12.453125 0 Z M 10.28125 -4.828125 L 7 -12.171875 L 3.71875 -4.828125 Z M 10.28125 -4.828125 "/></g></g></g><path fill="#ffffff" d="M 66.835938 11.824219 C 66.617188 12.414062 66.339844 21.375 66.21875 31.746094 L 66 50.59375 L 36.011719 51.023438 L 6.023438 51.449219 L 6.023438 66.015625 L 66 66.875 L 66.21875 126.664062 C 66.417969 179.925781 66.585938 186.511719 67.777344 186.96875 C 68.511719 187.25 69.957031 187.074219 70.984375 186.574219 C 74.527344 184.851562 81.988281 183.628906 86.605469 184.011719 C 90.257812 184.3125 92.730469 185.304688 98.324219 188.703125 C 107.605469 194.34375 113.082031 196.113281 119.84375 195.65625 C 126.574219 195.203125 131.15625 192.980469 133.710938 188.933594 C 135.597656 185.941406 139.648438 173.816406 143.710938 158.980469 C 148.054688 143.117188 157.207031 108.253906 158.109375 104.144531 C 159.050781 99.847656 162.171875 87.847656 164.683594 78.867188 C 165.871094 74.628906 167.160156 69.421875 167.550781 67.300781 C 167.941406 65.179688 168.8125 61.902344 169.484375 60.019531 C 170.160156 58.132812 170.976562 55.144531 171.300781 53.378906 C 171.664062 51.410156 172.375 50.164062 173.140625 50.164062 C 174.828125 50.164062 174.730469 51.226562 172.261719 59.632812 C 171.09375 63.617188 170.128906 67.441406 170.121094 68.132812 C 170.109375 68.828125 169.351562 71.914062 168.4375 74.988281 C 167.519531 78.066406 164.972656 87.90625 162.777344 96.863281 C 160.578125 105.816406 157.867188 116.609375 156.742188 120.851562 C 155.621094 125.09375 153.890625 131.648438 152.898438 135.417969 C 149.496094 148.34375 143.316406 169.90625 141.394531 175.570312 C 139.441406 181.328125 138.734375 187.570312 140.089844 187.121094 C 142.222656 186.410156 149.113281 165.882812 157.304688 135.847656 C 160.09375 125.613281 167.605469 97.316406 170.160156 87.4375 C 171.132812 83.667969 172.664062 78.074219 173.566406 75.011719 C 174.464844 71.949219 175.84375 66.746094 176.621094 63.445312 C 178.203125 56.765625 179.75 54.328125 181.378906 55.957031 C 182.4375 57.019531 181.390625 61.84375 177.695312 72.871094 C 176.746094 75.699219 175.613281 79.746094 175.175781 81.867188 C 174.738281 83.988281 173.4375 88.808594 172.289062 92.578125 C 171.136719 96.347656 168.472656 105.601562 166.363281 113.140625 C 164.253906 120.679688 161.523438 130.128906 160.292969 134.132812 C 158.824219 138.914062 157.375 143.703125 155.941406 148.492188 C 154.777344 152.386719 151.894531 161.425781 149.535156 168.582031 C 145.253906 181.574219 144.90625 186.144531 148.683594 179.8125 C 150.660156 176.496094 154.757812 166 156.816406 158.980469 C 157.4375 156.859375 158.71875 153.003906 159.664062 150.414062 C 160.605469 147.820312 162.570312 141.746094 164.027344 136.917969 C 165.484375 132.085938 167.816406 124.375 169.210938 119.78125 C 170.828125 114.433594 172.421875 109.078125 173.992188 103.714844 C 177.679688 91.066406 180.210938 82.625 182.097656 76.726562 C 183.078125 73.664062 184.347656 69.421875 184.914062 67.300781 C 185.710938 64.347656 186.402344 63.382812 187.882812 63.171875 C 190.324219 62.824219 190.3125 63.039062 187.316406 72.144531 C 185.945312 76.316406 183.597656 83.964844 182.097656 89.152344 C 180.226562 95.589844 178.316406 102.015625 176.367188 108.429688 L 171.664062 123.851562 C 168.109375 135.503906 159.027344 163.132812 156.480469 170.035156 C 153.589844 177.871094 153.246094 179.875 154.894531 179.335938 C 157.03125 178.632812 167.4375 153.214844 171.378906 139.082031 C 172 136.855469 173.457031 132.421875 174.621094 129.226562 C 175.78125 126.035156 177.96875 119.179688 179.480469 113.996094 C 180.988281 108.8125 182.816406 103.222656 183.535156 101.574219 C 184.257812 99.925781 185.542969 96.070312 186.390625 93.007812 C 189.1875 82.898438 192.058594 73.753906 192.980469 72.015625 C 193.480469 71.070312 194.6875 67.8125 195.664062 64.769531 C 197.753906 58.238281 197.210938 57.019531 192.207031 57.019531 C 188.855469 57.019531 188.824219 56.988281 189.402344 54.34375 C 190.113281 51.117188 189.019531 50.199219 184.453125 50.179688 C 181.675781 50.167969 181.242188 49.898438 181.242188 48.195312 C 181.242188 45.5625 179.699219 44.167969 176.785156 44.167969 C 174.726562 44.167969 174.386719 43.824219 174.386719 41.757812 L 174.386719 39.34375 L 165.175781 38.371094 C 154.234375 37.214844 146.417969 34.824219 133.714844 28.746094 C 122.085938 23.1875 118.816406 22.019531 112.285156 21.109375 C 102.851562 19.789062 91.179688 22.699219 84.207031 28.109375 L 80.992188 30.601562 L 80.992188 21.707031 C 80.992188 15.929688 80.632812 12.449219 79.964844 11.78125 C 78.550781 10.363281 67.363281 10.398438 66.835938 11.824219 M 70.710938 34.210938 C 70.710938 49.164062 70.460938 53.59375 69.566406 54.332031 C 68.792969 54.976562 59.089844 55.355469 39.457031 55.507812 C 13.890625 55.707031 10.390625 55.898438 9.621094 57.117188 C 9.140625 57.878906 8.992188 59.132812 9.285156 59.902344 C 9.769531 61.164062 12.835938 61.304688 39.742188 61.304688 L 69.65625 61.304688 L 70.171875 63.230469 C 70.457031 64.292969 70.695312 91.710938 70.699219 124.164062 L 70.710938 183.171875 L 72.640625 182.703125 C 74.570312 182.222656 76.5 181.738281 78.421875 181.238281 C 84.269531 179.734375 93.859375 180.585938 97.832031 182.957031 C 109.558594 189.964844 110.214844 190.207031 117.410156 190.210938 C 126.277344 190.210938 128.320312 188.953125 130.285156 182.269531 C 131.074219 179.59375 132.0625 176.628906 132.480469 175.6875 C 132.902344 174.746094 134.816406 168.207031 136.738281 161.160156 C 138.65625 154.117188 140.371094 148.121094 140.539062 147.84375 C 140.9375 147.207031 147.683594 121.984375 148.683594 117.425781 C 149.09375 115.539062 151.210938 107.058594 153.390625 98.574219 C 155.566406 90.09375 157.46875 82.382812 157.613281 81.4375 C 157.761719 80.496094 158.109375 79.148438 158.394531 78.441406 C 158.675781 77.734375 159.851562 73.300781 161.003906 68.585938 C 162.15625 63.875 163.921875 56.96875 164.929688 53.246094 C 165.933594 49.519531 166.578125 46.011719 166.363281 45.449219 C 166.140625 44.871094 163.433594 44.214844 160.113281 43.933594 C 152.050781 43.253906 143.144531 40.167969 130.144531 33.550781 C 118.324219 27.535156 114.300781 26.183594 106.324219 25.550781 C 100.246094 25.070312 96.410156 26.0625 87.847656 30.324219 L 81.421875 33.519531 L 81.179688 42.273438 L 80.933594 51.023438 L 110.09375 51.023438 C 126.253906 51.023438 139.257812 51.359375 139.257812 51.773438 C 139.257812 52.1875 138.621094 53.054688 137.839844 53.703125 C 136.703125 54.648438 130.648438 54.878906 106.78125 54.878906 L 77.136719 54.878906 L 76.910156 34.957031 L 76.679688 15.035156 L 70.710938 15.035156 Z M 76.960938 62.375 C 76.054688 63.566406 76.527344 71.585938 77.5 71.585938 C 77.84375 71.585938 78.476562 70.15625 78.914062 68.40625 C 79.792969 64.894531 81.335938 64.109375 87.632812 63.960938 C 91.542969 63.867188 92.5 62.6875 89.347656 61.84375 C 85.867188 60.910156 77.8125 61.257812 76.960938 62.375 " fill-opacity="1" fill-rule="evenodd"/></svg>